<?xml version="1.0" standalone="no"?>
<!DOCTYPE svg PUBLIC "-//W3C//DTD SVG 1.1//EN" "http://www.w3.org/Graphics/SVG/1.1/DTD/svg11.dtd" >
<svg xmlns="http://www.w3.org/2000/svg" xmlns:xlink="http://www.w3.org/1999/xlink" version="1.1">
<metadata>
Created by FontForge 20160405 at Thu Jan 26 00:45:58 2017
 By www-data
Copyright (c) 2015 by Maghrib. All rights reserved.
</metadata>
<defs>
<font id="Asmara" horiz-adv-x="945" >
  <font-face 
    font-family="Asmara "
    font-weight="400"
    font-stretch="normal"
    units-per-em="1000"
    panose-1="0 0 0 0 0 0 0 0 0 0"
    ascent="750"
    descent="-250"
    x-height="798"
    cap-height="797"
    bbox="-628.273 -453.726 1551 1254.15"
    underline-thickness="50"
    underline-position="-200"
    unicode-range="U+000D-2212"
  />
<missing-glyph horiz-adv-x="298" 
 />
    <glyph glyph-name="yi" unicode="yi" horiz-adv-x="976" 
d="M696 46q16 -8 16 -20q0 -18 -20 -22q-8 -2 -19 -3q-33 -3 -61 0h-4q-2 0 -9 1l-10.5 1.5t-7 3.5t-3.5 8q0 11 5.5 19t13 13.5t8.5 7.5q6 11 6 61q0 23 0.5 50t0.5 33v111q0 42 -1 75q-2 25 -5 32q-4 14 -18 22q-15 9 -15 20q0 18 20 22q2 1 20 3q28 2 55 1v-1h5
q1 0 5.5 -0.5t7 -0.5t6 -1t5.5 -2.5t3.5 -4t1.5 -5.5q0 -8 -5 -14.5t-11.5 -12.5t-8.5 -8q-5 -11 -5 -246q0 -33 1 -63v-26q2 -25 5 -32q4 -13 18 -22zM870 900q34 -46 35 -114t-22 -118q-23 -58 -73.5 -102t-102.5 -44q-76 0 -114 68q-19 35 -10.5 78t41.5 65q28 20 59 14
q15 -2 27.5 -12.5t15.5 -25.5q4 -15 -3.5 -30.5t-21.5 -19.5q-6 -2 -26 -3t-28 -8q-14 -11 -9 -31q6 -17 21 -27q25 -18 44.5 -17.5t46.5 16.5q47 30 74.5 78t30.5 104q3 52 -18.5 91.5t-68.5 52.5q-107 29 -205 -118q-16 -24 -28 -43t-21 -33t-17.5 -28t-13.5 -22.5
t-13 -23.5t-12 -22t-14.5 -28l-16.5 -33q-46 -88 -60 -111q-9 -30 -10 -110q0 -79 -1 -148v-25q0 -68 4 -100q4 -13 18 -21t14 -20q0 -7 -3 -11q-1 -3 -3 -5.5t-5.5 -3.5t-6 -1.5t-8 -1t-6.5 -0.5q-12 -2 -75 -2h-40q-10 0 -15 2h-1q-1 1 -2 1q-14 2 -15 11q-4 6 -4 11v2
q1 11 15 18q4 2 6.5 4.5l4.5 4.5t3.5 6t2.5 7.5t1.5 10.5t1 13t0.5 17.5v22t0.5 27.5t0.5 33h1q-1 44 -1 104q-1 70 -2.5 86t-8.5 30q-13 25 -24 48l-19 36q0 1 -1 1q-23 41 -44 80.5t-32.5 61.5t-22 42.5t-16.5 29.5t-10.5 17t-10 11.5t-9 6t-13 6t-16.5 7.5
q-8 3 -12.5 11.5t0.5 14.5q3 4 12 6q24 6 85.5 7.5t64.5 -0.5q1 0 8 -0.5t11 -1t9.5 -2t8.5 -5.5t3 -9q4 -9 -14 -22l-1 -3q0 -5 -1 -9q-1 -5 12 -32q3 -7 5 -11.5l6 -13.5l8 -18q15 -35 94 -188q2 -4 6 -4t16 19.5t26 46.5l15 27q9 14 33.5 61.5t35.5 64.5q3 5 19 31.5
t21 34t20.5 31t23.5 33t23 29t26.5 30t27.5 24t32 23.5t33 17q24 10 44 13q46 8 77.5 -5.5t62.5 -44.5q6 -6 8 -10q5 -3 6 -7z" />
    <glyph glyph-name="ve" unicode="ve" horiz-adv-x="1007" 
d="M816 81q2 -2 4 -6q6 -12 3 -48q0 -2 -0.5 -5.5t-0.5 -6t-0.5 -5.5t-2 -5t-3 -3.5t-4.5 -1.5h-27h-50h-53q-77 2 -84 3q-5 0 -12 2q-19 3 -19 21q0 12 14 21q9 5 14 15.5t6.5 26t2 27.5t-0.5 31t-1 27t-1 69.5t-1 136.5q0 24 -4.5 37.5t-9.5 16.5t-10.5 6.5t-7.5 10.5
q-2 12 4 21.5t20 10.5q4 0 44.5 -0.5t45.5 0.5q30 1 91 1q3 0 11 1t14.5 0.5t11.5 -2.5q13 -6 13 -20q1 -5 -2.5 -15.5t-3.5 -12.5v-12t-2 -15q-4 -12 -16 -15q-15 -4 -20 6q-2 3 -10 25q-5 16 -16 20q-3 1 -8 1q-24 3 -53 1q-16 0 -23.5 -12t-8 -20.5t-0.5 -30.5
q0 -50 -0.5 -87t0.5 -51q47 0 47 10q0 13 5 23q5 12 25 7.5t20 -26.5q0 -18 -0.5 -35t-0.5 -31q0 -37 -17 -36q-32 3 -32 30q0 4 -0.5 6t-0.5 3.5t-1.5 2.5t-3 1.5t-4.5 0.5t-6 -0.5t-9 -0.5h-11q-7 0 -8.5 -0.5t-3.5 -0.5v-113q0 -3 -1 -11.5t-1 -14.5t2 -12t7 -9
q7 -3 50 -3q4 0 14 -0.5t16 -0.5t13.5 1.5t12.5 5.5q12 11 17 41q5 10 17 6q7 -2 10 -8zM921 867q37 -89 -7 -199q-15 -36 -41 -69q-24 -28 -50 -45q-39 -27 -85 -31q-40 -5 -78.5 13.5t-56.5 53.5q-19 35 -10.5 78t41.5 65q28 20 58 15q36 -7 44 -39q4 -15 -3.5 -30.5
t-22.5 -19.5q-6 -2 -25.5 -3t-27.5 -8q-14 -11 -9 -31q4 -15 20 -27q22 -17 51 -18t53 12l10 5q16 10 35 27q32 32 48 70q12 24 18 53q2 10 4 32q3 50 -17 89t-64 53q-1 0 -7 2q-104 28 -189 -79q-33 -42 -66 -117q-17 -42 -25 -69q-6 -18 -17.5 -55t-17.5 -55
q-11 -34 -41 -127.5t-45 -141.5q-21 -69 -40 -136l-35 -97q-2 -6 -8 -18q-1 -2 -4 -5q-1 -1 -2 -2.5t-2 -2.5q-5 -5 -12 -7t-11 -2.5t-16 0.5t-15 1q-10 0 -15 2q-4 1 -12 7q0 1 -1 1l-1 2q-2 2 -2 3q-2 2 -4 6q-3 8 -7 22.5t-6 20.5q-12 30 -14 42v3q0 1 -0.5 2t-0.5 2v1
q0 1 -1 3.5t-1 3.5q-2 8 -3 13q-1 4 -3 14q-2 6 -2 11q-1 3 -3 11q-1 2 -2 5.5t-1 5.5v1q0 2 -1 7t-2 7q-1 1 -1 3t-1 3q-1 5 -3 13v1q-1 5 -3.5 15t-3.5 15q-3 12 -9 38q-1 5 -3 13.5t-3 12.5q-6 28 -10 42q-10 44 -16 67v3q-6 24 -22 94q-5 20 -8 34q-4 13 -5 22
q-2 6 -2 8q-22 94 -24 106q-4 14 -5 21q-1 3 -1 7l-1 1q-1 4 -7 17q-4 6 -7 9t-6 4q-5 5 -10 6q-1 1 -3.5 2t-3.5 1q-6 3 -7 4q0 1 -2 2.5t-2 2.5q0 2 -1 2q0 1 -1 3v1v6q1 1 1 2l1 2q0 2 2 2q5 6 14 8q2 0 5 0.5t4 0.5q27 3 78 3t65 -2q27 -3 31 -7q3 -2 3 -6v-4v-3
q-1 0 -1 -2q-2 -2 -2 -3q-3 -3 -4 -5q-1 -1 -3 -2.5t-3.5 -2t-3 -2l-2.5 -2.5l-4 -4v-2q-7 -10 -4 -21q2 -15 8 -62l3 -18v-3q0 -3 1 -9.5t2 -9.5q0 -2 0.5 -5.5t1.5 -5.5l11 -73h-1q0 -3 1 -4v-4q0 -1 0.5 -2t0.5 -2t0.5 -5t0.5 -5q0 -2 1 -7.5t2 -8.5q0 -1 0.5 -3.5
t0.5 -3.5q0 -2 1 -6t1 -6q1 -9 8 -42v-1q11 -63 40.5 -182.5t30.5 -123.5q0 -1 1 -2l1 -1h1l2 -1q3 0 5 2v1q1 0 1 1v1q1 1 1 2l1 1v2q4 13 14.5 48l16.5 55q10 33 30.5 98.5t33.5 108.5l20 72t26.5 90t25.5 70q25 59 48 101q27 50 60 89q69 81 147 94q29 5 64 0
q66 -12 106 -60q15 -16 25 -40z" />
    <glyph glyph-name="ze" unicode="ze" horiz-adv-x="982" 
d="M875 388q2 -2 4 -6q5 -13 3 -49q0 -1 -0.5 -6t-1 -7.5t-1.5 -6t-3 -5t-5 -1.5h-27q-8 0 -25 -0.5t-25 -0.5q-10 1 -53 1q-67 0 -84 2q-5 1 -12 2q-19 5 -19 22q0 12 14 21q9 5 14.5 15.5t7 26t1.5 27.5t-1 31t-1 27q0 7 -0.5 68.5t-0.5 137.5q0 24 -4.5 37.5t-10 16
t-11 6t-7.5 10.5q-6 30 24 33q17 0 44 -0.5t46 -0.5q60 2 91 2q34 0 37 -1q13 -6 13 -20q0 -1 -6 -28v-12.5t-2 -15.5q-5 -11 -16 -14q-15 -4 -20 6q-3 4 -5.5 13t-4.5 12q-6 16 -16 20q-3 1 -8 1q-9 1 -52 1q-12 0 -19.5 -5t-10 -17t-3 -18t-0.5 -23v-138h7q7 -1 12.5 -0.5
t13 1t11.5 3t4 6.5q0 14 4 23q5 12 25 7.5t20 -26.5q0 -19 -0.5 -36t-0.5 -31q-1 -35 -17 -35q-32 3 -32 29q0 4 -0.5 6t-0.5 3.5t-1.5 2.5t-3 1.5t-4.5 0.5t-6 -0.5t-9 -0.5h-11q-7 0 -8.5 -0.5t-3.5 -0.5v-112q0 -3 -0.5 -12t-0.5 -14.5t2 -11.5t7 -9t49 -3q4 0 14 -0.5
t16.5 -0.5t14 1.5t11.5 5.5q12 11 17 40q5 10 17 6q6 -2 10 -7zM845 239q43 -30 58.5 -82t3.5 -109t-47 -106q-36 -50 -92 -75t-119.5 -24.5t-122 12.5t-116.5 35q-28 11 -92 42t-114 48t-99 17h-4h-31h-10h-5q-24 2 -35 4h-1h-2q-14 4 -17 15q0 1 1 1q5 10 25 18
q20 7 29 19q5 5 13 17q44 83 78 145v1l1 1q22 40 33 61q1 2 3.5 6.5t3.5 6.5l4 6q13 26 23 45l10 20l21 41l10 19l23 44l24 47l12 23l41 79q4 5 5 11q2 3 5 9.5t4 9.5l2 3q2 6 8 18q2 5 6.5 15t8 18t6.5 15q1 1 1 3q4 6 5 10q4 8 4 14v1q0 1 -0.5 3t-0.5 3v1h-96h-38
q-26 1 -88 -2q-18 -2 -26 -5q-1 0 -1 -1q-17 -4 -31 -20q-5 -6 -9.5 -13.5t-9.5 -19t-7 -15.5q-2 -2 -4 -8q-7 -12 -16 -16q-9 -5 -19 0l-3 3q-10 11 -5 43q6 34 12 48q3 6 8 18.5t6 15.5q5 10 7 12q3 3 5 4q3 3 16.5 1.5t17.5 -1.5q6 0 19 0.5t20 0.5q12 0 36.5 -0.5
t37.5 -0.5h4h1h-1h-1h-1h-9h4h117h58h6h1h17h10h21h6h1h17q6 0 18 -0.5t18 -0.5q4 0 11 -0.5t11 -1.5h2q4 0 11.5 -0.5t11.5 -1.5q1 0 4 -0.5t4 -1.5q6 -1 10.5 -5t3.5 -10l-2 -4q-5 -10 -25 -18l-2 -1l-2 -1q-18 -7 -25 -17q-5 -5 -13 -17q-23 -43 -119 -221l-18 -34v-1
l-3 -5l-2 -3l-2 -5l-3 -5l-12 -24l-25 -49q-13 -25 -20 -39q-1 -1 -1 -2l-4 -7l-14 -26l-30 -59l-1 -2l-6 -12l-27 -51q-1 -2 -2.5 -5.5t-2.5 -5.5q0 -1 -1 -1q-2 -6 -8 -18l-1 -3q-6 -12 -8 -18q-6 -14 -38 -78q6 -2 11 -4q3 0 5 -2q58 -20 150.5 -65.5t153.5 -65.5
q53 -18 125 -20t125 20q29 16 57 45.5t42 60.5q53 114 -21 191q-49 39 -99.5 35.5t-84.5 -38t-16 -69.5q10 -18 19 -19q10 -1 26.5 10.5t18.5 12.5q14 6 30 -0.5t22 -20.5q18 -31 -14 -59q-35 -31 -80 -17q-33 9 -55 42q-23 37 -20 75.5t32.5 67.5t67 45.5t85 10.5t85.5 -37
z" />
    <glyph glyph-name="ka" unicode="ka" horiz-adv-x="837" 
d="M699 247q64 -44 67 -133t-49 -160q-2 -4 -5 -7q-17 -23 -32 -36q-3 -3 -11 -9q-55 -47 -126 -53h-3q-57 -5 -108 15q-66 24 -102 76q-14 19 -23 42.5t-13.5 42.5t-6 48t-1.5 45t1.5 49t1.5 45v12q0 10 -3 21q-16 50 -83 55h-5h-34q-12 -4 -16 -9q-3 -5 -3 -27
q-1 -7 -1 -21t-1 -21v-38v-61q1 -8 1 -24q0 -18 4 -31q6 -14 18 -21q15 -7 15 -20q0 -17 -19 -21q-10 -2 -18 -2q-1 0 -3 -0.5t-3 -0.5h-1q-3 0 -11.5 -0.5t-14.5 -0.5h-4h-5q-16 0 -40.5 0.5t-28.5 0.5q-1 1 -2 1h-1h-2q-1 0 -6.5 0.5t-8 1t-6.5 1.5t-5.5 3.5t-1.5 6.5
q0 8 5 14.5t11.5 11.5t8.5 8q7 14 7 62q0 22 0.5 48.5t0.5 31.5v107v34q15 394 -1 421l-11.5 11.5t-10.5 19.5q0 5 3 7l1 1q10 2 20 2q45 4 105 1q2 -1 5 -1q1 0 6.5 -0.5t8 -1t6.5 -1.5t5.5 -3.5t1.5 -6.5q0 -10 -12 -21.5t-12 -12.5q-7 -14 -7 -62v-13v-20v-1v-63
q1 -16 1 -49q1 -33 1 -100q1 -10 1 -30q0 1 1 1l1 2l3 3l23 32l7 9l23 31q10 15 32 45q52 72 78 107l9 12q4 6 7 10q5 6 14.5 20t14.5 20q21 29 23 32q1 1 1 2q17 23 14 31q-1 2 -3.5 5t-3.5 4q-6 6 -6 11q-1 7 9 9h6q5 0 15 0.5t15 0.5h50q21 0 21 -10q0 -4 -3 -7
q-3 -4 -12.5 -7.5t-12.5 -5.5q-7 -4 -19 -26q-28 -42 -39 -58q-12 -17 -16 -24q-8 -12 -26 -38t-27 -40q-4 -6 -12.5 -18t-12.5 -18q-27 -42 -44 -67q-3 -5 -14.5 -22t-27.5 -40t-24 -36q10 1 26 -3q42 -11 74 -43q8 -9 16 -19q43 -55 34 -148q-4 -45 -3 -90q4 -114 62 -156
q24 -18 54 -23q79 -16 133 12q29 16 57 45.5t42 60.5q53 114 -21 191q-49 39 -99.5 35.5t-84.5 -38t-16 -69.5q10 -18 20 -19t25.5 10t19.5 13q14 6 29.5 -0.5t22.5 -20.5q18 -31 -13 -59q-35 -30 -81 -18q-33 10 -56 43q-18 26 -20 54.5t9.5 52t31.5 44.5t48 33t58 15.5
t63 -5.5t60 -32zM737 326q1 -6 -3 -8.5t-11 -3.5q-34 -5 -70 -1q-1 0 -5 0.5t-5.5 1t-4 2t-2.5 4.5q-1 6 7 14t6 19q-10 80 -11 85l-105 -3q-1 0 -11 -34t-10 -36q-5 -17 -3 -22q1 -4 7.5 -7t7.5 -6q3 -8 -4 -12.5t-18.5 -5t-21.5 -0.5t-15 1q-12 2 -12 11q0 3 1 5.5t2.5 4
t4 3.5t3.5 4q9 13 24 64.5t38 139t39 140.5q20 64 19 83q-1 17 3 22t26 6q21 1 28.5 -20t22.5 -121q24 -159 48 -296q0 -4 3 -11t12 -11.5t10 -11.5zM561 480q13 0 32.5 0.5t25.5 0.5l-1 13l-15 150q-2 -7 -5.5 -21.5t-5.5 -21.5q-26 -105 -31 -121z" />
    <glyph glyph-name="En" unicode="Em" horiz-adv-x="872" 
d="M779 772q0 -11 -11.5 -22.5t-12.5 -13.5q-2 -3 -4 -16q0 -24 0.5 -70.5t1.5 -67.5q0 -21 0.5 -83.5t0.5 -90.5v-30q-1 -9 -1 -27q0 -3 1 -5q0 -6 6 -8q9 -4 12 -9q1 -3 1 -10t-3 -11q-4 -6 -27 -6h-38q-1 0 -0.5 0.5t-0.5 1.5q-13 5 -24 25l-1 1q-12 21 -26 58
q-92 248 -97 252q-1 -1 -1 -2v-7v-4q0 -102 -3 -258q2 -13 4 -16q1 -2 12.5 -13.5t11.5 -22.5q0 -5 -1.5 -8t-5.5 -4t-6.5 -1.5t-8 -1t-6.5 -0.5h-1h-53h-1q-2 0 -6 0.5t-6.5 0.5t-6 1t-5.5 2.5t-3.5 4t-1.5 6.5q0 11 12 22.5t13 13.5q4 8 6 43v1q1 53 1 83.5v36.5t0.5 16.5
t0.5 33.5q1 17 1 51.5t1 51.5q3 71 -9 83q-2 3 -19 3q-6 10 -6 17q0 13 14 13q22 0 68 2q6 1 10.5 0t10.5 -1q5 0 16.5 -24.5t25.5 -61t29.5 -80t28 -80t21.5 -62.5l9 -26l-2 141v14l-2 84q0 30 -5 43q-1 0 -1 1q-1 2 -13 13.5t-12 22.5q0 3 1 5t2.5 3.5t3 2.5t4.5 1.5
t5 0.5t5.5 0.5t4.5 0.5h1l2 1h1h53h1q2 0 8.5 -1t9.5 -1.5t6.5 -4t3.5 -8.5zM578 -157q-40 -3 -86.5 8.5t-71.5 23t-79 39.5l-18 9q-72 38 -121.5 57t-96.5 20h-4q-56 -2 -81 4h-2q-18 4 -18 20q0 9 4 13q6 4 10 6q10 7 11 9q8 9 8 44q0 331 4 550q2 64 -3 78v0
q-4 16 -19 25l-1 1q-2 0 -2 1q-10 5 -10 13q-1 5 -1 9t3 7t8.5 5.5t16 3.5t25.5 2t36 1q31 1 130 1h6h117h5h21h1q18 1 28 0q15 -2 20 -7q13 -12 7 -26l-2 -2q-2 -3 -9 -9t-9 -11q-4 -11 -4 -116q0 -2 -0.5 -13.5t0 -16.5t3.5 -12.5t10 -11.5q9 -4 9 -13q0 -12 -12 -14
q-2 0 -2 -1h-1q-4 0 -6 -1h-1q-8 0 -13 -1q-27 -1 -68 1h-3q-1 0 -3 1h-1q-5 0 -6 1q-6 2 -6 7v2q1 6 9 13t8 8q7 13 5 83v35t0.5 27.5t-1 17.5t-4 13t-8.5 6q-4 2 -7 2q-9 2 -47 0h-1q-8 0 -33 -0.5t-42 -0.5h-2q-9 0 -15 -6q-3 -3 -5.5 -8.5t-3 -14.5t-0.5 -14.5v-19
v-18.5q0 -56 -3 -176.5t-3 -150.5h18h28h23h13h2q7 0 15 4q17 13 26 39q1 3 2 10.5t3.5 12t9.5 5.5q11 3 19 -2l2 -2q7 -5 10 -17q5 -22 5 -81.5t-2 -72.5q0 -2 -1 -8t-1.5 -10t-3 -8.5t-6.5 -5.5h-2v-1h-3q-16 2 -26 17q-2 3 -6.5 18t-12.5 26t-21 12h-2h-30q-15 0 -22 -1
h-38v-62v-95v-70v-3h1q20 -5 48 -14q38 -14 77 -36q14 -8 51.5 -30t58.5 -33t55.5 -25t67.5 -20q83 -14 134 13q28 15 56.5 45t42.5 61q52 114 -22 190q-48 39 -98.5 36t-84.5 -38t-16 -70q8 -18 19 -19q10 -1 25.5 10t19.5 13q14 6 30 0t22 -20q18 -31 -14 -59
q-35 -31 -80 -17q-33 9 -55 42q-23 37 -20 75.5t32.5 67.5t67 45.5t85 10t85.5 -37.5q50 -35 62 -100t-10 -128t-78.5 -113t-130.5 -57z" />
    <glyph glyph-name="Es" unicode="Es" horiz-adv-x="872" 
d="M650 681q2 8 10 13q20 15 25 30q3 9 -1 19t-13 13q-15 5 -30 -10q-22 -25 -12 -63q3 -10 8 -19t13.5 -18.5t12.5 -13.5t16.5 -15t15.5 -13q66 -58 72 -140q6 -98 -82 -149q-56 -30 -114.5 -3.5t-79.5 85.5q-13 30 -10.5 74t24.5 70q22 20 53 21.5t54 -19.5t13 -53
q-7 -21 -33 -29t-35 16q-4 12 6.5 20.5t11.5 11.5q4 8 -2.5 16.5t-16.5 8.5q-11 0 -23 -21q-20 -35 -12.5 -76.5t38.5 -67.5q21 -16 47.5 -19.5t50.5 8.5q49 24 46 67q0 11 -2 21.5t-6 21t-7.5 19t-10.5 19.5t-10.5 17t-13 18t-13 16t-14.5 17t-13 16q-67 80 -35 151
q12 27 40.5 40.5t57.5 7.5q45 -11 55 -73q7 -19 0.5 -47t-32.5 -25q-16 1 -34 11.5t-15 25.5zM578 -157q-40 -3 -86.5 8.5t-71.5 23t-79 39.5l-18 9q-72 38 -121.5 57t-96.5 20h-4q-56 -2 -81 4h-2q-18 4 -18 20q0 9 4 13q6 4 10 6q10 7 11 9q8 9 8 44q0 331 4 550
q2 64 -3 78v0q-4 16 -19 25l-1 1q-2 0 -2 1q-10 5 -10 13q-1 5 -1 9t3 7t8.5 5.5t16 3.5t25.5 2t36 1q31 1 130 1h6h117h5h21h1q18 1 28 0q15 -2 20 -7q13 -12 7 -26l-2 -2q-2 -3 -9 -9t-9 -11q-4 -11 -4 -116q0 -2 -0.5 -13.5t0 -16.5t3.5 -12.5t10 -11.5q9 -4 9 -13
q0 -12 -12 -14q-2 0 -2 -1h-1q-4 0 -6 -1h-1q-8 0 -13 -1q-27 -1 -68 1h-3q-1 0 -3 1h-1q-5 0 -6 1q-6 2 -6 7v2q1 6 9 13t8 8q7 13 5 83v35t0.5 27.5t-1 17.5t-4 13t-8.5 6q-4 2 -7 2q-9 2 -47 0h-1q-8 0 -33 -0.5t-42 -0.5h-2q-9 0 -15 -6q-3 -3 -5.5 -8.5t-3 -14.5
t-0.5 -14.5v-19v-18.5q0 -56 -3 -176.5t-3 -150.5h18h28h23h13h2q7 0 15 4q17 13 26 39q1 3 2 10.5t3.5 12t9.5 5.5q11 3 19 -2l2 -2q7 -5 10 -17q5 -22 5 -81.5t-2 -72.5q0 -2 -1 -8t-1.5 -10t-3 -8.5t-6.5 -5.5h-2v-1h-3q-16 2 -26 17q-2 3 -6.5 18t-12.5 26t-21 12h-2
h-30q-15 0 -22 -1h-38v-62v-95v-70v-3h1q20 -5 48 -14q38 -14 77 -36q14 -8 51.5 -30t58.5 -33t55.5 -25t67.5 -20q83 -14 134 13q28 15 56.5 45t42.5 61q52 114 -22 190q-48 39 -98.5 36t-84.5 -38t-16 -70q8 -18 19 -19q10 -1 25.5 10t19.5 13q14 6 30 0t22 -20
q18 -31 -14 -59q-35 -31 -80 -17q-33 9 -55 42q-23 37 -20 75.5t32.5 67.5t67 45.5t85 10t85.5 -37.5q50 -35 62 -100t-10 -128t-78.5 -113t-130.5 -57z" />
    <glyph glyph-name="aa" unicode="aa" horiz-adv-x="946" 
d="M843 64q5 -13 19 -21t14 -20q0 -17 -19 -21q-20 -4 -69.5 -4t-64.5 2q-1 0 -5.5 0.5t-6.5 0.5t-5.5 1t-5.5 2.5t-3.5 4t-1.5 5.5q0 10 13 22l12 11q4 9 5.5 41t1.5 74t1 54q-12 2 -91.5 2.5t-114.5 -0.5q-17 -75 -60 -213q-23 -74 -61 -127t-80.5 -77t-88 -31t-86.5 9.5
t-74 46t-52.5 77.5t-19.5 105q0 82 33 153t98 101q63 26 118 23t93 -32.5t38 -70.5q-1 -36 -18.5 -62.5t-49.5 -30.5q-21 -2 -40 7t-27 27q-9 18 -1.5 39t26.5 28q3 1 8.5 2t9 2t8 3.5t6.5 5.5q6 7 2.5 18.5t-13.5 15.5q-24 10 -54 12t-63 -8.5t-61 -32.5t-48.5 -65
t-25.5 -101q-9 -95 37 -160t135 -65q58 0 101.5 36.5t70.5 99.5t48 140.5t41 167t41.5 172.5t57 162.5t81.5 130.5q60 68 144 71q54 3 70 -22q10 -14 -4 -32q-13 -17 -14 -28q-11 -81 -12.5 -355t7.5 -296zM724 264q2 0 4 49t4.5 114.5t4.5 90.5q11 123 8 209q-1 31 -39 -11
l-6 -7q-46 -57 -83.5 -156.5t-80.5 -288.5h18h44h53h48h25zM379 328q1 -6 -2.5 -8.5t-10.5 -3.5q-34 -5 -70 -1q-1 0 -5 0.5t-5.5 1t-4 2t-2.5 4.5q-1 6 7 13.5t6 18.5q-9 79 -11 86l-105 -3q-1 0 -11 -34t-10 -36q-5 -18 -4 -22q1 -3 7.5 -6t7.5 -7q7 -15 -26 -18
q-20 -1 -32 1t-12 11q0 3 1 5.5t2.5 4t4 3.5t3.5 4q9 13 24 64.5t38 139t39 140.5q20 64 19 83q-1 10 0 16t7 9t22 3q21 1 28.5 -20t22.5 -121q24 -159 48 -296q0 -4 3 -11t11.5 -11.5t9.5 -11.5zM204 482q13 0 32.5 0.5t25.5 0.5l-1 13q0 1 -6 60.5t-10 89.5
q-1 -6 -4.5 -21t-5.5 -23q-28 -111 -31 -120z" />
    <glyph glyph-name="ba" unicode="ba" horiz-adv-x="946" 
d="M843 64q5 -13 19 -21t14 -20q0 -17 -19 -21q-20 -4 -69.5 -4t-64.5 2q-1 0 -5.5 0.5t-6.5 0.5t-5.5 1t-5.5 2.5t-3.5 4t-1.5 5.5q0 10 13 22l12 11q4 9 5.5 41t1.5 74t1 54q-12 2 -91.5 2.5t-114.5 -0.5q-17 -75 -60 -213q-23 -74 -61 -127t-80.5 -77t-88 -31t-86.5 9.5
t-74 46t-52.5 77.5t-19.5 105q0 82 33 153t98 101q63 26 118 23t93 -32.5t38 -70.5q-1 -36 -18.5 -62.5t-49.5 -30.5q-21 -2 -40 7t-27 27q-9 18 -1.5 39t26.5 28q3 1 8.5 2t9 2t8 3.5t6.5 5.5q6 7 2.5 18.5t-13.5 15.5q-24 10 -54 12t-63 -8.5t-61 -32.5t-48.5 -65
t-25.5 -101q-9 -95 37 -160t135 -65q58 0 101.5 36.5t70.5 99.5t48 140.5t41 167t41.5 172.5t57 162.5t81.5 130.5q60 68 144 71q54 3 70 -22q10 -14 -4 -32q-13 -17 -14 -28q-11 -81 -12.5 -355t7.5 -296zM724 264q2 0 4 49t4.5 114.5t4.5 90.5q11 123 8 209q-1 31 -39 -11
l-6 -7q-46 -57 -83.5 -156.5t-80.5 -288.5h18h44h53h48h25zM311 511q17 -7 30 -20q20 -20 25.5 -54t-3.5 -59q-10 -39 -36 -51t-72 -13q-32 -1 -70.5 -1.5t-43.5 0.5q-11 0 -17.5 0.5t-10.5 1.5t-5 2.5t0 4.5q-2 2 2 8q2 2 6 5.5t5 5.5q5 7 10.5 212t-1.5 221q-1 1 -5 4
t-6.5 7t-2.5 8q0 7 18 7.5t83 -0.5q96 0 131 -37q18 -19 22 -58t-8.5 -87.5t-40.5 -86.5q-15 -18 -10 -20zM299 425q1 21 -3 35t-15 20.5t-21 9t-28 4.5q-6 1 -21 0.5t-15 -2.5l-1 -147l1 -2q7 -3 34 -1q36 4 50 19q18 22 19 64zM249 541q25 39 38.5 83.5t13.5 74.5
q0 64 -79 71q-20 3 -20 -8q-2 -212 -3 -241q15 0 30 6t20 14z" />
    <glyph glyph-name="da" unicode="da" horiz-adv-x="946" 
d="M388 674q14 -34 14 -100q0 -149 -62.5 -207.5t-193.5 -53.5q-14 -1 -39.5 -0.5t-30.5 2.5q-11 3 -3 15l5 4q5 5 7 8q6 13 8.5 28.5t2 41.5t-0.5 30q1 19 2 56.5t2 56.5q0 34 0.5 67t1 52.5t1 37.5t0 27t-2 17.5t-4 12t-7.5 6.5q-7 4 -8 8q-3 12 10 16q8 3 57 2.5t80 -5.5
q55 -9 98 -40.5t63 -81.5zM225 359q108 45 98 234q-3 49 -13 82.5t-40 57.5q-31 23 -66 29q-26 3 -30 2q-7 -2 -8 -12q-2 -24 -5 -109.5t-5 -190t7 -104.5q17 -8 62 11zM843 64q5 -13 19 -21t14 -20q0 -17 -19 -21q-20 -4 -69.5 -4t-64.5 2q-1 0 -5.5 0.5t-6.5 0.5t-5.5 1
t-5.5 2.5t-3.5 4t-1.5 5.5q0 10 13 22l12 11q4 9 5.5 41t1.5 74t1 54q-12 2 -91.5 2.5t-114.5 -0.5q-17 -75 -60 -213q-23 -74 -61 -127t-80.5 -77t-88 -31t-86.5 9.5t-74 46t-52.5 77.5t-19.5 105q0 82 33 153t98 101q63 26 118 23t93 -32.5t38 -70.5q-1 -36 -18.5 -62.5
t-49.5 -30.5q-21 -2 -40 7t-27 27q-9 18 -1.5 39t26.5 28q3 1 8.5 2t9 2t8 3.5t6.5 5.5q6 7 2.5 18.5t-13.5 15.5q-24 10 -54 12t-63 -8.5t-61 -32.5t-48.5 -65t-25.5 -101q-9 -95 37 -160t135 -65q58 0 101.5 36.5t70.5 99.5t48 140.5t41 167t41.5 172.5t57 162.5
t81.5 130.5q60 68 144 71q54 3 70 -22q10 -14 -4 -32q-13 -17 -14 -28q-11 -81 -12.5 -355t7.5 -296zM724 264q2 0 4 49t4.5 114.5t4.5 90.5q11 123 8 209q-1 31 -39 -11l-6 -7q-46 -57 -83.5 -156.5t-80.5 -288.5h18h44h53h48h25z" />
    <glyph glyph-name="ea" unicode="ea" horiz-adv-x="946" 
d="M843 64q5 -13 19 -21t14 -20q0 -17 -19 -21q-20 -4 -69.5 -4t-64.5 2q-1 0 -5.5 0.5t-6.5 0.5t-5.5 1t-5.5 2.5t-3.5 4t-1.5 5.5q0 10 13 22l12 11q4 9 5.5 41t1.5 74t1 54q-12 2 -91.5 2.5t-114.5 -0.5q-17 -75 -60 -213q-23 -74 -61 -127t-80.5 -77t-88 -31t-86.5 9.5
t-74 46t-52.5 77.5t-19.5 105q0 82 33 153t98 101q63 26 118 23t93 -32.5t38 -70.5q-1 -36 -18.5 -62.5t-49.5 -30.5q-21 -2 -40 7t-27 27q-9 18 -1.5 39t26.5 28q3 1 8.5 2t9 2t8 3.5t6.5 5.5q6 7 2.5 18.5t-13.5 15.5q-24 10 -54 12t-63 -8.5t-61 -32.5t-48.5 -65
t-25.5 -101q-9 -95 37 -160t135 -65q58 0 101.5 36.5t70.5 99.5t48 140.5t41 167t41.5 172.5t57 162.5t81.5 130.5q60 68 144 71q54 3 70 -22q10 -14 -4 -32q-13 -17 -14 -28q-11 -81 -12.5 -355t7.5 -296zM724 264q2 0 4 49t4.5 114.5t4.5 90.5q11 123 8 209q-1 31 -39 -11
l-6 -7q-46 -57 -83.5 -156.5t-80.5 -288.5h18h44h53h48h25zM357 396l3 -6q5 -13 3 -49q0 -1 -0.5 -6t-0.5 -7.5t-1 -6t-3 -5t-5 -1.5h-28q-17 -1 -50 -1q-10 1 -53 1q-66 0 -84 2q-5 0 -12 2q-18 5 -18 22q0 13 14 20q9 6 14 16.5t6.5 26t2 27.5t-0.5 31t-1 27q0 7 -1 68.5
t-1 137.5q0 24 -4.5 37.5t-10 16t-11 6t-7.5 10.5q-6 30 24 33q18 0 44.5 -0.5t45.5 -0.5q60 2 91 2q34 0 37 -1q13 -7 13 -20q1 -6 -2 -15.5t-3 -12.5q-1 -4 -1 -13.5t-2 -14.5q-5 -11 -16 -14q-15 -4 -20 6q-2 4 -5.5 14t-3.5 11q-8 17 -17 20q-1 0 -3.5 0.5t-4.5 0.5
q-18 1 -52 1q-12 0 -19.5 -5t-10 -17t-3 -18t-0.5 -23v-138h7q7 -1 12.5 -0.5t13 1t11.5 3t4 6.5q0 11 5 23q3 7 13.5 8.5t20.5 -5.5t10 -23q0 -18 -0.5 -35t-0.5 -31q-1 -35 -16 -35q-33 3 -33 29q0 4 -0.5 6t-0.5 3.5t-1.5 2.5t-3 1.5t-4.5 0.5t-6 -0.5t-8.5 -0.5h-10.5
h-6.5t-3 -0.5t-1 -0.5h-2.5v-112q0 -3 -0.5 -12t-0.5 -14.5t2 -11.5t7 -9t50 -3q4 0 14 -0.5t16 -0.5t13.5 1.5t11.5 5.5q12 11 17 40q6 10 17 6q5 -1 11 -7z" />
    <glyph glyph-name="ia" unicode="ia" horiz-adv-x="946" 
d="M843 64q5 -13 19 -21t14 -20q0 -17 -19 -21q-20 -4 -69.5 -4t-64.5 2q-1 0 -5.5 0.5t-6.5 0.5t-5.5 1t-5.5 2.5t-3.5 4t-1.5 5.5q0 10 13 22l12 11q4 9 5.5 41t1.5 74t1 54q-12 2 -91.5 2.5t-114.5 -0.5q-17 -75 -60 -213q-23 -74 -61 -127t-80.5 -77t-88 -31t-86.5 9.5
t-74 46t-52.5 77.5t-19.5 105q0 82 33 153t98 101q63 26 118 23t93 -32.5t38 -70.5q-1 -36 -18.5 -62.5t-49.5 -30.5q-21 -2 -40 7t-27 27q-9 18 -1.5 39t26.5 28q3 1 8.5 2t9 2t8 3.5t6.5 5.5q6 7 2.5 18.5t-13.5 15.5q-24 10 -54 12t-63 -8.5t-61 -32.5t-48.5 -65
t-25.5 -101q-9 -95 37 -160t135 -65q58 0 101.5 36.5t70.5 99.5t48 140.5t41 167t41.5 172.5t57 162.5t81.5 130.5q60 68 144 71q54 3 70 -22q10 -14 -4 -32q-13 -17 -14 -28q-11 -81 -12.5 -355t7.5 -296zM724 264q2 0 4 49t4.5 114.5t4.5 90.5q11 123 8 209q-1 31 -39 -11
l-6 -7q-46 -57 -83.5 -156.5t-80.5 -288.5h18h44h53h48h25zM290 361q15 -9 15 -21q0 -18 -20 -22q-10 -2 -18 -2q-26 -3 -61 -1q-1 0 -3 1h-2q-1 0 -7 0.5t-8.5 1t-6.5 1.5t-6 4t-2 7q0 10 5.5 18t13 13.5t9.5 8.5q6 10 6 60v83h1v112q0 9 -2 75q0 17 -4 32q-6 13 -18 22
l-8 4t-4.5 5t-2.5 11q0 18 19 22q8 2 21 3q21 2 54 0q5 0 6 -1q1 0 6.5 -0.5t8.5 -1t6.5 -1.5t5.5 -4t2 -7q0 -10 -12 -21.5t-13 -13.5q-5 -8 -5 -245v-63q0 -18 1 -26q0 -19 4 -32q6 -15 19 -22z" />
    <glyph glyph-name="ma" unicode="ma" horiz-adv-x="946" 
d="M422 347q1 -1 8 -8.5t5 -13.5q-3 -6 -20 -6q-11 -1 -55 -1q-37 0 -43 7q-9 11 5 20q7 4 10 12q2 10 2 13v1v53v46q1 4 0 5v217q-3 6 -5 1q-26 -118 -75 -331q-9 -41 -34 -41q-9 0 -14 2t-12.5 14t-15.5 35q-27 84 -83 304q-3 13 -6 16l-1 -2v-106v-95q0 -31 -1 -55
q0 -47 -1 -76q0 -2 0.5 -5t1.5 -4l8 -7q7 -7 7 -13q0 -3 -2 -4.5t-4 -2t-6 -1t-5 -0.5h-1h-31h-1q-1 0 -5 0.5t-6 1t-4 2t-2 4.5q0 6 8 13l7 7q2 3 4 24v1q1 87 1 185q-1 78 0 115q0 9 0.5 27.5t0.5 28.5q0 41 -5 46q-1 2 -12 2q-3 4 -3 9q0 8 8 8q11 0 32 0.5t33 0.5
q24 0 29 -15q14 -39 36.5 -121t39 -143t21.5 -65q2 4 4 14t3 14q0 2 12.5 57t17.5 81q7 33 15.5 70.5t15 63.5t6.5 27q3 14 25 16q8 1 76 1h5t6.5 -0.5t6 -1.5t5 -2.5t1.5 -4.5q0 -4 -1.5 -6.5t-4.5 -5.5t-4 -5q-4 -4 -6 -18v-1v-69v-43.5v-52v-43.5v-124v-51q0 -15 3 -21z
M843 64q5 -13 19 -21t14 -20q0 -17 -19 -21q-20 -4 -69.5 -4t-64.5 2q-1 0 -5.5 0.5t-6.5 0.5t-5.5 1t-5.5 2.5t-3.5 4t-1.5 5.5q0 10 13 22l12 11q4 9 5.5 41t1.5 74t1 54q-12 2 -91.5 2.5t-114.5 -0.5q-17 -75 -60 -213q-23 -74 -61 -127t-80.5 -77t-88 -31t-86.5 9.5
t-74 46t-52.5 77.5t-19.5 105q0 82 33 153t98 101q63 26 118 23t93 -32.5t38 -70.5q-1 -36 -18.5 -62.5t-49.5 -30.5q-21 -2 -40 7t-27 27q-9 18 -1.5 39t26.5 28q3 1 8.5 2t9 2t8 3.5t6.5 5.5q6 7 2.5 18.5t-13.5 15.5q-24 10 -54 12t-63 -8.5t-61 -32.5t-48.5 -65
t-25.5 -101q-9 -95 37 -160t135 -65q58 0 101.5 36.5t70.5 99.5t48 140.5t41 167t41.5 172.5t57 162.5t81.5 130.5q60 68 144 71q54 3 70 -22q10 -14 -4 -32q-13 -17 -14 -28q-11 -81 -12.5 -355t7.5 -296zM724 264q2 0 4 49t4.5 114.5t4.5 90.5q11 123 8 209q-1 31 -39 -11
l-6 -7q-46 -57 -83.5 -156.5t-80.5 -288.5h18h44h53h48h25z" />
    <glyph glyph-name="na" unicode="na" horiz-adv-x="946" 
d="M391 784q0 -11 -11.5 -22.5t-12.5 -13.5q-2 -3 -4 -16q0 -24 0.5 -70.5t1.5 -67.5q0 -21 0.5 -83.5t0.5 -90.5v-30q-1 -9 -1 -27q0 -3 1 -5q0 -6 6 -8q10 -4 12 -9q1 -3 1 -10t-3 -11q-4 -6 -27 -6h-38q-1 0 -0.5 0.5t-0.5 1.5q-13 5 -24 25l-1 1q-12 21 -26 58
q-92 248 -97 253v-1q-1 0 -1 -2v-7v-4q0 -102 -3 -258q2 -13 4 -16q1 -1 12.5 -13t11.5 -23q0 -4 -1.5 -6.5t-3.5 -4t-5.5 -2.5t-5.5 -1t-6.5 -0.5t-5.5 -0.5h-1h-53h-1q-1 0 -4 0.5t-5 0.5t-5 0.5t-5 1t-4 1.5t-3 2.5t-2 3.5t-1 5q0 11 12 22.5t13 13.5q4 9 6 43v1
q1 53 1 83.5v36.5t0.5 16.5t0.5 33.5q2 68 2 103q3 71 -9 83q-1 2 -19 4q-6 8 -6 16q0 13 14 13q22 0 68 2q6 1 10.5 0t10.5 -1q5 0 16.5 -24.5t25.5 -61t29.5 -80t28 -80t21.5 -62.5l9 -26q-2 136 -2 142v13l-2 84q0 30 -5 43l-1 1q-1 2 -13 13.5t-12 22.5q0 14 26 14
q1 1 3 1h1h53h1q2 0 8.5 -1t9.5 -1.5t6.5 -4t3.5 -8.5zM843 64q5 -13 19 -21t14 -20q0 -17 -19 -21q-20 -4 -69.5 -4t-64.5 2q-1 0 -5.5 0.5t-6.5 0.5t-5.5 1t-5.5 2.5t-3.5 4t-1.5 5.5q0 10 13 22l12 11q4 9 5.5 41t1.5 74t1 54q-12 2 -91.5 2.5t-114.5 -0.5
q-17 -75 -60 -213q-23 -74 -61 -127t-80.5 -77t-88 -31t-86.5 9.5t-74 46t-52.5 77.5t-19.5 105q0 82 33 153t98 101q63 26 118 23t93 -32.5t38 -70.5q-1 -36 -18.5 -62.5t-49.5 -30.5q-21 -2 -40 7t-27 27q-9 18 -1.5 39t26.5 28q3 1 8.5 2t9 2t8 3.5t6.5 5.5q6 7 2.5 18.5
t-13.5 15.5q-24 10 -54 12t-63 -8.5t-61 -32.5t-48.5 -65t-25.5 -101q-9 -95 37 -160t135 -65q58 0 101.5 36.5t70.5 99.5t48 140.5t41 167t41.5 172.5t57 162.5t81.5 130.5q60 68 144 71q54 3 70 -22q10 -14 -4 -32q-13 -17 -14 -28q-11 -81 -12.5 -355t7.5 -296zM724 264
q2 0 4 49t4.5 114.5t4.5 90.5q11 123 8 209q-1 31 -39 -11l-6 -7q-46 -57 -83.5 -156.5t-80.5 -288.5h18h44h53h48h25z" />
    <glyph glyph-name="oa" unicode="oa" horiz-adv-x="946" 
d="M114 398q-44 89 -32 187q18 143 92 194q23 16 63 21q54 5 92.5 -29t51.5 -89q5 -16 7 -38q2 -31 3.5 -71t-6.5 -84.5t-21.5 -82.5t-41 -63.5t-65.5 -28.5q-46 -3 -85 19.5t-58 64.5zM192 612q-5 -73 -3 -98l1 -7q2 -27 4 -44t8 -43.5t18.5 -43t30.5 -20.5q8 -2 12 -2
q41 0 61 85q11 48 15 77q17 112 -11 190q-17 44 -41 47q-10 2 -15 2q-36 0 -55 -33.5t-24 -107.5zM843 64q5 -13 19 -21t14 -20q0 -17 -19 -21q-20 -4 -69.5 -4t-64.5 2q-1 0 -5.5 0.5t-6.5 0.5t-5.5 1t-5.5 2.5t-3.5 4t-1.5 5.5q0 10 13 22l12 11q4 9 5.5 41t1.5 74t1 54
q-12 2 -91.5 2.5t-114.5 -0.5q-17 -75 -60 -213q-23 -74 -61 -127t-80.5 -77t-88 -31t-86.5 9.5t-74 46t-52.5 77.5t-19.5 105q0 82 33 153t98 101q63 26 118 23t93 -32.5t38 -70.5q-1 -36 -18.5 -62.5t-49.5 -30.5q-21 -2 -40 7t-27 27q-9 18 -1.5 39t26.5 28q3 1 8.5 2
t9 2t8 3.5t6.5 5.5q6 7 2.5 18.5t-13.5 15.5q-24 10 -54 12t-63 -8.5t-61 -32.5t-48.5 -65t-25.5 -101q-9 -95 37 -160t135 -65q58 0 101.5 36.5t70.5 99.5t48 140.5t41 167t41.5 172.5t57 162.5t81.5 130.5q60 68 144 71q54 3 70 -22q10 -14 -4 -32q-13 -17 -14 -28
q-11 -81 -12.5 -355t7.5 -296zM724 264q2 0 4 49t4.5 114.5t4.5 90.5q11 123 8 209q-1 31 -39 -11l-6 -7q-46 -57 -83.5 -156.5t-80.5 -288.5h18h44h53h48h25z" />
    <glyph glyph-name="sa" unicode="sa" horiz-adv-x="946" 
d="M263 693q-3 -15 14.5 -25.5t34.5 -11.5q25 -3 31.5 25t-0.5 47q-10 62 -55 73q-29 6 -57.5 -7.5t-40.5 -40.5q-32 -71 35 -150q3 -4 15 -18t16 -19.5t14 -18.5t14 -20.5t11 -20t10.5 -22t6 -22t3.5 -24.5q3 -44 -46 -68q-24 -12 -50.5 -8.5t-46.5 19.5q-32 26 -39.5 67.5
t12.5 76.5q12 21 24 21q10 0 16 -8.5t2 -16.5q-1 -3 -11.5 -11.5t-6.5 -20.5q9 -24 35 -16t33 29q10 32 -13 53t-54 19.5t-53 -21.5q-22 -26 -24.5 -70t10.5 -74q21 -59 79.5 -85.5t114.5 3.5q88 50 82 149q-6 82 -72 140q-2 2 -15 13t-17 15t-12.5 13.5t-13 18.5t-7.5 19
q-12 38 12 63q14 16 29 11q9 -4 13 -14t1 -19q-5 -15 -25 -30q-9 -6 -9 -13zM843 64q5 -13 19 -21t14 -20q0 -17 -19 -21q-20 -4 -69.5 -4t-64.5 2q-1 0 -5.5 0.5t-6.5 0.5t-5.5 1t-5.5 2.5t-3.5 4t-1.5 5.5q0 10 13 22l12 11q4 9 5.5 41t1.5 74t1 54q-12 2 -91.5 2.5
t-114.5 -0.5q-17 -75 -60 -213q-23 -74 -61 -127t-80.5 -77t-88 -31t-86.5 9.5t-74 46t-52.5 77.5t-19.5 105q0 82 33 153t98 101q63 26 118 23t93 -32.5t38 -70.5q-1 -36 -18.5 -62.5t-49.5 -30.5q-21 -2 -40 7t-27 27q-9 18 -1.5 39t26.5 28q3 1 8.5 2t9 2t8 3.5t6.5 5.5
q6 7 2.5 18.5t-13.5 15.5q-24 10 -54 12t-63 -8.5t-61 -32.5t-48.5 -65t-25.5 -101q-9 -95 37 -160t135 -65q58 0 101.5 36.5t70.5 99.5t48 140.5t41 167t41.5 172.5t57 162.5t81.5 130.5q60 68 144 71q54 3 70 -22q10 -14 -4 -32q-13 -17 -14 -28q-11 -81 -12.5 -355
t7.5 -296zM724 264q2 0 4 49t4.5 114.5t4.5 90.5q11 123 8 209q-1 31 -39 -11l-6 -7q-46 -57 -83.5 -156.5t-80.5 -288.5h18h44h53h48h25z" />
    <glyph glyph-name="ta" unicode="ta" horiz-adv-x="946" 
d="M36 702q-6 6 -3 25q5 23 7 30q2 3 5 15.5t4 15.5q2 7 7 10q3 1 10 0.5t10 -0.5h24h67h-1h-1h71h71h-1h-1h67h23q3 0 11 0.5t10 -0.5q5 -3 7 -10q1 -3 4 -15.5t5 -15.5q2 -8 7 -30q3 -19 -3 -25l-2 -2q-5 -3 -11 -1q-7 3 -10 11q-1 0 -1 2t-1 2q-12 24 -17 29
q-12 14 -34 16q-58 2 -83 1h-2q-2 -14 -3 -22v-8q0 -32 -0.5 -95t-0.5 -95q-1 -18 -1 -54.5t-1 -54.5h1v-48q0 -8 2 -28q3 -7 11 -12q9 -7 9 -12q0 -4 -3 -7q-1 -7 -17 -7q-8 -2 -34 -2h-2h-2q-25 0 -35 2q-15 0 -17 7q-2 4 -2 7q0 7 9 12q8 5 11 12q2 20 2 28v48
q0 18 -0.5 54.5t-0.5 54.5q0 32 -0.5 95t-0.5 95q0 5 -1 8q0 8 -2 22h-2q-26 1 -83 -1q-22 -2 -35 -16q-3 -4 -16 -29q-2 -2 -2 -4q-3 -8 -10 -11q-6 -2 -11 1q-2 0 -2 2zM843 64q5 -13 19 -21t14 -20q0 -17 -19 -21q-20 -4 -69.5 -4t-64.5 2q-1 0 -5.5 0.5t-6.5 0.5t-5.5 1
t-5.5 2.5t-3.5 4t-1.5 5.5q0 10 13 22l12 11q4 9 5.5 41t1.5 74t1 54q-12 2 -91.5 2.5t-114.5 -0.5q-17 -75 -60 -213q-23 -74 -61 -127t-80.5 -77t-88 -31t-86.5 9.5t-74 46t-52.5 77.5t-19.5 105q0 82 33 153t98 101q63 26 118 23t93 -32.5t38 -70.5q-1 -36 -18.5 -62.5
t-49.5 -30.5q-21 -2 -40 7t-27 27q-9 18 -1.5 39t26.5 28q3 1 8.5 2t9 2t8 3.5t6.5 5.5q6 7 2.5 18.5t-13.5 15.5q-24 10 -54 12t-63 -8.5t-61 -32.5t-48.5 -65t-25.5 -101q-9 -95 37 -160t135 -65q58 0 101.5 36.5t70.5 99.5t48 140.5t41 167t41.5 172.5t57 162.5
t81.5 130.5q60 68 144 71q54 3 70 -22q10 -14 -4 -32q-13 -17 -14 -28q-11 -81 -12.5 -355t7.5 -296zM724 264q2 0 4 49t4.5 114.5t4.5 90.5q11 123 8 209q-1 31 -39 -11l-6 -7q-46 -57 -83.5 -156.5t-80.5 -288.5h18h44h53h48h25z" />
    <glyph glyph-name="ua" unicode="ua" horiz-adv-x="946" 
d="M305 787q-2 13 -11 10q-4 -6 -3.5 -8.5t7.5 -7.5q5 0 7 6zM376 802q1 0 5 -0.5t6 -1t4 -2t2 -4.5q0 -5 -3 -9t-7 -7t-5 -5q-2 -4 -2 -9q0 -56 1 -78v-57v-90q0 -55 -4 -96q-7 -56 -53 -104q-24 -25 -81 -27q-36 -1 -73 19t-53 53q-17 33 -15 114q2 42 2 126v94v17v1v4
q-2 18 -3 19q-3 9 -10 13q-8 6 -8 12q0 11 10 13q2 1 5.5 1.5t5.5 0.5q45 4 75 0h1q1 0 5 -0.5t5.5 -1t3.5 -2.5t2 -5q0 -6 -7 -12.5t-7 -7.5q-1 -4 -3 -16v-1v-31v-1v-36q0 -30 -0.5 -64t-1.5 -75t-1 -64q0 -105 48 -140q36 -20 61.5 -2.5t36.5 53.5q15 48 15 135v106v59
q0 9 -0.5 27t-0.5 28q0 17 -4 25q0 1 -7.5 8t-7.5 13q0 2 1 3.5t3.5 2.5t4 1t5 0.5t4.5 0.5h1h43h1zM844 64q4 -13 18 -21t14 -20q0 -17 -19 -21q-20 -4 -69.5 -4t-64.5 2q-1 0 -5.5 0.5t-6.5 0.5t-5.5 1t-5.5 2.5t-3.5 4t-1.5 5.5q0 10 13 22l12 11q4 9 5.5 41t1.5 74t1 54
q-12 2 -91.5 2.5t-114.5 -0.5q-17 -75 -60 -213q-23 -74 -61 -127t-80.5 -77t-88 -31t-86.5 9.5t-74 46t-52.5 77.5t-19.5 105q0 82 33 153t98 101q63 26 118.5 23t93 -32.5t37.5 -70.5q-1 -36 -18.5 -62.5t-49.5 -30.5q-21 -2 -40 7t-27 27q-9 18 -1.5 39t26.5 28q3 1 11 3
t13 4t8 6q6 8 2.5 19t-13.5 15q-24 10 -54 12t-63 -8.5t-61 -32.5t-48.5 -65t-25.5 -101q-9 -95 37 -160t135 -65q58 0 101.5 36.5t70.5 99.5t48 140.5t41 167t41.5 172.5t57 162.5t81.5 130.5q61 68 145 72q55 2 70 -24q9 -14 -4 -31q-13 -16 -15 -28q-12 -82 -12.5 -355.5
t8.5 -295.5zM724 264q2 0 4 49t4.5 114.5t4.5 90.5q11 123 8 209q-1 31 -39 -11l-6 -7q-46 -57 -83.5 -156.5t-80.5 -288.5h18h44h53h48h25z" />
    <glyph glyph-name="ca" unicode="ca" horiz-adv-x="893" 
d="M786 327q2 -11 -13 -13q-34 -5 -70 -1q-1 0 -5 0.5t-5.5 1t-4 2t-2.5 4.5q-1 6 7 14t6 19q-9 78 -11 85l-106 -3q-1 0 -10.5 -34t-9.5 -36q-5 -18 -4 -22q2 -4 8 -7t7 -6q7 -15 -26 -18q-20 -1 -32 1q-12 4 -12 11q0 3 1 5.5t2.5 4t4 3.5t3.5 4q9 13 24 64.5t38 139
t39 140.5q20 64 19 83q-1 10 0 16t7 9t22 3q21 1 28.5 -20t22.5 -121q24 -159 48 -296q0 -4 3 -11t12 -11.5t9 -10.5zM611 480q13 0 32.5 0.5t25.5 0.5l-1 13q0 1 -6 60.5t-10 89.5q-1 -7 -5 -21.5t-5 -21.5q-26 -105 -31 -121zM615 290q64 -1 116.5 -46t75.5 -106
t11 -129.5t-66 -113.5q-27 -23 -59.5 -32.5t-62.5 -6t-58.5 15t-48.5 32.5t-32 44.5t-9.5 52t19.5 54.5q37 55 96 45q41 -8 56 -39q9 -20 -2 -39q-7 -14 -22.5 -20.5t-29.5 -0.5q-4 2 -19.5 13t-25.5 10q-11 -1 -19 -20q-18 -35 16 -69.5t85 -37.5t99 37q81 84 28 199
q-32 69 -86 97q-32 16 -76 16q-24 -1 -47 -9q-37 -13 -67 -37.5t-48.5 -50t-51 -63t-68.5 -67.5q-4 -3 -28 -10q-47 -13 -91 -1h-3q-37 11 -60 27q-44 29 -77 83l-1 2q-77 131 -51 352q5 43 8 63t11 59.5t17.5 64t27 53.5t39.5 49q43 39 103.5 41t108.5 -29q46 -27 70 -69
t27 -77.5t10 -67.5t22 -41q14 -7 14 -19q0 -5 -1.5 -8.5t-5.5 -6t-8 -4.5t-11.5 -3t-13.5 -1.5t-16 -1t-17.5 -0.5h-20h-21.5q-2 0 -10 -0.5t-14.5 -0.5t-14 1t-13 3.5t-7.5 7.5q-3 7 1 13.5t12 12.5t10 10q30 53 12 133q-11 48 -35 69t-48.5 16.5t-45.5 -21.5t-29 -38
q-31 -87 -40 -215t1 -206q7 -89 25 -141q1 -3 3.5 -9t4.5 -9q15 -33 37 -47q4 -3 12 -7h1h1l2 -1q1 -1 3.5 -1t3.5 -1q22 -4 41 -0.5t38 19.5t28 24.5t29.5 35.5t24.5 31q94 115 191 134q21 4 40 3z" />
    <glyph glyph-name="cb" unicode="cb" horiz-adv-x="893" 
d="M717 510q18 -9 30 -21q20 -20 25 -54t-3 -59q-10 -39 -36 -51t-72 -13q-32 -1 -71 -1.5t-43 0.5h-1q-21 0 -27.5 2t-5.5 7q0 5 3 8q2 3 6 6.5t5 5.5q4 7 10 211t-2 221q0 1 -7 7t-7 12q0 7 18 7.5t84 -0.5q95 0 131 -37q27 -24 21 -99t-48 -132q-13 -17 -12.5 -18t2.5 -2
zM704 423q1 21 -3 35t-14.5 20.5t-20.5 9t-28 4.5q-6 1 -21.5 0.5t-15.5 -2.5l-1 -147q0 -2 2 -2q7 -4 34 0q9 0 12 0.5t13.5 3t15.5 7.5t12.5 13.5t11 23t3.5 34.5zM654 540q25 38 39 82.5t14 74.5q-1 64 -80 71q-19 3 -20 -8q-1 -212 -3 -241q37 0 50 21zM615 290
q64 -1 116.5 -46t75.5 -106t11 -129.5t-66 -113.5q-27 -23 -59.5 -32.5t-62.5 -6t-58.5 15t-48.5 32.5t-32 44.5t-9.5 52t19.5 54.5q37 55 96 45q41 -8 56 -39q9 -20 -2 -39q-7 -14 -22.5 -20.5t-29.5 -0.5q-4 2 -19.5 13t-25.5 10q-11 -1 -19 -20q-18 -35 16 -69.5
t85 -37.5t99 37q81 84 28 199q-32 69 -86 97q-32 16 -76 16q-24 -1 -47 -9q-37 -13 -67 -37.5t-48.5 -50t-51 -63t-68.5 -67.5q-4 -3 -28 -10q-47 -13 -91 -1h-3q-37 11 -60 27q-44 29 -77 83l-1 2q-77 131 -51 352q5 43 8 63t11 59.5t17.5 64t27 53.5t39.5 49
q43 39 103.5 41t108.5 -29q46 -27 70 -69t27 -77.5t10 -67.5t22 -41q14 -7 14 -19q0 -5 -1.5 -8.5t-5.5 -6t-8 -4.5t-11.5 -3t-13.5 -1.5t-16 -1t-17.5 -0.5h-20h-21.5q-2 0 -10 -0.5t-14.5 -0.5t-14 1t-13 3.5t-7.5 7.5q-3 7 1 13.5t12 12.5t10 10q30 53 12 133
q-11 48 -35 69t-48.5 16.5t-45.5 -21.5t-29 -38q-31 -87 -40 -215t1 -206q7 -89 25 -141q1 -3 3.5 -9t4.5 -9q15 -33 37 -47q4 -3 12 -7h1h1l2 -1q1 -1 3.5 -1t3.5 -1q22 -4 41 -0.5t38 19.5t28 24.5t29.5 35.5t24.5 31q94 115 191 134q21 4 40 3z" />
    <glyph glyph-name="cd" unicode="cd" horiz-adv-x="893" 
d="M807 671q13 -32 13 -99q0 -149 -62.5 -207.5t-193.5 -53.5q-14 -1 -39 -0.5t-31 2.5q-11 3 -2 14q1 3 5.5 7t6.5 6q6 13 8 32t1.5 35t0.5 33q3 111 3 112q0 34 0.5 67.5t1.5 52.5t1 37.5v27.5t-1.5 17.5t-4.5 12t-8 6.5q-7 5 -8 8q-2 13 11 16q7 3 56 2.5t80 -5.5
q55 -9 98 -41t64 -82zM643 357q110 46 98 233q-3 50 -13 83.5t-40 56.5q-31 25 -65 29q-23 6 -30 3q-8 -3 -8 -12q-1 -15 -3.5 -70.5t-5 -133.5t-1.5 -138.5t7 -62.5q8 -3 28.5 2t32.5 10zM615 290q64 -1 116.5 -46t75.5 -106t11 -129.5t-66 -113.5q-27 -23 -59.5 -32.5
t-62.5 -6t-58.5 15t-48.5 32.5t-32 44.5t-9.5 52t19.5 54.5q37 55 96 45q41 -8 56 -39q9 -20 -2 -39q-7 -14 -22.5 -20.5t-29.5 -0.5q-4 2 -19.5 13t-25.5 10q-11 -1 -19 -20q-18 -35 16 -69.5t85 -37.5t99 37q81 84 28 199q-32 69 -86 97q-32 16 -76 16q-24 -1 -47 -9
q-37 -13 -67 -37.5t-48.5 -50t-51 -63t-68.5 -67.5q-4 -3 -28 -10q-47 -13 -91 -1h-3q-37 11 -60 27q-44 29 -77 83l-1 2q-77 131 -51 352q5 43 8 63t11 59.5t17.5 64t27 53.5t39.5 49q43 39 103.5 41t108.5 -29q46 -27 70 -69t27 -77.5t10 -67.5t22 -41q14 -7 14 -19
q0 -5 -1.5 -8.5t-5.5 -6t-8 -4.5t-11.5 -3t-13.5 -1.5t-16 -1t-17.5 -0.5h-20h-21.5q-2 0 -10 -0.5t-14.5 -0.5t-14 1t-13 3.5t-7.5 7.5q-3 7 1 13.5t12 12.5t10 10q30 53 12 133q-11 48 -35 69t-48.5 16.5t-45.5 -21.5t-29 -38q-31 -87 -40 -215t1 -206q7 -89 25 -141
q1 -3 3.5 -9t4.5 -9q15 -33 37 -47q4 -3 12 -7h1h1l2 -1q1 -1 3.5 -1t3.5 -1q22 -4 41 -0.5t38 19.5t28 24.5t29.5 35.5t24.5 31q94 115 191 134q21 4 40 3z" />
    <glyph glyph-name="ce" unicode="ce" horiz-adv-x="893" 
d="M765 393q2 -2 4 -6q3 -6 3 -48q0 -1 -0.5 -6t-1 -7.5t-1.5 -6t-3 -5t-5 -1.5q-4 0 -13.5 -0.5t-14.5 -0.5h-49h-53q-78 2 -85 3q-4 0 -12 2q-18 4 -18 22q0 11 14 20q9 6 14 16.5t6.5 25.5t2 27.5t-0.5 31.5t-1 27q0 7 -1 68.5t-1 136.5q0 24 -4.5 37.5t-10 16.5t-11 6.5
t-6.5 10.5q-2 12 4 21.5t20 10.5q4 0 44.5 -0.5t45.5 0.5q30 1 90 1q4 0 12 1t14 0.5t11 -2.5q14 -5 14 -20l-6 -27q-3 -27 -3 -28q-4 -12 -15 -14q-14 -5 -21 5q-1 2 -9 26q-6 15 -16 19q-2 0 -5 1t-4 1q-25 1 -52 0q-12 0 -19.5 -5t-10 -17t-3 -18t-0.5 -23q0 -73 1 -138
q47 0 47 10q0 13 5 23q5 12 25 8t20 -27q0 -18 -0.5 -35t-0.5 -31q0 -37 -17 -36q-32 3 -32 30q0 4 -0.5 6t-0.5 3.5t-1.5 2.5t-3 1.5t-4.5 0.5t-6 -0.5t-9 -0.5h-11q-7 0 -8.5 -0.5t-3.5 -0.5q-1 -96 -1 -112q0 -3 -0.5 -12t-0.5 -14.5t2 -12t7 -8.5q7 -4 50 -4
q3 0 13.5 -0.5t16.5 -0.5t13.5 2t12.5 6q12 10 17 40q5 10 17 6q7 -2 10 -8zM615 290q64 -1 116.5 -46t75.5 -106t11 -129.5t-66 -113.5q-27 -23 -59.5 -32.5t-62.5 -6t-58.5 15t-48.5 32.5t-32 44.5t-9.5 52t19.5 54.5q37 55 96 45q41 -8 56 -39q9 -20 -2 -39
q-7 -14 -22.5 -20.5t-29.5 -0.5q-4 2 -19.5 13t-25.5 10q-11 -1 -19 -20q-18 -35 16 -69.5t85 -37.5t99 37q81 84 28 199q-32 69 -86 97q-32 16 -76 16q-24 -1 -47 -9q-37 -13 -67 -37.5t-48.5 -50t-51 -63t-68.5 -67.5q-4 -3 -28 -10q-47 -13 -91 -1h-3q-37 11 -60 27
q-44 29 -77 83l-1 2q-77 131 -51 352q5 43 8 63t11 59.5t17.5 64t27 53.5t39.5 49q43 39 103.5 41t108.5 -29q46 -27 70 -69t27 -77.5t10 -67.5t22 -41q14 -7 14 -19q0 -5 -1.5 -8.5t-5.5 -6t-8 -4.5t-11.5 -3t-13.5 -1.5t-16 -1t-17.5 -0.5h-20h-21.5q-2 0 -10 -0.5
t-14.5 -0.5t-14 1t-13 3.5t-7.5 7.5q-3 7 1 13.5t12 12.5t10 10q30 53 12 133q-11 48 -35 69t-48.5 16.5t-45.5 -21.5t-29 -38q-31 -87 -40 -215t1 -206q7 -89 25 -141q1 -3 3.5 -9t4.5 -9q15 -33 37 -47q4 -3 12 -7h1h1l2 -1q1 -1 3.5 -1t3.5 -1q22 -4 41 -0.5t38 19.5
t28 24.5t29.5 35.5t24.5 31q94 115 191 134q21 4 40 3z" />
    <glyph glyph-name="ci" unicode="ci" horiz-adv-x="893" 
d="M698 358q13 -7 15 -13q1 -3 1 -7q0 -18 -20 -22q-8 -2 -19 -3q-33 -3 -61 0h-4q-2 0 -9 1l-10.5 1.5t-7 4t-3.5 8.5q0 10 5.5 18t13 13.5t9.5 8.5q5 10 5 60q0 24 0.5 51t0.5 32v55q1 56 0 56q0 42 -1 75q-2 25 -5 32q-4 14 -18 22q-1 1 -4 2.5t-4.5 3t-3 3.5t-2.5 5
t-1 7q0 18 20 22q10 2 20 2q28 2 55 1q2 -1 5 -1q1 0 5.5 -0.5t7 -0.5t6 -1t5.5 -2.5t3.5 -4t1.5 -5.5q0 -11 -12.5 -22.5t-12.5 -12.5q-5 -11 -5 -246q0 -33 1 -63v-26q3 -26 5 -32q5 -14 18 -22zM615 290q64 -1 116.5 -46t75.5 -106t11 -129.5t-66 -113.5
q-27 -23 -59.5 -32.5t-62.5 -6t-58.5 15t-48.5 32.5t-32 44.5t-9.5 52t19.5 54.5q37 55 96 45q41 -8 56 -39q9 -20 -2 -39q-7 -14 -22.5 -20.5t-29.5 -0.5q-4 2 -19.5 13t-25.5 10q-11 -1 -19 -20q-18 -35 16 -69.5t85 -37.5t99 37q81 84 28 199q-32 69 -86 97
q-32 16 -76 16q-24 -1 -47 -9q-37 -13 -67 -37.5t-48.5 -50t-51 -63t-68.5 -67.5q-4 -3 -28 -10q-47 -13 -91 -1h-3q-37 11 -60 27q-44 29 -77 83l-1 2q-77 131 -51 352q5 43 8 63t11 59.5t17.5 64t27 53.5t39.5 49q43 39 103.5 41t108.5 -29q46 -27 70 -69t27 -77.5
t10 -67.5t22 -41q14 -7 14 -19q0 -5 -1.5 -8.5t-5.5 -6t-8 -4.5t-11.5 -3t-13.5 -1.5t-16 -1t-17.5 -0.5h-20h-21.5q-2 0 -10 -0.5t-14.5 -0.5t-14 1t-13 3.5t-7.5 7.5q-3 7 1 13.5t12 12.5t10 10q30 53 12 133q-11 48 -35 69t-48.5 16.5t-45.5 -21.5t-29 -38
q-31 -87 -40 -215t1 -206q7 -89 25 -141q1 -3 3.5 -9t4.5 -9q15 -33 37 -47q4 -3 12 -7h1h1l2 -1q1 -1 3.5 -1t3.5 -1q22 -4 41 -0.5t38 19.5t28 24.5t29.5 35.5t24.5 31q94 115 191 134q21 4 40 3z" />
    <glyph glyph-name="cm" unicode="cm" horiz-adv-x="948" 
d="M863 345q1 -2 6 -6t7 -8t0 -8q-3 -6 -19 -6q-11 -1 -56 -1q-36 0 -42 7q-9 10 5 20q7 6 10 12q0 2 1 6.5t1 6.5v54v46v5v216q-3 9 -5 1q-27 -117 -75 -330q-11 -42 -34 -42q-13 0 -22 9t-20 43q-25 79 -84 304q-3 14 -6 15q-1 -1 -1 -2q1 -52 0 -106v-94v-55
q0 -10 -0.5 -35.5t-0.5 -40.5q0 -7 2 -9l8 -7q7 -7 7 -13q0 -8 -17 -8h-1h-31h-1q-17 0 -17 8q0 6 8 13l7 7q3 6 3 24q2 161 1 185v20q0 21 0.5 50.5t0.5 44.5q0 38 1 57q0 41 -6 46q-2 2 -11 2q-3 3 -3 9q0 7 8 7q11 0 32 1t33 1q23 0 29 -16q14 -39 36 -120.5t38.5 -142.5
t21.5 -66q2 3 7 29t31 137q7 33 16 71t14.5 63t6.5 28q1 6 5 9.5t7.5 4.5t11.5 2q42 2 77 0q24 0 24 -8q0 -6 -11 -17q-5 -5 -5 -19v-1q-1 -26 -1 -68q0 -93 1 -139v-125q0 -7 -0.5 -24t-0.5 -26q2 -18 3 -21zM615 290q64 -1 116.5 -46t75.5 -106t11 -129.5t-66 -113.5
q-27 -23 -59.5 -32.5t-62.5 -6t-58.5 15t-48.5 32.5t-32 44.5t-9.5 52t19.5 54.5q37 55 96 45q41 -8 56 -39q9 -20 -2 -39q-7 -14 -22.5 -20.5t-29.5 -0.5q-4 2 -19.5 13t-25.5 10q-11 -1 -19 -20q-18 -35 16 -69.5t85 -37.5t99 37q81 84 28 199q-32 69 -86 97
q-32 16 -76 16q-24 -1 -47 -9q-37 -13 -67 -37.5t-48.5 -50t-51 -63t-68.5 -67.5q-4 -3 -28 -10q-47 -13 -91 -1h-3q-37 11 -60 27q-44 29 -77 83l-1 2q-77 131 -51 352q5 43 8 63t11 59.5t17.5 64t27 53.5t39.5 49q43 39 103.5 41t108.5 -29q46 -27 70 -69t27 -77.5
t10 -67.5t22 -41q14 -7 14 -19q0 -5 -1.5 -8.5t-5.5 -6t-8 -4.5t-11.5 -3t-13.5 -1.5t-16 -1t-17.5 -0.5h-20h-21.5q-2 0 -10 -0.5t-14.5 -0.5t-14 1t-13 3.5t-7.5 7.5q-3 7 1 13.5t12 12.5t10 10q30 53 12 133q-11 48 -35 69t-48.5 16.5t-45.5 -21.5t-29 -38
q-31 -87 -40 -215t1 -206q7 -89 25 -141q1 -3 3.5 -9t4.5 -9q15 -33 37 -47q4 -3 12 -7h1h1l2 -1q1 -1 3.5 -1t3.5 -1q22 -4 41 -0.5t38 19.5t28 24.5t29.5 35.5t24.5 31q94 115 191 134q21 4 40 3z" />
    <glyph glyph-name="cn" unicode="cn" horiz-adv-x="893" 
d="M800 782q0 -11 -12.5 -23t-12.5 -13q-3 -9 -3 -16q0 -28 0.5 -74t0.5 -64q2 -88 2 -174q0 -20 -1 -31v-26v-5q2 -6 7 -8q9 -4 11 -9q1 -3 1 -11t-2 -11q-4 -5 -27 -5h-38q-2 0 -1 0.5t0 1.5q-11 3 -25 25q-14 26 -27 59q-18 50 -45 122q-32 87 -40 107t-12 23v-1l-1 -1
l1 -17v6q0 -7 -1.5 -118t-1.5 -141q0 -4 3 -16q1 -2 8 -8t12 -13t5 -15q0 -4 -1.5 -7t-5.5 -4t-6.5 -1.5t-8 -1t-6.5 -0.5q-1 -1 -2 -1h-52q-1 0 -2 1q-1 0 -6.5 0.5t-8 1t-6.5 1.5t-5.5 4t-1.5 7q0 8 5 15t12 13t8 8q4 9 6 44v1q0 63 2 170q1 17 1.5 51.5t0.5 51.5
q0 72 -9 83q-3 3 -19 3q-6 8 -6 17q0 13 13 13q23 0 69 2q6 1 10.5 0t10.5 -1q5 0 16.5 -24.5t25.5 -61t29.5 -80t28 -80t21.5 -62.5l9 -26q-2 136 -2 141v14l-2 83v1q0 26 -6 42v2q0 1 -12.5 13t-12.5 23q0 12 25 14h3l1 1h1h52q1 0 2 -1q1 0 6.5 -0.5t8 -1t6.5 -1.5
t5.5 -4t1.5 -7zM615 290q64 -1 116.5 -46t75.5 -106t11 -129.5t-66 -113.5q-27 -23 -59.5 -32.5t-62.5 -6t-58.5 15t-48.5 32.5t-32 44.5t-9.5 52t19.5 54.5q37 55 96 45q41 -8 56 -39q9 -20 -2 -39q-7 -14 -22.5 -20.5t-29.5 -0.5q-4 2 -19.5 13t-25.5 10q-11 -1 -19 -20
q-18 -35 16 -69.5t85 -37.5t99 37q81 84 28 199q-32 69 -86 97q-32 16 -76 16q-24 -1 -47 -9q-37 -13 -67 -37.5t-48.5 -50t-51 -63t-68.5 -67.5q-4 -3 -28 -10q-47 -13 -91 -1h-3q-37 11 -60 27q-44 29 -77 83l-1 2q-77 131 -51 352q5 43 8 63t11 59.5t17.5 64t27 53.5
t39.5 49q43 39 103.5 41t108.5 -29q46 -27 70 -69t27 -77.5t10 -67.5t22 -41q14 -7 14 -19q0 -5 -1.5 -8.5t-5.5 -6t-8 -4.5t-11.5 -3t-13.5 -1.5t-16 -1t-17.5 -0.5h-20h-21.5q-2 0 -10 -0.5t-14.5 -0.5t-14 1t-13 3.5t-7.5 7.5q-3 7 1 13.5t12 12.5t10 10q30 53 12 133
q-11 48 -35 69t-48.5 16.5t-45.5 -21.5t-29 -38q-31 -87 -40 -215t1 -206q7 -89 25 -141q1 -3 3.5 -9t4.5 -9q15 -33 37 -47q4 -3 12 -7h1h1l2 -1q1 -1 3.5 -1t3.5 -1q22 -4 41 -0.5t38 19.5t28 24.5t29.5 35.5t24.5 31q94 115 191 134q21 4 40 3z" />
    <glyph glyph-name="co" unicode="co" horiz-adv-x="893" 
d="M522 396q-43 90 -31 187q18 141 92 193q24 18 63 21q54 6 92.5 -28t51.5 -89q3 -15 7 -38q2 -31 3.5 -71t-7 -85t-21.5 -82.5t-41 -63t-66 -28.5q-45 -3 -84 19.5t-59 64.5zM601 610q-4 -74 -3 -98l1 -7q2 -27 4 -44.5t8 -44t18.5 -43t30.5 -20.5q4 -1 11 -1q42 0 61 85
q9 39 16 77q17 112 -12 190q-15 42 -40 47q-5 1 -16 1q-35 0 -54 -33.5t-25 -106.5v-2zM615 290q64 -1 116.5 -46t75.5 -106t11 -129.5t-66 -113.5q-27 -23 -59.5 -32.5t-62.5 -6t-58.5 15t-48.5 32.5t-32 44.5t-9.5 52t19.5 54.5q37 55 96 45q41 -8 56 -39q9 -20 -2 -39
q-7 -14 -22.5 -20.5t-29.5 -0.5q-4 2 -19.5 13t-25.5 10q-11 -1 -19 -20q-18 -35 16 -69.5t85 -37.5t99 37q81 84 28 199q-32 69 -86 97q-32 16 -76 16q-24 -1 -47 -9q-37 -13 -67 -37.5t-48.5 -50t-51 -63t-68.5 -67.5q-4 -3 -28 -10q-47 -13 -91 -1h-3q-37 11 -60 27
q-44 29 -77 83l-1 2q-77 131 -51 352q5 43 8 63t11 59.5t17.5 64t27 53.5t39.5 49q43 39 103.5 41t108.5 -29q46 -27 70 -69t27 -77.5t10 -67.5t22 -41q14 -7 14 -19q0 -5 -1.5 -8.5t-5.5 -6t-8 -4.5t-11.5 -3t-13.5 -1.5t-16 -1t-17.5 -0.5h-20h-21.5q-2 0 -10 -0.5
t-14.5 -0.5t-14 1t-13 3.5t-7.5 7.5q-3 7 1 13.5t12 12.5t10 10q30 53 12 133q-11 48 -35 69t-48.5 16.5t-45.5 -21.5t-29 -38q-31 -87 -40 -215t1 -206q7 -89 25 -141q1 -3 3.5 -9t4.5 -9q15 -33 37 -47q4 -3 12 -7h1h1l2 -1q1 -1 3.5 -1t3.5 -1q22 -4 41 -0.5t38 19.5
t28 24.5t29.5 35.5t24.5 31q94 115 191 134q21 4 40 3z" />
    <glyph glyph-name="cs" unicode="cs" horiz-adv-x="893" 
d="M671 691q-3 -15 14.5 -25.5t34.5 -11.5q17 -2 26 11.5t8 30t-2 30.5q-10 62 -55 72q-28 7 -57 -7t-42 -40q-32 -70 35 -151q57 -67 73 -98q16 -34 18 -67q1 -42 -46 -67q-24 -12 -50.5 -8.5t-47.5 19.5q-31 25 -38.5 67.5t12.5 76.5q11 20 23 21q10 0 16.5 -8.5
t2.5 -16.5q-1 -1 -11.5 -11t-6.5 -22q9 -23 35 -15t33 29q10 32 -13.5 53t-54 19.5t-52.5 -21.5q-22 -26 -24.5 -70t10.5 -75q21 -58 79.5 -84.5t114.5 3.5q88 51 81 149q-5 82 -71 139q-2 2 -15 13t-17 15.5t-13 14t-13.5 18.5t-7.5 19q-11 38 12 62q15 17 30 11
q9 -3 13 -13t1 -20q-6 -17 -25 -29q-9 -7 -10 -13zM615 290q64 -1 116.5 -46t75.5 -106t11 -129.5t-66 -113.5q-27 -23 -59.5 -32.5t-62.5 -6t-58.5 15t-48.5 32.5t-32 44.5t-9.5 52t19.5 54.5q37 55 96 45q41 -8 56 -39q9 -20 -2 -39q-7 -14 -22.5 -20.5t-29.5 -0.5
q-4 2 -19.5 13t-25.5 10q-11 -1 -19 -20q-18 -35 16 -69.5t85 -37.5t99 37q81 84 28 199q-32 69 -86 97q-32 16 -76 16q-24 -1 -47 -9q-37 -13 -67 -37.5t-48.5 -50t-51 -63t-68.5 -67.5q-4 -3 -28 -10q-47 -13 -91 -1h-3q-37 11 -60 27q-44 29 -77 83l-1 2q-77 131 -51 352
q5 43 8 63t11 59.5t17.5 64t27 53.5t39.5 49q43 39 103.5 41t108.5 -29q46 -27 70 -69t27 -77.5t10 -67.5t22 -41q14 -7 14 -19q0 -5 -1.5 -8.5t-5.5 -6t-8 -4.5t-11.5 -3t-13.5 -1.5t-16 -1t-17.5 -0.5h-20h-21.5q-2 0 -10 -0.5t-14.5 -0.5t-14 1t-13 3.5t-7.5 7.5
q-3 7 1 13.5t12 12.5t10 10q30 53 12 133q-11 48 -35 69t-48.5 16.5t-45.5 -21.5t-29 -38q-31 -87 -40 -215t1 -206q7 -89 25 -141q1 -3 3.5 -9t4.5 -9q15 -33 37 -47q4 -3 12 -7h1h1l2 -1q1 -1 3.5 -1t3.5 -1q22 -4 41 -0.5t38 19.5t28 24.5t29.5 35.5t24.5 31
q94 115 191 134q21 4 40 3z" />
    <glyph glyph-name="ct" unicode="ct" horiz-adv-x="919" 
d="M444 699q-7 8 -2 26q2 17 7 29q1 3 3.5 15.5t4.5 15.5q5 9 8 10h20q4 0 12 0.5t12 0.5q51 0 66 -1h-1h70h71h-1q15 1 66 1q4 0 12 -0.5t12 -0.5h20q3 -1 8 -10q2 -3 4.5 -15.5t3.5 -15.5q5 -12 7 -29q5 -18 -2 -26l-1 -1q-2 0 -2 -1q-5 -2 -11 0q-5 3 -9 10q0 1 -1 2.5
t-2 2.5q-13 26 -16 29q-12 15 -35 15q-38 2 -82 1h-2q-3 -9 -3 -21v-8q0 -64 -2 -190q0 -73 -1 -109q0 -3 0.5 -19t0.5 -30q0 -17 2 -27q3 -9 10 -13q9 -4 9 -12q0 -3 -2 -7q0 -2 -2 -3.5t-4 -2t-6 -1t-5 -0.5t-13 -0.5t-22 -0.5h-2h-1q-9 0 -22 1h-13q-1 0 -4 0.5t-4.5 0.5
t-3.5 0.5t-3.5 2t-1.5 3.5q-2 4 -2 7q0 8 9 12q7 4 10 13q2 10 2 27q0 14 0.5 30t0.5 19q-1 36 -1 109q-2 126 -2 190v8q0 12 -3 21h-2q-44 1 -82 -1q-23 0 -35 -15q-3 -3 -16 -29q0 -1 -1 -2.5t-2 -2.5q-4 -7 -9 -10q-6 -2 -11 0l-1 1q-2 0 -2 1zM615 290q64 -1 116.5 -46
t75.5 -106t11 -129.5t-66 -113.5q-27 -23 -59.5 -32.5t-62.5 -6t-58.5 15t-48.5 32.5t-32 44.5t-9.5 52t19.5 54.5q37 55 96 45q41 -8 56 -39q9 -20 -2 -39q-7 -14 -22.5 -20.5t-29.5 -0.5q-4 2 -19.5 13t-25.5 10q-11 -1 -19 -20q-18 -35 16 -69.5t85 -37.5t99 37
q81 84 28 199q-32 69 -86 97q-32 16 -76 16q-24 -1 -47 -9q-37 -13 -67 -37.5t-48.5 -50t-51 -63t-68.5 -67.5q-4 -3 -28 -10q-47 -13 -91 -1h-3q-37 11 -60 27q-44 29 -77 83l-1 2q-77 131 -51 352q5 43 8 63t11 59.5t17.5 64t27 53.5t39.5 49q43 39 103.5 41t108.5 -29
q46 -27 70 -69t27 -77.5t10 -67.5t22 -41q14 -7 14 -19q0 -5 -1.5 -8.5t-5.5 -6t-8 -4.5t-11.5 -3t-13.5 -1.5t-16 -1t-17.5 -0.5h-20h-21.5q-2 0 -10 -0.5t-14.5 -0.5t-14 1t-13 3.5t-7.5 7.5q-3 7 1 13.5t12 12.5t10 10q30 53 12 133q-11 48 -35 69t-48.5 16.5
t-45.5 -21.5t-29 -38q-31 -87 -40 -215t1 -206q7 -89 25 -141q1 -3 3.5 -9t4.5 -9q15 -33 37 -47q4 -3 12 -7h1h1l2 -1q1 -1 3.5 -1t3.5 -1q22 -4 41 -0.5t38 19.5t28 24.5t29.5 35.5t24.5 31q94 115 191 134q21 4 40 3z" />
    <glyph glyph-name="cu" unicode="cu" horiz-adv-x="893" 
d="M784 800q1 0 5 -0.5t6.5 -1t4.5 -2.5t2 -5q0 -6 -8 -12.5t-8 -7.5l-2 -10q1 -29 1 -78q1 -25 1 -56v-91q0 -56 -5 -96q-7 -55 -52 -103q-27 -27 -81 -27q-36 -1 -73 19t-54 53q-16 33 -14 113q1 21 1 126v95v17v5q0 7 -2 19q-3 8 -11 13q-8 4 -8 12q0 9 11 13
q1 0 4.5 0.5t6.5 0.5q43 4 75 0q1 0 5 -0.5t5.5 -1t3.5 -2t2 -4.5q0 -5 -2.5 -9t-6.5 -7t-5 -5q-2 -4 -2 -16h-1v-32v-1v-36q0 -66 -2 -202q-2 -103 47 -140q23 -17 43 -10.5t34 23t22 38.5q15 48 15 135v106q0 9 -0.5 28.5t-0.5 30.5v54v1q-2 21 -4 25l-7 7q-8 7 -8 13
q0 3 2 5t4 2.5t6 1t5 0.5h1h43h1zM615 290q64 -1 116.5 -46t75.5 -106t11 -129.5t-66 -113.5q-27 -23 -59.5 -32.5t-62.5 -6t-58.5 15t-48.5 32.5t-32 44.5t-9.5 52t19.5 54.5q37 55 96 45q41 -8 56 -39q9 -20 -2 -39q-7 -14 -22.5 -20.5t-29.5 -0.5q-4 2 -19.5 13t-25.5 10
q-11 -1 -19 -20q-18 -35 16 -69.5t85 -37.5t99 37q81 84 28 199q-32 69 -86 97q-32 16 -76 16q-24 -1 -47 -9q-37 -13 -67 -37.5t-48.5 -50t-51 -63t-68.5 -67.5q-4 -3 -28 -10q-47 -13 -91 -1h-3q-37 11 -60 27q-44 29 -77 83l-1 2q-77 131 -51 352q5 43 8 63t11 59.5
t17.5 64t27 53.5t39.5 49q43 39 103.5 41t108.5 -29q46 -27 70 -69t27 -77.5t10 -67.5t22 -41q14 -7 14 -19q0 -5 -1.5 -8.5t-5.5 -6t-8 -4.5t-11.5 -3t-13.5 -1.5t-16 -1t-17.5 -0.5h-20h-21.5q-2 0 -10 -0.5t-14.5 -0.5t-14 1t-13 3.5t-7.5 7.5q-3 7 1 13.5t12 12.5t10 10
q30 53 12 133q-11 48 -35 69t-48.5 16.5t-45.5 -21.5t-29 -38q-31 -87 -40 -215t1 -206q7 -89 25 -141q1 -3 3.5 -9t4.5 -9q15 -33 37 -47q4 -3 12 -7h1h1l2 -1q1 -1 3.5 -1t3.5 -1q22 -4 41 -0.5t38 19.5t28 24.5t29.5 35.5t24.5 31q94 115 191 134q21 4 40 3z" />
    <glyph glyph-name="Ct" unicode="Ct" horiz-adv-x="877" 
d="M1297 1022q6 -38 -6 -74q-14 -44 -57 -70q-13 -8 -23 -10q-21 -8 -42 -6q-17 2 -30 6q-28 10 -45 32q-18 26 -15 59v1q3 19 11 30q8 15 22 23q21 13 43 7q1 -1 2 -1q19 -8 23 -23q2 -2 2 -8q2 -11 -5.5 -21t-18.5 -11q-4 0 -13 1t-13 0q-6 0 -10 -4q-2 -2 -2 -3
q-5 -7 -2 -16.5t10 -16.5q13 -12 34 -17q34 -5 61 14q12 10 17 17q22 28 19 71q-1 1 -1 3q-4 26 -22 52q-43 52 -112 52q-42 0 -77 -20q-29 -17 -69 -46l-9 -7q-3 -3 -10.5 -8t-11.5 -8q-31 -22 -66 -45q-15 -10 -47 -30q-45 -27 -95 -52q-18 -8 -38 -20q-18 -9 -23 -22
q-2 -4 -2 -15q0 -31 2 -99v-9q0 -62 -2 -182q0 -73 -1 -110q1 -11 1 -49q0 -20 2 -31q2 -9 12 -15t10 -13q0 -3 -2 -9q0 -1 -2 -3t-18 -5q-1 0 -15 -0.5t-25 -0.5h-3q-11 0 -25 0.5t-15 0.5q-16 3 -18 5t-2 3q-2 3 -2 9q0 8 10 13q10 8 12 15q2 22 2 31q0 45 1 56
q-1 34 -1 103q-2 120 -2 182q0 34 -1 51v25q3 16 -3 20q-3 3 -22 -1q-10 -2 -33 -9t-35 -9q-31 -7 -66 -7q-81 0 -141 40q-61 43 -57 77q0 9 3 15q5 10 20 10h1q9 -2 13 -5q6 -4 17 -17t18 -18q26 -20 54 -28q35 -11 71 -11q54 0 120 21q-6 -2 -8 -2q8 2 14 4h2q1 1 2 1l1 1
h1q6 2 16.5 6t14.5 5q165 65 315 171l33 24q58 42 87 58q18 10 47 17q26 4 39 4q35 0 71 -13q41 -19 68 -49q34 -37 40 -87zM615 290q64 -1 116.5 -46t75.5 -106t11 -129.5t-66 -113.5q-27 -23 -59.5 -32.5t-62.5 -6t-58.5 15t-48.5 32.5t-32 44.5t-9.5 52t19.5 54.5
q37 55 96 45q41 -8 56 -39q9 -20 -2 -39q-7 -14 -22.5 -20.5t-29.5 -0.5q-4 2 -19.5 13t-25.5 10q-11 -1 -19 -20q-18 -35 16 -69.5t85 -37.5t99 37q81 84 28 199q-32 69 -86 97q-32 16 -76 16q-24 -1 -47 -9q-37 -13 -67 -37.5t-48.5 -50t-51 -63t-68.5 -67.5
q-4 -3 -28 -10q-47 -13 -91 -1h-3q-37 11 -60 27q-44 29 -77 83l-1 2q-77 131 -51 352q5 43 8 63t11 59.5t17.5 64t27 53.5t39.5 49q43 39 103.5 41t108.5 -29q46 -27 70 -69t27 -77.5t10 -67.5t22 -41q14 -7 14 -19q0 -5 -1.5 -8.5t-5.5 -6t-8 -4.5t-11.5 -3t-13.5 -1.5
t-16 -1t-17.5 -0.5h-20h-21.5q-2 0 -10 -0.5t-14.5 -0.5t-14 1t-13 3.5t-7.5 7.5q-3 7 1 13.5t12 12.5t10 10q30 53 12 133q-11 48 -35 69t-48.5 16.5t-45.5 -21.5t-29 -38q-31 -87 -40 -215t1 -206q7 -89 25 -141q1 -3 3.5 -9t4.5 -9q15 -33 37 -47q4 -3 12 -7h1h1l2 -1
q1 -1 3.5 -1t3.5 -1q22 -4 41 -0.5t38 19.5t28 24.5t29.5 35.5t24.5 31q94 115 191 134q21 4 40 3z" />
    <glyph glyph-name="ha" unicode="ha" 
d="M874 724q-2 -62 -31 -116t-81 -79q-44 -24 -100 -17.5t-89 45.5q-32 36 -27 91t47 80q33 19 62 10q16 -5 27.5 -17.5t12.5 -28.5q2 -16 -9 -30.5t-26 -15.5q-6 -1 -18.5 6t-21.5 8t-25 -14q-9 -12 -4.5 -32t15.5 -31q44 -39 89.5 -33t82 40.5t45.5 76.5q16 73 -17 146.5
t-108 93.5q-71 19 -122 -13.5t-83 -95.5q-41 -80 -43 -244q-1 -59 1 -184.5t2 -170.5v-32q0 -11 -0.5 -39.5t-0.5 -44.5q2 -27 5 -35q0 -1 11.5 -12.5t11.5 -21.5q0 -4 -1.5 -6.5t-5 -4t-6 -1.5t-7.5 -0.5t-6 -0.5t-2 -1q-64 -4 -106 1q-7 0 -15 2q-17 4 -17 21q0 5 1.5 8.5
t2.5 4.5t4.5 3.5t4.5 3.5q13 8 17 21q3 11 3 21v1q1 42 1 95v88h-209v-103q0 -11 -0.5 -39.5t-0.5 -44.5q2 -30 5 -35q0 -1 11.5 -12.5t11.5 -21.5q0 -4 -1.5 -6.5t-5 -4t-6 -1.5t-7.5 -0.5t-6 -0.5t-2 -1q-64 -4 -106 1q-7 0 -15 2q-17 4 -17 21q0 11 13 20q13 8 17 21
q3 11 3 21v1q1 42 1 95v480v28v1v8q-2 25 -4 30q-4 13 -17 21q-13 9 -13 20q0 17 17 21q10 2 18 2q61 7 104 0h1q1 0 6 -0.5t7.5 -0.5t6 -1.5t5 -4t1.5 -6.5q0 -10 -11.5 -21.5t-11.5 -12.5q-2 -4 -4 -26l-1 -1v-111q0 -155 1 -232v-73h209v35v39v73.5t2 74t5.5 84
t11.5 76.5t20 80t30.5 65.5t42.5 60.5q51 54 118 71.5t125.5 1t104.5 -64t60 -114.5q7 -36 6 -61zM829 14q1 -6 -2.5 -8.5t-10.5 -3.5q-13 -2 -38 -2t-32 1q-17 3 -18 8q0 5 8 13t6 19q-9 75 -12 86l-105 -3q-1 0 -10.5 -34t-9.5 -36q-5 -19 -4 -22t7 -6t8 -7q7 -15 -25 -18
q-20 -2 -34 1q-11 2 -12 11q0 4 2 6.5t5.5 5.5t4.5 5q9 13 24 64.5t38 139t39 140.5q19 62 19 83q-1 10 0 16t7 9t22 3q21 1 28 -18t22 -123q7 -47 12 -77.5t15 -93t21 -125.5q0 -1 4 -11q3 -7 11.5 -11.5t9.5 -11.5zM654 167q10 0 30 0.5t28 1.5l-1 13q0 1 -6 60.5
t-10 89.5q-3 -14 -11 -44q-3 -12 -30 -121z" />
    <glyph glyph-name="hb" unicode="hb" 
d="M874 724q-2 -62 -31 -116t-81 -79q-44 -24 -100 -17.5t-89 45.5q-32 36 -27 91t47 80q33 19 62 10q16 -5 27.5 -17.5t12.5 -28.5q2 -16 -9 -30.5t-26 -15.5q-6 -1 -18.5 6t-21.5 8t-25 -14q-9 -12 -4.5 -32t15.5 -31q44 -39 89.5 -33t82 40.5t45.5 76.5q16 73 -17 146.5
t-108 93.5q-71 19 -122 -13.5t-83 -95.5q-41 -80 -43 -244q-1 -59 1 -184.5t2 -170.5v-32q0 -11 -0.5 -39.5t-0.5 -44.5q2 -27 5 -35q0 -1 11.5 -12.5t11.5 -21.5q0 -4 -1.5 -6.5t-5 -4t-6 -1.5t-7.5 -0.5t-6 -0.5t-2 -1q-64 -4 -106 1q-7 0 -15 2q-17 4 -17 21q0 5 1.5 8.5
t2.5 4.5t4.5 3.5t4.5 3.5q13 8 17 21q3 11 3 21v1q1 42 1 95v88h-209v-103q0 -11 -0.5 -39.5t-0.5 -44.5q2 -30 5 -35q0 -1 11.5 -12.5t11.5 -21.5q0 -4 -1.5 -6.5t-5 -4t-6 -1.5t-7.5 -0.5t-6 -0.5t-2 -1q-64 -4 -106 1q-7 0 -15 2q-17 4 -17 21q0 11 13 20q13 8 17 21
q3 11 3 21v1q1 42 1 95v480v28v1v8q-2 25 -4 30q-4 13 -17 21q-13 9 -13 20q0 17 17 21q10 2 18 2q61 7 104 0h1q1 0 6 -0.5t7.5 -0.5t6 -1.5t5 -4t1.5 -6.5q0 -10 -11.5 -21.5t-11.5 -12.5q-2 -4 -4 -26l-1 -1v-111q0 -155 1 -232v-73h209v35v39v73.5t2 74t5.5 84
t11.5 76.5t20 80t30.5 65.5t42.5 60.5q51 54 118 71.5t125.5 1t104.5 -64t60 -114.5q7 -36 6 -61zM760 197q23 -13 29 -20q20 -20 25.5 -54t-2.5 -59q-11 -39 -36.5 -51t-72.5 -14q-94 -2 -113 0h-1q-11 0 -17.5 0.5t-10.5 1.5t-5 2.5t0 4.5q0 5 2 8t6.5 6.5t5.5 4.5
q4 8 10 212t-2 221l-7 6q-7 7 -7 13q0 7 18 7.5t84 -0.5q95 0 130 -37q28 -25 22 -100t-48 -132q-13 -17 -12.5 -18t2.5 -2zM747 111q1 21 -3 35t-14.5 20.5t-20.5 9t-28 4.5q-37 0 -37 -2l-1 -148q1 -1 2 -1q6 -3 33 -1q36 4 50 19q18 20 19 64zM697 227q25 39 39 83.5
t14 74.5q-1 64 -80 71q-19 3 -20 -8q-1 -212 -3 -241q37 0 50 20z" />
    <glyph glyph-name="hd" unicode="hd" 
d="M839 359q14 -32 14 -99q0 -149 -62.5 -208t-193.5 -54q-14 -1 -38.5 0t-31.5 2q-11 5 -2 15q1 2 5.5 6t5.5 7q6 13 8.5 28t2 41.5t-0.5 30.5q2 36 4 112q0 34 0.5 67t1.5 52.5t1 37.5v27t-1.5 17.5t-4.5 12t-8 6.5q-7 5 -8 8q-3 14 11 16q12 4 58 4t78 -6
q55 -10 98 -41.5t63 -81.5zM676 44q108 46 98 234q-3 50 -13 83.5t-40 56.5q-29 23 -65 29q-29 4 -31 3q-7 -4 -7 -12q-1 -16 -3.5 -70.5t-5.5 -133.5t-2 -139t7 -62q15 -6 62 11zM874 724q-2 -62 -31 -116t-81 -79q-44 -24 -100 -17.5t-89 45.5q-32 36 -27 91t47 80
q33 19 62 10q16 -5 27.5 -17.5t12.5 -28.5q2 -16 -9 -30.5t-26 -15.5q-6 -1 -18.5 6t-21.5 8t-25 -14q-9 -12 -4.5 -32t15.5 -31q44 -39 89.5 -33t82 40.5t45.5 76.5q16 73 -17 146.5t-108 93.5q-71 19 -122 -13.5t-83 -95.5q-41 -80 -43 -244q-1 -59 1 -184.5t2 -170.5v-32
q0 -11 -0.5 -39.5t-0.5 -44.5q2 -27 5 -35q0 -1 11.5 -12.5t11.5 -21.5q0 -4 -1.5 -6.5t-5 -4t-6 -1.5t-7.5 -0.5t-6 -0.5t-2 -1q-64 -4 -106 1q-7 0 -15 2q-17 4 -17 21q0 5 1.5 8.5t2.5 4.5t4.5 3.5t4.5 3.5q13 8 17 21q3 11 3 21v1q1 42 1 95v88h-209v-103
q0 -11 -0.5 -39.5t-0.5 -44.5q2 -30 5 -35q0 -1 11.5 -12.5t11.5 -21.5q0 -4 -1.5 -6.5t-5 -4t-6 -1.5t-7.5 -0.5t-6 -0.5t-2 -1q-64 -4 -106 1q-7 0 -15 2q-17 4 -17 21q0 11 13 20q13 8 17 21q3 11 3 21v1q1 42 1 95v480v28v1v8q-2 25 -4 30q-4 13 -17 21q-13 9 -13 20
q0 17 17 21q10 2 18 2q61 7 104 0h1q1 0 6 -0.5t7.5 -0.5t6 -1.5t5 -4t1.5 -6.5q0 -10 -11.5 -21.5t-11.5 -12.5q-2 -4 -4 -26l-1 -1v-111q0 -155 1 -232v-73h209v35v39v73.5t2 74t5.5 84t11.5 76.5t20 80t30.5 65.5t42.5 60.5q51 54 118 71.5t125.5 1t104.5 -64t60 -114.5
q7 -36 6 -61z" />
    <glyph glyph-name="he" unicode="he" 
d="M808 81q0 -1 1.5 -3t2.5 -3q5 -10 2 -48q0 -27 -10 -27h-28h-49h-54q-77 2 -84 3q-4 0 -12 2q-18 4 -18 21q0 12 14 21q9 5 14 15.5t6.5 26t2 27.5t-0.5 31t-1 27t-1 69.5t-1 136.5q0 24 -4.5 37.5t-10 16.5t-11 6.5t-6.5 10.5q-2 12 3.5 21.5t19.5 10.5h90q31 1 91 1
q4 0 12 1t14 0.5t11 -2.5q12 -5 14 -20q0 -5 -3 -15.5t-3 -12.5q-1 -4 -1 -13.5t-2 -13.5q-3 -11 -15 -15q-16 -4 -21 6q-2 5 -5 14t-4 11q-5 16 -16 20q-3 1 -9 1q-22 3 -52 1q-12 0 -19.5 -5t-10 -17t-3 -18t-0.5 -23q0 -105 1 -138q47 0 47 10q0 13 5 23q5 12 25 7.5
t20 -26.5q0 -18 -0.5 -35t-0.5 -31q0 -37 -17 -36q-32 3 -32 30v6.5t-1.5 4t-2.5 2t-4.5 1t-6.5 0t-9 -0.5h-12q-7 0 -8.5 -0.5t-3.5 -0.5q-1 -97 -1 -113q0 -3 -0.5 -12t-0.5 -14.5t2 -11.5t7 -9q7 -3 50 -3q4 0 14 -0.5t16 -0.5t13.5 1.5t12.5 5.5q11 10 16 41q6 9 18 6
q5 -1 10 -8zM874 724q-2 -62 -31 -116t-81 -79q-44 -24 -100 -17.5t-89 45.5q-32 36 -27 91t47 80q33 19 62 10q16 -5 27.5 -17.5t12.5 -28.5q2 -16 -9 -30.5t-26 -15.5q-6 -1 -18.5 6t-21.5 8t-25 -14q-9 -12 -4.5 -32t15.5 -31q44 -39 89.5 -33t82 40.5t45.5 76.5
q16 73 -17 146.5t-108 93.5q-71 19 -122 -13.5t-83 -95.5q-41 -80 -43 -244q-1 -59 1 -184.5t2 -170.5v-32q0 -11 -0.5 -39.5t-0.5 -44.5q2 -27 5 -35q0 -1 11.5 -12.5t11.5 -21.5q0 -4 -1.5 -6.5t-5 -4t-6 -1.5t-7.5 -0.5t-6 -0.5t-2 -1q-64 -4 -106 1q-7 0 -15 2
q-17 4 -17 21q0 5 1.5 8.5t2.5 4.5t4.5 3.5t4.5 3.5q13 8 17 21q3 11 3 21v1q1 42 1 95v88h-209v-103q0 -11 -0.5 -39.5t-0.5 -44.5q2 -30 5 -35q0 -1 11.5 -12.5t11.5 -21.5q0 -4 -1.5 -6.5t-5 -4t-6 -1.5t-7.5 -0.5t-6 -0.5t-2 -1q-64 -4 -106 1q-7 0 -15 2q-17 4 -17 21
q0 11 13 20q13 8 17 21q3 11 3 21v1q1 42 1 95v480v28v1v8q-2 25 -4 30q-4 13 -17 21q-13 9 -13 20q0 17 17 21q10 2 18 2q61 7 104 0h1q1 0 6 -0.5t7.5 -0.5t6 -1.5t5 -4t1.5 -6.5q0 -10 -11.5 -21.5t-11.5 -12.5q-2 -4 -4 -26l-1 -1v-111q0 -155 1 -232v-73h209v35v39
v73.5t2 74t5.5 84t11.5 76.5t20 80t30.5 65.5t42.5 60.5q51 54 118 71.5t125.5 1t104.5 -64t60 -114.5q7 -36 6 -61z" />
    <glyph glyph-name="hi" unicode="hi" 
d="M874 724q-2 -62 -31 -116t-81 -79q-44 -24 -100 -17.5t-89 45.5q-32 36 -27 91t47 80q33 19 62 10q16 -5 27.5 -17.5t12.5 -28.5q2 -16 -9 -30.5t-26 -15.5q-6 -1 -18.5 6t-21.5 8t-25 -14q-9 -12 -4.5 -32t15.5 -31q44 -39 89.5 -33t82 40.5t45.5 76.5q16 73 -17 146.5
t-108 93.5q-71 19 -122 -13.5t-83 -95.5q-41 -80 -43 -244q-1 -59 1 -184.5t2 -170.5v-32q0 -11 -0.5 -39.5t-0.5 -44.5q2 -27 5 -35q0 -1 11.5 -12.5t11.5 -21.5q0 -4 -1.5 -6.5t-5 -4t-6 -1.5t-7.5 -0.5t-6 -0.5t-2 -1q-64 -4 -106 1q-7 0 -15 2q-17 4 -17 21q0 5 1.5 8.5
t2.5 4.5t4.5 3.5t4.5 3.5q13 8 17 21q3 11 3 21v1q1 42 1 95v88h-209v-103q0 -11 -0.5 -39.5t-0.5 -44.5q2 -30 5 -35q0 -1 11.5 -12.5t11.5 -21.5q0 -4 -1.5 -6.5t-5 -4t-6 -1.5t-7.5 -0.5t-6 -0.5t-2 -1q-64 -4 -106 1q-7 0 -15 2q-17 4 -17 21q0 11 13 20q13 8 17 21
q3 11 3 21v1q1 42 1 95v480v28v1v8q-2 25 -4 30q-4 13 -17 21q-13 9 -13 20q0 17 17 21q10 2 18 2q61 7 104 0h1q1 0 6 -0.5t7.5 -0.5t6 -1.5t5 -4t1.5 -6.5q0 -10 -11.5 -21.5t-11.5 -12.5q-2 -4 -4 -26l-1 -1v-111q0 -155 1 -232v-73h209v35v39v73.5t2 74t5.5 84
t11.5 76.5t20 80t30.5 65.5t42.5 60.5q51 54 118 71.5t125.5 1t104.5 -64t60 -114.5q7 -36 6 -61zM741 46q15 -8 15 -20q0 -18 -19 -22q-5 -1 -19 -3q-33 -3 -61 0h-5q-2 0 -8.5 1t-10 1.5t-7 3.5t-3.5 8q0 11 5.5 19t13 13.5t8.5 7.5q6 11 6 61q0 23 0.5 50t0.5 33v111
q0 42 -1 75q-2 22 -5 32q-4 14 -18 22q-15 7 -15 20q0 18 19 22q2 1 21 3q28 2 55 1v-1h5q1 0 5.5 -0.5t7 -0.5t6 -1t5.5 -2.5t3.5 -4t1.5 -5.5q0 -11 -12.5 -22.5t-12.5 -12.5q-5 -9 -5 -246v-63q1 -9 1 -26q0 -20 5 -32q4 -14 18 -22z" />
    <glyph glyph-name="hm" unicode="hm" horiz-adv-x="1001" 
d="M917 33q1 -2 5.5 -6t7 -8t0.5 -9q-1 -3 -4.5 -4t-8.5 -1.5t-6 -0.5h-56q-37 0 -43 7q-9 9 5 19q9 5 10 13q2 4 2 13q1 23 1 53v46v6v216q-3 3 -5 1q-27 -117 -76 -330q-9 -42 -33 -42q-9 0 -14.5 2.5t-12.5 14t-15 35.5q-15 47 -27 87t-18 64t-18 71.5t-21 81.5
q-5 14 -6 15q-1 -1 -1 -2t0.5 -52.5t-0.5 -53.5v-94v-55q-1 -22 -1 -77q0 -6 2 -8q0 -1 7.5 -7.5t7.5 -12.5q0 -3 -2 -5t-4 -2.5t-6 -1t-5 -0.5h-1h-31h-1q-17 2 -17 9q0 6 7 12.5t7 7.5q4 6 4 24q1 87 1 185v115q1 19 1 57q3 38 -5 46q-2 2 -11 2q-4 4 -4 9q0 7 8 7
q12 0 33 1t32 1q24 0 29 -16q14 -39 36.5 -120.5t39 -142.5t21.5 -66q2 5 7 29q1 4 6.5 29t12.5 57t11 51q7 33 16 71t15 63t7 28q2 13 24 16q12 1 39 1t38 -1q24 0 24 -9q0 -2 -1 -4.5t-2.5 -4l-4 -4l-3.5 -3.5q-4 -4 -6 -19v-1v-69q0 -92 1 -138v-125q-1 -14 -1 -50
q0 -16 3 -21zM874 724q-2 -62 -31 -116t-81 -79q-45 -23 -100.5 -17t-88.5 45q-32 36 -27 91t47 80q33 19 62 10q16 -5 27.5 -17.5t12.5 -28.5q2 -16 -9 -30.5t-26 -15.5q-6 -1 -19 6t-21.5 8t-24.5 -14q-9 -12 -4.5 -32t15.5 -31q44 -39 89.5 -33t82 40.5t45.5 76.5
q16 73 -17 146.5t-108 93.5q-131 36 -206 -109q-40 -78 -42 -244q-1 -59 1 -184.5t2 -170.5v-32q0 -11 -0.5 -39.5t-0.5 -44.5q2 -30 5 -35q0 -1 11.5 -12.5t11.5 -21.5q0 -4 -1.5 -6.5t-5 -4t-6 -1.5t-7.5 -0.5t-6 -0.5t-2 -1q-64 -4 -106 1q-7 0 -15 2q-17 4 -17 21
q0 11 13 20q13 8 17 21q3 11 3 21v1q1 42 1 95v88h-209v-103q0 -11 -0.5 -39.5t-0.5 -44.5q2 -30 5 -35q0 -1 11.5 -12.5t11.5 -21.5q0 -4 -1.5 -6.5t-5 -4t-6 -1.5t-7.5 -0.5t-6 -0.5q-2 0 -2 -1q-64 -4 -106 1q-7 0 -15 2q-17 4 -17 21q0 11 13 20q13 8 16 21q4 9 4 21v1
q1 42 1 95v480v28v1v8q-2 23 -5 30q-3 13 -16 21q-13 9 -13 20q0 17 17 21q10 2 17 2q62 7 105 0h1q1 0 6 -0.5t7.5 -0.5t6 -1.5t5 -4t1.5 -6.5q0 -10 -11.5 -21.5t-11.5 -12.5q-3 -7 -5 -26v-1v-111q0 -155 1 -232v-73h209v35v39v73.5t2 74t5.5 84t11.5 76.5t20 80
t30.5 65.5t42.5 60.5q51 54 118 71.5t125.5 1t104.5 -64t60 -114.5q7 -36 6 -61z" />
    <glyph glyph-name="hn" unicode="hn" 
d="M843 470q0 -8 -5 -15t-12 -13t-8 -8q-2 -5 -4 -17q2 -104 2 -137q1 -44 1 -174v-31q-1 -13 0 -26v-5q2 -6 7 -9q10 -4 11 -8t1 -11q0 -8 -2 -11q-4 -5 -27 -5h-38h-1l-1 2q-12 3 -24 24v1q-18 33 -27 58q-92 249 -97 253l-1 -2l1 -17v6q0 -51 -4 -259q2 -13 4 -16
q1 -2 13 -13.5t12 -22.5q0 -5 -3.5 -8.5t-6.5 -4t-10 -1.5t-9 -1h-1h-52h-2q-2 0 -8.5 1t-9.5 1.5t-6.5 4t-3.5 8.5q0 11 11.5 23t12.5 13q5 9 7 44q0 64 2 171q0 34 2 102q0 73 -9 84q-4 3 -19 3q-6 8 -6 17q0 13 13 13q24 0 68 2q7 1 11.5 -0.5t10.5 -1.5q19 0 130 -334
q-2 141 -3 142l-1 97v1q0 26 -6 42v2q-1 2 -8 8t-12 13t-5 15q0 12 25 14h3h1h1h52h1q2 0 6 -0.5t6.5 -0.5t6 -1t5.5 -2t3.5 -3.5t1.5 -6.5zM874 724q-2 -62 -31 -116t-81 -79q-44 -24 -100 -17.5t-89 45.5q-32 36 -27 91t47 80q33 19 62 10q16 -5 27.5 -17.5t12.5 -28.5
q2 -16 -9 -30.5t-26 -15.5q-6 -1 -18.5 6t-21.5 8t-25 -14q-9 -12 -4.5 -32t15.5 -31q44 -39 89.5 -33t82 40.5t45.5 76.5q16 73 -17 146.5t-108 93.5q-71 19 -122 -13.5t-83 -95.5q-41 -80 -43 -244q-1 -59 1 -184.5t2 -170.5v-32q0 -11 -0.5 -39.5t-0.5 -44.5q2 -27 5 -35
q0 -1 11.5 -12.5t11.5 -21.5q0 -4 -1.5 -6.5t-5 -4t-6 -1.5t-7.5 -0.5t-6 -0.5t-2 -1q-64 -4 -106 1q-7 0 -15 2q-17 4 -17 21q0 5 1.5 8.5t2.5 4.5t4.5 3.5t4.5 3.5q13 8 17 21q3 11 3 21v1q1 42 1 95v88h-209v-103q0 -11 -0.5 -39.5t-0.5 -44.5q2 -30 5 -35
q0 -1 11.5 -12.5t11.5 -21.5q0 -4 -1.5 -6.5t-5 -4t-6 -1.5t-7.5 -0.5t-6 -0.5t-2 -1q-64 -4 -106 1q-7 0 -15 2q-17 4 -17 21q0 11 13 20q13 8 17 21q3 11 3 21v1q1 42 1 95v480v28v1v8q-2 25 -4 30q-4 13 -17 21q-13 9 -13 20q0 17 17 21q10 2 18 2q61 7 104 0h1
q1 0 6 -0.5t7.5 -0.5t6 -1.5t5 -4t1.5 -6.5q0 -10 -11.5 -21.5t-11.5 -12.5q-2 -4 -4 -26l-1 -1v-111q0 -155 1 -232v-73h209v35v39v73.5t2 74t5.5 84t11.5 76.5t20 80t30.5 65.5t42.5 60.5q51 54 118 71.5t125.5 1t104.5 -64t60 -114.5q7 -36 6 -61z" />
    <glyph glyph-name="ho" unicode="ho" 
d="M565 83q-43 91 -31 188q16 140 92 193q24 18 63 21q53 6 92 -28t52 -89q2 -10 7 -38q2 -31 3.5 -71t-7 -85t-21.5 -82.5t-41 -63t-66 -28.5q-45 -4 -84 19t-59 64zM644 298q-5 -59 -3 -98v-8q8 -96 29 -127q13 -20 32 -24q5 -1 12 -1q42 0 61 85q9 39 16 77
q16 115 -12 190q-15 42 -40 47q-6 1 -16 1q-36 0 -54.5 -33t-24.5 -107v-2zM874 724q-2 -62 -31 -116t-81 -79q-44 -24 -100 -17.5t-89 45.5q-32 36 -27 91t47 80q33 19 62 10q16 -5 27.5 -17.5t12.5 -28.5q2 -16 -9 -30.5t-26 -15.5q-6 -1 -18.5 6t-21.5 8t-25 -14
q-9 -12 -4.5 -32t15.5 -31q44 -39 89.5 -33t82 40.5t45.5 76.5q16 73 -17 146.5t-108 93.5q-71 19 -122 -13.5t-83 -95.5q-41 -80 -43 -244q-1 -59 1 -184.5t2 -170.5v-32q0 -11 -0.5 -39.5t-0.5 -44.5q2 -27 5 -35q0 -1 11.5 -12.5t11.5 -21.5q0 -4 -1.5 -6.5t-5 -4
t-6 -1.5t-7.5 -0.5t-6 -0.5t-2 -1q-64 -4 -106 1q-7 0 -15 2q-17 4 -17 21q0 5 1.5 8.5t2.5 4.5t4.5 3.5t4.5 3.5q13 8 17 21q3 11 3 21v1q1 42 1 95v88h-209v-103q0 -11 -0.5 -39.5t-0.5 -44.5q2 -30 5 -35q0 -1 11.5 -12.5t11.5 -21.5q0 -4 -1.5 -6.5t-5 -4t-6 -1.5
t-7.5 -0.5t-6 -0.5t-2 -1q-64 -4 -106 1q-7 0 -15 2q-17 4 -17 21q0 11 13 20q13 8 17 21q3 11 3 21v1q1 42 1 95v480v28v1v8q-2 25 -4 30q-4 13 -17 21q-13 9 -13 20q0 17 17 21q10 2 18 2q61 7 104 0h1q1 0 6 -0.5t7.5 -0.5t6 -1.5t5 -4t1.5 -6.5q0 -10 -11.5 -21.5
t-11.5 -12.5q-2 -4 -4 -26l-1 -1v-111q0 -155 1 -232v-73h209v35v39v73.5t2 74t5.5 84t11.5 76.5t20 80t30.5 65.5t42.5 60.5q51 54 118 71.5t125.5 1t104.5 -64t60 -114.5q7 -36 6 -61z" />
    <glyph glyph-name="hs" unicode="hs" 
d="M714 379q-3 -15 14.5 -25.5t34.5 -12.5q17 -1 26 12t8 30t-2 31q-4 26 -18 46.5t-38 25.5q-29 7 -57.5 -7t-40.5 -41q-32 -69 35 -150q57 -67 73 -98q16 -34 18 -67q1 -43 -47 -67q-23 -12 -50 -9t-47 20q-31 25 -39 67.5t12 76.5q1 1 3.5 5t4 5.5l4.5 4.5t6 4t6 1
q10 1 16 -7.5t2 -16.5q-1 -2 -11 -11.5t-6 -21.5q8 -24 34 -15.5t33 28.5q10 31 -13 53t-53.5 20t-52.5 -22q-22 -25 -24.5 -69t10.5 -75q21 -58 79.5 -84.5t114.5 3.5q88 51 81 148q-4 80 -71 140q-2 2 -11 9.5t-12 10.5t-10.5 9.5t-11 11t-8.5 11t-8 13.5t-5 14
q-11 39 12 63q15 15 29 11q9 -3 13 -13t2 -20q-5 -14 -25 -30q-8 -6 -10 -12zM874 724q-2 -62 -31 -116t-81 -79q-44 -24 -100 -17.5t-89 45.5q-32 36 -27 91t47 80q33 19 62 10q16 -5 27.5 -17.5t12.5 -28.5q2 -16 -9 -30.5t-26 -15.5q-6 -1 -18.5 6t-21.5 8t-25 -14
q-9 -12 -4.5 -32t15.5 -31q44 -39 89.5 -33t82 40.5t45.5 76.5q16 73 -17 146.5t-108 93.5q-71 19 -122 -13.5t-83 -95.5q-41 -80 -43 -244q-1 -59 1 -184.5t2 -170.5v-32q0 -11 -0.5 -39.5t-0.5 -44.5q2 -27 5 -35q0 -1 11.5 -12.5t11.5 -21.5q0 -4 -1.5 -6.5t-5 -4
t-6 -1.5t-7.5 -0.5t-6 -0.5t-2 -1q-64 -4 -106 1q-7 0 -15 2q-17 4 -17 21q0 5 1.5 8.5t2.5 4.5t4.5 3.5t4.5 3.5q13 8 17 21q3 11 3 21v1q1 42 1 95v88h-209v-103q0 -11 -0.5 -39.5t-0.5 -44.5q2 -30 5 -35q0 -1 11.5 -12.5t11.5 -21.5q0 -4 -1.5 -6.5t-5 -4t-6 -1.5
t-7.5 -0.5t-6 -0.5t-2 -1q-64 -4 -106 1q-7 0 -15 2q-17 4 -17 21q0 11 13 20q13 8 17 21q3 11 3 21v1q1 42 1 95v480v28v1v8q-2 25 -4 30q-4 13 -17 21q-13 9 -13 20q0 17 17 21q10 2 18 2q61 7 104 0h1q1 0 6 -0.5t7.5 -0.5t6 -1.5t5 -4t1.5 -6.5q0 -10 -11.5 -21.5
t-11.5 -12.5q-2 -4 -4 -26l-1 -1v-111q0 -155 1 -232v-73h209v35v39v73.5t2 74t5.5 84t11.5 76.5t20 80t30.5 65.5t42.5 60.5q51 54 118 71.5t125.5 1t104.5 -64t60 -114.5q7 -36 6 -61z" />
    <glyph glyph-name="ht" unicode="ht" horiz-adv-x="962" 
d="M487 387q-7 7 -2 26q2 18 7 29q0 1 3 14t5 17q4 8 8 10h20q4 0 11.5 0.5t11.5 0.5q7 0 33 -0.5t34 -0.5h-1h70h71h-1h-1q8 0 34 0.5t33 0.5q4 0 12 -0.5t12 -0.5h20q4 -2 8 -10q1 -2 3.5 -14.5t4.5 -16.5q1 -3 7 -29q3 -20 -3 -26l-2 -2q-5 -3 -11 0q-5 3 -9 10
q-1 1 -2 2.5t-1 2.5q-2 3 -4.5 9t-5.5 11t-6 9q-15 15 -35 15q-38 2 -82 1h-2q-3 -11 -3 -21v-8q-2 -126 -2 -191q0 -18 -0.5 -54t-0.5 -54q0 -25 1 -49q0 -17 1 -27q3 -8 11 -13q9 -5 9 -12q0 -3 -2 -7q0 -2 -2 -3.5t-4 -2t-6 -1t-5 -0.5t-13.5 -0.5t-21.5 -0.5h-2h-1
q-10 0 -22 0.5t-13 0.5t-4 0.5t-4.5 0.5t-3.5 0.5t-3.5 2t-1.5 3.5q-2 2 -2 7q0 6 8 12q8 5 11 13q2 20 2 27v49h1q-1 36 -1 108q-2 128 -2 191v8q-2 19 -3 21h-2q-44 1 -82 -1q-22 0 -35 -15q-2 -2 -17 -29q0 -1 -2 -5q-4 -7 -10 -10q-5 -3 -11 0zM874 724q-2 -62 -31 -116
t-81 -79q-44 -24 -100 -17.5t-89 45.5q-32 36 -27 91t47 80q33 19 62 10q16 -5 27.5 -17.5t12.5 -28.5q2 -16 -9 -30.5t-26 -15.5q-6 -1 -18.5 6t-21.5 8t-25 -14q-9 -12 -4.5 -32t15.5 -31q44 -39 89.5 -33t82 40.5t45.5 76.5q16 73 -17 146.5t-108 93.5q-71 19 -122 -13.5
t-83 -95.5q-41 -80 -43 -244q-1 -59 1 -184.5t2 -170.5v-32q0 -11 -0.5 -39.5t-0.5 -44.5q2 -27 5 -35q0 -1 11.5 -12.5t11.5 -21.5q0 -4 -1.5 -6.5t-5 -4t-6 -1.5t-7.5 -0.5t-6 -0.5t-2 -1q-64 -4 -106 1q-7 0 -15 2q-17 4 -17 21q0 5 1.5 8.5t2.5 4.5t4.5 3.5t4.5 3.5
q13 8 17 21q3 11 3 21v1q1 42 1 95v88h-209v-103q0 -11 -0.5 -39.5t-0.5 -44.5q2 -30 5 -35q0 -1 11.5 -12.5t11.5 -21.5q0 -4 -1.5 -6.5t-5 -4t-6 -1.5t-7.5 -0.5t-6 -0.5t-2 -1q-64 -4 -106 1q-7 0 -15 2q-17 4 -17 21q0 11 13 20q13 8 17 21q3 11 3 21v1q1 42 1 95v480
v28v1v8q-2 25 -4 30q-4 13 -17 21q-13 9 -13 20q0 17 17 21q10 2 18 2q61 7 104 0h1q1 0 6 -0.5t7.5 -0.5t6 -1.5t5 -4t1.5 -6.5q0 -10 -11.5 -21.5t-11.5 -12.5q-2 -4 -4 -26l-1 -1v-111q0 -155 1 -232v-73h209v35v39v73.5t2 74t5.5 84t11.5 76.5t20 80t30.5 65.5
t42.5 60.5q51 54 118 71.5t125.5 1t104.5 -64t60 -114.5q7 -36 6 -61z" />
    <glyph glyph-name="hu" unicode="hu" 
d="M827 487q17 0 17 -8q0 -6 -8 -13l-7 -8q-2 -2 -2 -9q0 -15 0.5 -41.5t0.5 -36.5v-57v-90q0 -64 -4 -96q-7 -56 -52 -103q-27 -27 -81 -27q-36 -1 -73.5 19.5t-53.5 52.5q-18 34 -14 113q1 42 1 126v94v18v5q0 10 -3 19q-1 6 -10 13q-8 4 -8 12q0 10 11 12q6 2 10 2
q44 4 76 0q1 0 5 -0.5t5.5 -1t3.5 -2t2 -4.5q0 -5 -2.5 -9t-6.5 -7t-5 -5q-1 -4 -3 -16v-1v-31v-1v-36q0 -68 -2 -202q-2 -105 47 -140q23 -17 43 -11t34 23t21 39q4 12 7 24.5t4.5 20.5t2.5 22.5t1 19t0.5 23.5t0.5 24q0 72 -1 107v59v54v1q-2 22 -4 24l-8 8q-7 7 -7 13
q0 8 17 8h1h43h1zM874 724q-2 -62 -31 -116t-81 -79q-44 -24 -100 -17.5t-89 45.5q-32 36 -27 91t47 80q33 19 62 10q16 -5 27.5 -17.5t12.5 -28.5q2 -16 -9 -30.5t-26 -15.5q-6 -1 -18.5 6t-21.5 8t-25 -14q-9 -12 -4.5 -32t15.5 -31q44 -39 89.5 -33t82 40.5t45.5 76.5
q16 73 -17 146.5t-108 93.5q-71 19 -122 -13.5t-83 -95.5q-41 -80 -43 -244q-1 -59 1 -184.5t2 -170.5v-32q0 -11 -0.5 -39.5t-0.5 -44.5q2 -27 5 -35q0 -1 11.5 -12.5t11.5 -21.5q0 -4 -1.5 -6.5t-5 -4t-6 -1.5t-7.5 -0.5t-6 -0.5t-2 -1q-64 -4 -106 1q-7 0 -15 2
q-17 4 -17 21q0 5 1.5 8.5t2.5 4.5t4.5 3.5t4.5 3.5q13 8 17 21q3 11 3 21v1q1 42 1 95v88h-209v-103q0 -11 -0.5 -39.5t-0.5 -44.5q2 -30 5 -35q0 -1 11.5 -12.5t11.5 -21.5q0 -4 -1.5 -6.5t-5 -4t-6 -1.5t-7.5 -0.5t-6 -0.5t-2 -1q-64 -4 -106 1q-7 0 -15 2q-17 4 -17 21
q0 11 13 20q13 8 17 21q3 11 3 21v1q1 42 1 95v480v28v1v8q-2 25 -4 30q-4 13 -17 21q-13 9 -13 20q0 17 17 21q10 2 18 2q61 7 104 0h1q1 0 6 -0.5t7.5 -0.5t6 -1.5t5 -4t1.5 -6.5q0 -10 -11.5 -21.5t-11.5 -12.5q-2 -4 -4 -26l-1 -1v-111q0 -155 1 -232v-73h209v35v39
v73.5t2 74t5.5 84t11.5 76.5t20 80t30.5 65.5t42.5 60.5q51 54 118 71.5t125.5 1t104.5 -64t60 -114.5q7 -36 6 -61z" />
    <glyph glyph-name="kb" unicode="kb" horiz-adv-x="837" 
d="M707 509q17 -7 30 -20q20 -20 25 -54t-3 -59q-10 -39 -36 -51t-72 -13q-32 -1 -71 -1.5t-43 0.5q-21 0 -28 2t-6 7q0 5 3 8q2 3 6 6.5t5 4.5q4 8 10 212t-2 221q0 1 -7 7t-7 12q0 7 18 7.5t84 -0.5q95 0 131 -37q28 -25 21.5 -99.5t-48.5 -131.5q-2 -3 -5 -6.5t-4 -5
t-2.5 -3.5t-1 -3.5t2.5 -2.5zM694 423q1 21 -3 35t-14.5 20.5t-20.5 9t-28 4.5q-6 1 -21 0.5t-15 -2.5l-2 -147q0 -2 2 -2q6 -3 34 -1q36 4 50 19q17 22 18 64zM645 540q25 38 38.5 82.5t13.5 74.5q0 64 -80 71q-19 3 -20 -8q-1 -212 -3 -241q16 0 31 6.5t20 14.5zM699 247
q64 -44 67 -133t-49 -160q-2 -4 -5 -7q-17 -23 -32 -36q-3 -3 -11 -9q-55 -47 -126 -53h-3q-57 -5 -108 15q-66 24 -102 76q-14 19 -23 42.5t-13.5 42.5t-6 48t-1.5 45t1.5 49t1.5 45v12q0 10 -3 21q-16 50 -83 55h-5h-34q-12 -4 -16 -9q-3 -5 -3 -27q-1 -7 -1 -21t-1 -21
v-38v-61q1 -8 1 -24q0 -18 4 -31q6 -14 18 -21q15 -7 15 -20q0 -17 -19 -21q-10 -2 -18 -2q-1 0 -3 -0.5t-3 -0.5h-1q-3 0 -11.5 -0.5t-14.5 -0.5h-4h-5q-16 0 -40.5 0.5t-28.5 0.5q-1 1 -2 1h-1h-2q-1 0 -6.5 0.5t-8 1t-6.5 1.5t-5.5 3.5t-1.5 6.5q0 8 5 14.5t11.5 11.5
t8.5 8q7 14 7 62q0 22 0.5 48.5t0.5 31.5v107v34q15 394 -1 421l-11.5 11.5t-10.5 19.5q0 5 3 7l1 1q10 2 20 2q45 4 105 1q2 -1 5 -1q1 0 6.5 -0.5t8 -1t6.5 -1.5t5.5 -3.5t1.5 -6.5q0 -10 -12 -21.5t-12 -12.5q-7 -14 -7 -62v-13v-20v-1v-63q1 -16 1 -49q1 -33 1 -100
q1 -10 1 -30q0 1 1 1l1 2l3 3l23 32l7 9l23 31q10 15 32 45q52 72 78 107l9 12q4 6 7 10q5 6 14.5 20t14.5 20q21 29 23 32q1 1 1 2q17 23 14 31q-1 2 -3.5 5t-3.5 4q-6 6 -6 11q-1 7 9 9h6q5 0 15 0.5t15 0.5h50q21 0 21 -10q0 -4 -3 -7q-3 -4 -12.5 -7.5t-12.5 -5.5
q-7 -4 -19 -26q-28 -42 -39 -58q-12 -17 -16 -24q-8 -12 -26 -38t-27 -40q-4 -6 -12.5 -18t-12.5 -18q-27 -42 -44 -67q-3 -5 -14.5 -22t-27.5 -40t-24 -36q10 1 26 -3q42 -11 74 -43q8 -9 16 -19q43 -55 34 -148q-4 -45 -3 -90q4 -114 62 -156q24 -18 54 -23q79 -16 133 12
q29 16 57 45.5t42 60.5q53 114 -21 191q-49 39 -99.5 35.5t-84.5 -38t-16 -69.5q10 -18 20 -19t25.5 10t19.5 13q14 6 29.5 -0.5t22.5 -20.5q18 -31 -13 -59q-35 -30 -81 -18q-33 10 -56 43q-18 26 -20 54.5t9.5 52t31.5 44.5t48 33t58 15.5t63 -5.5t60 -32z" />
    <glyph glyph-name="kd" unicode="kd" horiz-adv-x="870" 
d="M787 671q13 -32 13 -99q0 -149 -62.5 -208t-193.5 -54q-61 0 -70 3q-11 3 -2 14q2 3 6.5 7t5.5 6q6 13 8.5 28.5t2 41.5t-0.5 30q3 111 3 112q0 34 0.5 67.5t1.5 52.5t1 37.5v27.5t-1.5 17t-4.5 12t-8 7q-7 5 -8 8q-2 13 11 16q8 3 56.5 2.5t79.5 -5.5q55 -9 98 -41
t64 -82zM624 357q109 46 97 233q-3 50 -13 83.5t-39 56.5q-33 25 -66 29q-23 6 -30 3q-8 -3 -8 -12q-1 -15 -3.5 -70.5t-5 -133.5t-1.5 -138.5t7 -62.5q17 -7 62 12zM699 247q64 -44 67 -133t-49 -160q-2 -4 -5 -7q-17 -23 -32 -36q-3 -3 -11 -9q-55 -47 -126 -53h-3
q-57 -5 -108 15q-66 24 -102 76q-14 19 -23 42.5t-13.5 42.5t-6 48t-1.5 45t1.5 49t1.5 45v12q0 10 -3 21q-16 50 -83 55h-5h-34q-12 -4 -16 -9q-3 -5 -3 -27q-1 -7 -1 -21t-1 -21v-38v-61q1 -8 1 -24q0 -18 4 -31q6 -14 18 -21q15 -7 15 -20q0 -17 -19 -21q-10 -2 -18 -2
q-1 0 -3 -0.5t-3 -0.5h-1q-3 0 -11.5 -0.5t-14.5 -0.5h-4h-5q-16 0 -40.5 0.5t-28.5 0.5q-1 1 -2 1h-1h-2q-1 0 -6.5 0.5t-8 1t-6.5 1.5t-5.5 3.5t-1.5 6.5q0 8 5 14.5t11.5 11.5t8.5 8q7 14 7 62q0 22 0.5 48.5t0.5 31.5v107v34q15 394 -1 421l-11.5 11.5t-10.5 19.5
q0 5 3 7l1 1q10 2 20 2q45 4 105 1q2 -1 5 -1q1 0 6.5 -0.5t8 -1t6.5 -1.5t5.5 -3.5t1.5 -6.5q0 -10 -12 -21.5t-12 -12.5q-7 -14 -7 -62v-13v-20v-1v-63q1 -16 1 -49q1 -33 1 -100q1 -10 1 -30q0 1 1 1l1 2l3 3l23 32l7 9l23 31q10 15 32 45q52 72 78 107l9 12q4 6 7 10
q5 6 14.5 20t14.5 20q21 29 23 32q1 1 1 2q17 23 14 31q-1 2 -3.5 5t-3.5 4q-6 6 -6 11q-1 7 9 9h6q5 0 15 0.5t15 0.5h50q21 0 21 -10q0 -4 -3 -7q-3 -4 -12.5 -7.5t-12.5 -5.5q-7 -4 -19 -26q-28 -42 -39 -58q-12 -17 -16 -24q-8 -12 -26 -38t-27 -40q-4 -6 -12.5 -18
t-12.5 -18q-27 -42 -44 -67q-3 -5 -14.5 -22t-27.5 -40t-24 -36q10 1 26 -3q42 -11 74 -43q8 -9 16 -19q43 -55 34 -148q-4 -45 -3 -90q4 -114 62 -156q24 -18 54 -23q79 -16 133 12q29 16 57 45.5t42 60.5q53 114 -21 191q-49 39 -99.5 35.5t-84.5 -38t-16 -69.5
q10 -18 20 -19t25.5 10t19.5 13q14 6 29.5 -0.5t22.5 -20.5q18 -31 -13 -59q-35 -30 -81 -18q-33 10 -56 43q-18 26 -20 54.5t9.5 52t31.5 44.5t48 33t58 15.5t63 -5.5t60 -32z" />
    <glyph glyph-name="ke" unicode="ke" horiz-adv-x="837" 
d="M755 393q2 -2 4 -6q6 -12 3 -48q0 -1 -0.5 -6t-1 -7.5t-1.5 -6t-3 -5t-5 -1.5q-4 0 -13.5 -0.5t-14.5 -0.5h-49h-53q-77 2 -84 3q-5 0 -12 2q-19 3 -19 22q0 11 14 20q9 6 14 16.5t6.5 25.5t2 27.5t-0.5 31.5t-1 27q0 7 -1 68.5t-1 136.5q0 24 -4.5 37.5t-9.5 16.5
t-10.5 6.5t-7.5 10.5q-2 12 4 21.5t20 10.5h90q30 1 90 1q4 0 12 1t14.5 0.5t11.5 -2.5q13 -6 13 -20l-6 -27q-3 -27 -3 -28q-4 -12 -15 -14q-14 -5 -21 5q-1 2 -9 26q-6 15 -16 19q-2 0 -5 1t-4 1q-25 1 -52 0q-12 0 -19.5 -5t-10 -17t-3 -18t-0.5 -23q0 -73 1 -138
q47 0 47 10q0 13 5 23q5 12 25 8t20 -27q0 -18 -0.5 -35t-0.5 -31q0 -37 -17 -36q-32 3 -32 30q0 4 -0.5 6t-0.5 3.5t-1.5 2.5t-3 1.5t-4.5 0.5t-6 -0.5t-9 -0.5h-11q-7 0 -8.5 -0.5t-3.5 -0.5v-112q0 -2 -1.5 -15.5t0.5 -21t8 -10.5q7 -4 50 -4q3 0 13.5 -0.5t16.5 -0.5
t13.5 2t12.5 6q12 10 17 40q5 10 17 6q7 -2 10 -8zM699 247q64 -44 67 -133t-49 -160q-2 -4 -5 -7q-17 -23 -32 -36q-3 -3 -11 -9q-55 -47 -126 -53h-3q-57 -5 -108 15q-66 24 -102 76q-14 19 -23 42.5t-13.5 42.5t-6 48t-1.5 45t1.5 49t1.5 45v12q0 10 -3 21q-16 50 -83 55
h-5h-34q-12 -4 -16 -9q-3 -5 -3 -27q-1 -7 -1 -21t-1 -21v-38v-61q1 -8 1 -24q0 -18 4 -31q6 -14 18 -21q15 -7 15 -20q0 -17 -19 -21q-10 -2 -18 -2q-1 0 -3 -0.5t-3 -0.5h-1q-3 0 -11.5 -0.5t-14.5 -0.5h-4h-5q-16 0 -40.5 0.5t-28.5 0.5q-1 1 -2 1h-1h-2q-1 0 -6.5 0.5
t-8 1t-6.5 1.5t-5.5 3.5t-1.5 6.5q0 8 5 14.5t11.5 11.5t8.5 8q7 14 7 62q0 22 0.5 48.5t0.5 31.5v107v34q15 394 -1 421l-11.5 11.5t-10.5 19.5q0 5 3 7l1 1q10 2 20 2q45 4 105 1q2 -1 5 -1q1 0 6.5 -0.5t8 -1t6.5 -1.5t5.5 -3.5t1.5 -6.5q0 -10 -12 -21.5t-12 -12.5
q-7 -14 -7 -62v-13v-20v-1v-63q1 -16 1 -49q1 -33 1 -100q1 -10 1 -30q0 1 1 1l1 2l3 3l23 32l7 9l23 31q10 15 32 45q52 72 78 107l9 12q4 6 7 10q5 6 14.5 20t14.5 20q21 29 23 32q1 1 1 2q17 23 14 31q-1 2 -3.5 5t-3.5 4q-6 6 -6 11q-1 7 9 9h6q5 0 15 0.5t15 0.5h50
q21 0 21 -10q0 -4 -3 -7q-3 -4 -12.5 -7.5t-12.5 -5.5q-7 -4 -19 -26q-28 -42 -39 -58q-12 -17 -16 -24q-8 -12 -26 -38t-27 -40q-4 -6 -12.5 -18t-12.5 -18q-27 -42 -44 -67q-3 -5 -14.5 -22t-27.5 -40t-24 -36q10 1 26 -3q42 -11 74 -43q8 -9 16 -19q43 -55 34 -148
q-4 -45 -3 -90q4 -114 62 -156q24 -18 54 -23q79 -16 133 12q29 16 57 45.5t42 60.5q53 114 -21 191q-49 39 -99.5 35.5t-84.5 -38t-16 -69.5q10 -18 20 -19t25.5 10t19.5 13q14 6 29.5 -0.5t22.5 -20.5q18 -31 -13 -59q-35 -30 -81 -18q-33 10 -56 43q-18 26 -20 54.5
t9.5 52t31.5 44.5t48 33t58 15.5t63 -5.5t60 -32z" />
    <glyph glyph-name="ki" unicode="ki" horiz-adv-x="837" 
d="M689 358q1 0 3.5 -1.5t3.5 -2.5t3 -2.5t3 -3t1.5 -4.5t0.5 -6q0 -18 -20 -22q-8 -2 -19 -3q-33 -3 -61 0h-4q-2 0 -9 1l-10.5 1.5t-7 4t-3.5 8.5q0 10 5.5 18t13 13.5t9.5 8.5q5 10 5 60q1 40 1 83q1 37 1 111q0 22 -2 75q-2 25 -5 32q-4 14 -18 22q-1 1 -4 2.5t-4.5 3
t-3 3.5t-2.5 5t-1 7q0 18 20 22q10 2 20 2q28 2 55 1q2 -1 5 -1q1 0 6 -0.5t7 -0.5t6 -1t6 -2.5t3.5 -4t1.5 -5.5q0 -11 -12.5 -22.5t-13.5 -12.5q-5 -11 -5 -246q1 -9 1 -63v-26q2 -25 5 -32q5 -14 19 -22zM699 247q64 -44 67 -133t-49 -160q-2 -4 -5 -7q-17 -23 -32 -36
q-3 -3 -11 -9q-55 -47 -126 -53h-3q-57 -5 -108 15q-66 24 -102 76q-14 19 -23 42.5t-13.5 42.5t-6 48t-1.5 45t1.5 49t1.5 45v12q0 10 -3 21q-16 50 -83 55h-5h-34q-12 -4 -16 -9q-3 -5 -3 -27q-1 -7 -1 -21t-1 -21v-38v-61q1 -8 1 -24q0 -18 4 -31q6 -14 18 -21
q15 -7 15 -20q0 -17 -19 -21q-10 -2 -18 -2q-1 0 -3 -0.5t-3 -0.5h-1q-3 0 -11.5 -0.5t-14.5 -0.5h-4h-5q-16 0 -40.5 0.5t-28.5 0.5q-1 1 -2 1h-1h-2q-1 0 -6.5 0.5t-8 1t-6.5 1.5t-5.5 3.5t-1.5 6.5q0 8 5 14.5t11.5 11.5t8.5 8q7 14 7 62q0 22 0.5 48.5t0.5 31.5v107v34
q15 394 -1 421l-11.5 11.5t-10.5 19.5q0 5 3 7l1 1q10 2 20 2q45 4 105 1q2 -1 5 -1q1 0 6.5 -0.5t8 -1t6.5 -1.5t5.5 -3.5t1.5 -6.5q0 -10 -12 -21.5t-12 -12.5q-7 -14 -7 -62v-13v-20v-1v-63q1 -16 1 -49q1 -33 1 -100q1 -10 1 -30q0 1 1 1l1 2l3 3l23 32l7 9l23 31
q10 15 32 45q52 72 78 107l9 12q4 6 7 10q5 6 14.5 20t14.5 20q21 29 23 32q1 1 1 2q17 23 14 31q-1 2 -3.5 5t-3.5 4q-6 6 -6 11q-1 7 9 9h6q5 0 15 0.5t15 0.5h50q21 0 21 -10q0 -4 -3 -7q-3 -4 -12.5 -7.5t-12.5 -5.5q-7 -4 -19 -26q-28 -42 -39 -58q-12 -17 -16 -24
q-8 -12 -26 -38t-27 -40q-4 -6 -12.5 -18t-12.5 -18q-27 -42 -44 -67q-3 -5 -14.5 -22t-27.5 -40t-24 -36q10 1 26 -3q42 -11 74 -43q8 -9 16 -19q43 -55 34 -148q-4 -45 -3 -90q4 -114 62 -156q24 -18 54 -23q79 -16 133 12q29 16 57 45.5t42 60.5q53 114 -21 191
q-49 39 -99.5 35.5t-84.5 -38t-16 -69.5q10 -18 20 -19t25.5 10t19.5 13q14 6 29.5 -0.5t22.5 -20.5q18 -31 -13 -59q-35 -30 -81 -18q-33 10 -56 43q-18 26 -20 54.5t9.5 52t31.5 44.5t48 33t58 15.5t63 -5.5t60 -32z" />
    <glyph glyph-name="km" unicode="km" horiz-adv-x="982" 
d="M898 345q0 -1 7.5 -8.5t4.5 -13.5t-19 -6q-11 -1 -55 -1q-37 0 -43 7q-9 10 5 20q7 6 10 12q2 8 2 13v54v46v5v216q-3 9 -5 1q-27 -117 -75 -330q-11 -42 -34 -42q-8 0 -13.5 2.5t-13 14.5t-15.5 35q-25 79 -84 304q-3 14 -6 15q-1 -1 -1 -2q1 -52 0 -106v-94v-55
q0 -10 -0.5 -35.5t-0.5 -40.5q0 -7 2 -9l8 -7q7 -7 7 -13q0 -8 -17 -8h-1h-31h-1q-17 0 -17 8q0 6 8 13l7 7q2 4 4 24q0 51 0.5 114.5t0.5 70.5v115q0 38 1 57q0 41 -6 46q-2 2 -11 2q-3 3 -3 9q0 7 8 7q11 0 32 1t33 1q23 0 29 -16q14 -39 36 -120.5t38.5 -142.5t21.5 -66
q2 3 7 29q0 2 13 57t18 80q7 33 16 71t14.5 63t6.5 28q3 13 25 16q12 1 39 1t37 -1q24 0 24 -8q0 -6 -11 -17q-5 -5 -5 -19v-1q-1 -26 -1 -68q0 -93 1 -139v-125q0 -7 -0.5 -24t-0.5 -26q2 -18 4 -21zM699 247q64 -44 67 -133t-49 -160q-2 -4 -5 -7q-17 -23 -32 -36
q-3 -3 -11 -9q-55 -47 -126 -53h-3q-57 -5 -108 15q-66 24 -102 76q-14 19 -23 42.5t-13.5 42.5t-6 48t-1.5 45t1.5 49t1.5 45v12q0 10 -3 21q-16 50 -83 55h-5h-34q-12 -4 -16 -9q-3 -5 -3 -27q-1 -7 -1 -21t-1 -21v-38v-61q1 -8 1 -24q0 -18 4 -31q6 -14 18 -21
q15 -7 15 -20q0 -17 -19 -21q-10 -2 -18 -2q-1 0 -3 -0.5t-3 -0.5h-1q-3 0 -11.5 -0.5t-14.5 -0.5h-4h-5q-16 0 -40.5 0.5t-28.5 0.5q-1 1 -2 1h-1h-2q-1 0 -6.5 0.5t-8 1t-6.5 1.5t-5.5 3.5t-1.5 6.5q0 8 5 14.5t11.5 11.5t8.5 8q7 14 7 62q0 22 0.5 48.5t0.5 31.5v107v34
q15 394 -1 421l-11.5 11.5t-10.5 19.5q0 5 3 7l1 1q10 2 20 2q45 4 105 1q2 -1 5 -1q1 0 6.5 -0.5t8 -1t6.5 -1.5t5.5 -3.5t1.5 -6.5q0 -10 -12 -21.5t-12 -12.5q-7 -14 -7 -62v-13v-20v-1v-63q1 -16 1 -49q1 -33 1 -100q1 -10 1 -30q0 1 1 1l1 2l3 3l23 32l7 9l23 31
q10 15 32 45q52 72 78 107l9 12q4 6 7 10q5 6 14.5 20t14.5 20q21 29 23 32q1 1 1 2q17 23 14 31q-1 2 -3.5 5t-3.5 4q-6 6 -6 11q-1 7 9 9h6q5 0 15 0.5t15 0.5h50q21 0 21 -10q0 -4 -3 -7q-3 -4 -12.5 -7.5t-12.5 -5.5q-7 -4 -19 -26q-28 -42 -39 -58q-12 -17 -16 -24
q-8 -12 -26 -38t-27 -40q-4 -6 -12.5 -18t-12.5 -18q-27 -42 -44 -67q-3 -5 -14.5 -22t-27.5 -40t-24 -36q10 1 26 -3q42 -11 74 -43q8 -9 16 -19q43 -55 34 -148q-4 -45 -3 -90q4 -114 62 -156q24 -18 54 -23q79 -16 133 12q29 16 57 45.5t42 60.5q53 114 -21 191
q-49 39 -99.5 35.5t-84.5 -38t-16 -69.5q10 -18 20 -19t25.5 10t19.5 13q14 6 29.5 -0.5t22.5 -20.5q18 -31 -13 -59q-35 -30 -81 -18q-33 10 -56 43q-18 26 -20 54.5t9.5 52t31.5 44.5t48 33t58 15.5t63 -5.5t60 -32z" />
    <glyph glyph-name="kn" unicode="kn" horiz-adv-x="887" 
d="M817 781q0 -11 -11.5 -23t-12.5 -13q-2 -3 -4 -16q0 -24 0.5 -70.5t1.5 -67.5q0 -21 0.5 -83.5t0.5 -90.5v-30q-1 -9 -1 -27q0 -3 1 -5q0 -6 6 -8q10 -4 12 -9q1 -3 1 -10q0 -6 -3 -11q-4 -6 -27 -6h-38q-1 0 -0.5 0.5t-0.5 1.5q-13 5 -24 25l-1 1q-12 21 -26 58
q-92 248 -97 253v-1q-1 0 -1 -2v-7v-4q0 -102 -3 -258q2 -13 4 -16q1 -2 12.5 -13.5t11.5 -22.5q0 -4 -1.5 -6.5t-3.5 -4t-5.5 -2.5t-5.5 -1t-6.5 -0.5t-5.5 -0.5h-1h-53h-1q-1 0 -4 0.5t-5 0.5t-5 0.5t-5 1t-4 1.5t-3 2.5t-2 3.5t-1 5q0 11 12 22.5t13 13.5q4 9 6 43v1
q1 53 1 83.5v36.5t0.5 16.5t0.5 33.5q1 17 1 51.5t1 51.5q3 71 -9 83q-1 2 -19 4q-6 8 -6 16q0 13 14 13q22 0 68 2q6 1 10.5 0t10.5 -1q5 0 16.5 -24.5t25.5 -61t29.5 -80t28 -80t21.5 -62.5l9 -26q-2 136 -2 142v13l-2 84q0 30 -5 43l-1 1q-1 2 -13 13.5t-12 22.5
q0 14 26 14q1 1 3 1h1h53h1q2 0 8.5 -1t9.5 -1.5t6.5 -4t3.5 -8.5zM699 247q64 -44 67 -133t-49 -160q-2 -4 -5 -7q-17 -23 -32 -36q-3 -3 -11 -9q-55 -47 -126 -53h-3q-57 -5 -108 15q-66 24 -102 76q-14 19 -23 42.5t-13.5 42.5t-6 48t-1.5 45t1.5 49t1.5 45v12
q0 10 -3 21q-16 50 -83 55h-5h-34q-12 -4 -16 -9q-3 -5 -3 -27q-1 -7 -1 -21t-1 -21v-38v-61q1 -8 1 -24q0 -18 4 -31q6 -14 18 -21q15 -7 15 -20q0 -17 -19 -21q-10 -2 -18 -2q-1 0 -3 -0.5t-3 -0.5h-1q-3 0 -11.5 -0.5t-14.5 -0.5h-4h-5q-16 0 -40.5 0.5t-28.5 0.5
q-1 1 -2 1h-1h-2q-1 0 -6.5 0.5t-8 1t-6.5 1.5t-5.5 3.5t-1.5 6.5q0 8 5 14.5t11.5 11.5t8.5 8q7 14 7 62q0 22 0.5 48.5t0.5 31.5v107v34q15 394 -1 421l-11.5 11.5t-10.5 19.5q0 5 3 7l1 1q10 2 20 2q45 4 105 1q2 -1 5 -1q1 0 6.5 -0.5t8 -1t6.5 -1.5t5.5 -3.5t1.5 -6.5
q0 -10 -12 -21.5t-12 -12.5q-7 -14 -7 -62v-13v-20v-1v-63q1 -16 1 -49q1 -33 1 -100q1 -10 1 -30q0 1 1 1l1 2l3 3l23 32l7 9l23 31q10 15 32 45q52 72 78 107l9 12q4 6 7 10q5 6 14.5 20t14.5 20q21 29 23 32q1 1 1 2q17 23 14 31q-1 2 -3.5 5t-3.5 4q-6 6 -6 11q-1 7 9 9
h6q5 0 15 0.5t15 0.5h50q21 0 21 -10q0 -4 -3 -7q-3 -4 -12.5 -7.5t-12.5 -5.5q-7 -4 -19 -26q-28 -42 -39 -58q-12 -17 -16 -24q-8 -12 -26 -38t-27 -40q-4 -6 -12.5 -18t-12.5 -18q-27 -42 -44 -67q-3 -5 -14.5 -22t-27.5 -40t-24 -36q10 1 26 -3q42 -11 74 -43
q8 -9 16 -19q43 -55 34 -148q-4 -45 -3 -90q4 -114 62 -156q24 -18 54 -23q79 -16 133 12q29 16 57 45.5t42 60.5q53 114 -21 191q-49 39 -99.5 35.5t-84.5 -38t-16 -69.5q10 -18 20 -19t25.5 10t19.5 13q14 6 29.5 -0.5t22.5 -20.5q18 -31 -13 -59q-35 -30 -81 -18
q-33 10 -56 43q-18 26 -20 54.5t9.5 52t31.5 44.5t48 33t58 15.5t63 -5.5t60 -32z" />
    <glyph glyph-name="ko" unicode="ko" horiz-adv-x="837" 
d="M488 395q-43 89 -32 187q18 143 92 194q23 16 63 21q54 5 93 -29t52 -89q4 -18 6 -38q2 -31 3.5 -71t-6.5 -84.5t-21.5 -82.5t-41 -63.5t-65.5 -28.5q-46 -3 -85 19.5t-58 64.5zM566 609q-4 -72 -2 -98v-7q2 -27 4 -44t8 -43.5t18.5 -43t30.5 -20.5q8 -2 12 -2
q41 0 61 85q11 48 15 77q17 112 -11 190q-17 44 -41 47q-10 2 -15 2q-36 0 -54.5 -33.5t-24.5 -107.5zM699 247q64 -44 67 -133t-49 -160q-2 -4 -5 -7q-17 -23 -32 -36q-3 -3 -11 -9q-55 -47 -126 -53h-3q-57 -5 -108 15q-66 24 -102 76q-14 19 -23 42.5t-13.5 42.5t-6 48
t-1.5 45t1.5 49t1.5 45v12q0 10 -3 21q-16 50 -83 55h-5h-34q-12 -4 -16 -9q-3 -5 -3 -27q-1 -7 -1 -21t-1 -21v-38v-61q1 -8 1 -24q0 -18 4 -31q6 -14 18 -21q15 -7 15 -20q0 -17 -19 -21q-10 -2 -18 -2q-1 0 -3 -0.5t-3 -0.5h-1q-3 0 -11.5 -0.5t-14.5 -0.5h-4h-5
q-16 0 -40.5 0.5t-28.5 0.5q-1 1 -2 1h-1h-2q-1 0 -6.5 0.5t-8 1t-6.5 1.5t-5.5 3.5t-1.5 6.5q0 8 5 14.5t11.5 11.5t8.5 8q7 14 7 62q0 22 0.5 48.5t0.5 31.5v107v34q15 394 -1 421l-11.5 11.5t-10.5 19.5q0 5 3 7l1 1q10 2 20 2q45 4 105 1q2 -1 5 -1q1 0 6.5 -0.5t8 -1
t6.5 -1.5t5.5 -3.5t1.5 -6.5q0 -10 -12 -21.5t-12 -12.5q-7 -14 -7 -62v-13v-20v-1v-63q1 -16 1 -49q1 -33 1 -100q1 -10 1 -30q0 1 1 1l1 2l3 3l23 32l7 9l23 31q10 15 32 45q52 72 78 107l9 12q4 6 7 10q5 6 14.5 20t14.5 20q21 29 23 32q1 1 1 2q17 23 14 31q-1 2 -3.5 5
t-3.5 4q-6 6 -6 11q-1 7 9 9h6q5 0 15 0.5t15 0.5h50q21 0 21 -10q0 -4 -3 -7q-3 -4 -12.5 -7.5t-12.5 -5.5q-7 -4 -19 -26q-28 -42 -39 -58q-12 -17 -16 -24q-8 -12 -26 -38t-27 -40q-4 -6 -12.5 -18t-12.5 -18q-27 -42 -44 -67q-3 -5 -14.5 -22t-27.5 -40t-24 -36
q10 1 26 -3q42 -11 74 -43q8 -9 16 -19q43 -55 34 -148q-4 -45 -3 -90q4 -114 62 -156q24 -18 54 -23q79 -16 133 12q29 16 57 45.5t42 60.5q53 114 -21 191q-49 39 -99.5 35.5t-84.5 -38t-16 -69.5q10 -18 20 -19t25.5 10t19.5 13q14 6 29.5 -0.5t22.5 -20.5
q18 -31 -13 -59q-35 -30 -81 -18q-33 10 -56 43q-18 26 -20 54.5t9.5 52t31.5 44.5t48 33t58 15.5t63 -5.5t60 -32z" />
    <glyph glyph-name="ks" unicode="ks" horiz-adv-x="837" 
d="M637 690q2 7 9 13q20 15 25 30q3 9 -1 19t-13 13q-15 6 -29 -10q-24 -25 -12 -63q3 -10 7.5 -19t13 -18.5t12.5 -13.5t17 -15t15 -13q66 -58 72 -140q6 -99 -82 -149q-56 -30 -114.5 -3.5t-79.5 85.5q-13 30 -10 74t25 70q22 20 52.5 22t53.5 -20t13 -53q-7 -21 -33 -29
t-35 16q-4 12 6.5 20.5t11.5 11.5q4 8 -2 16.5t-16 8.5q-12 0 -24 -21q-20 -35 -12.5 -76.5t39.5 -67.5q20 -16 46.5 -19.5t50.5 8.5q49 24 46 67q-1 31 -17.5 64.5t-29 49t-43.5 51.5q-67 80 -35 151q12 27 40.5 40.5t57.5 7.5q44 -10 56 -73q1 -14 2 -30.5t-8 -30
t-26 -11.5q-17 1 -34.5 11.5t-14.5 25.5zM699 247q64 -44 67 -133t-49 -160q-2 -4 -5 -7q-17 -23 -32 -36q-3 -3 -11 -9q-55 -47 -126 -53h-3q-57 -5 -108 15q-66 24 -102 76q-14 19 -23 42.5t-13.5 42.5t-6 48t-1.5 45t1.5 49t1.5 45v12q0 10 -3 21q-16 50 -83 55h-5h-34
q-12 -4 -16 -9q-3 -5 -3 -27q-1 -7 -1 -21t-1 -21v-38v-61q1 -8 1 -24q0 -18 4 -31q6 -14 18 -21q15 -7 15 -20q0 -17 -19 -21q-10 -2 -18 -2q-1 0 -3 -0.5t-3 -0.5h-1q-3 0 -11.5 -0.5t-14.5 -0.5h-4h-5q-16 0 -40.5 0.5t-28.5 0.5q-1 1 -2 1h-1h-2q-1 0 -6.5 0.5t-8 1
t-6.5 1.5t-5.5 3.5t-1.5 6.5q0 8 5 14.5t11.5 11.5t8.5 8q7 14 7 62q0 22 0.5 48.5t0.5 31.5v107v34q15 394 -1 421l-11.5 11.5t-10.5 19.5q0 5 3 7l1 1q10 2 20 2q45 4 105 1q2 -1 5 -1q1 0 6.5 -0.5t8 -1t6.5 -1.5t5.5 -3.5t1.5 -6.5q0 -10 -12 -21.5t-12 -12.5
q-7 -14 -7 -62v-13v-20v-1v-63q1 -16 1 -49q1 -33 1 -100q1 -10 1 -30q0 1 1 1l1 2l3 3l23 32l7 9l23 31q10 15 32 45q52 72 78 107l9 12q4 6 7 10q5 6 14.5 20t14.5 20q21 29 23 32q1 1 1 2q17 23 14 31q-1 2 -3.5 5t-3.5 4q-6 6 -6 11q-1 7 9 9h6q5 0 15 0.5t15 0.5h50
q21 0 21 -10q0 -4 -3 -7q-3 -4 -12.5 -7.5t-12.5 -5.5q-7 -4 -19 -26q-28 -42 -39 -58q-12 -17 -16 -24q-8 -12 -26 -38t-27 -40q-4 -6 -12.5 -18t-12.5 -18q-27 -42 -44 -67q-3 -5 -14.5 -22t-27.5 -40t-24 -36q10 1 26 -3q42 -11 74 -43q8 -9 16 -19q43 -55 34 -148
q-4 -45 -3 -90q4 -114 62 -156q24 -18 54 -23q79 -16 133 12q29 16 57 45.5t42 60.5q53 114 -21 191q-49 39 -99.5 35.5t-84.5 -38t-16 -69.5q10 -18 20 -19t25.5 10t19.5 13q14 6 29.5 -0.5t22.5 -20.5q18 -31 -13 -59q-35 -30 -81 -18q-33 10 -56 43q-18 26 -20 54.5
t9.5 52t31.5 44.5t48 33t58 15.5t63 -5.5t60 -32z" />
    <glyph glyph-name="kt" unicode="kt" horiz-adv-x="991" 
d="M516 699q-6 6 -3 25q4 22 7 29q2 4 5 16l4 16q4 9 7 10q1 1 10 0t11 -1q7 1 23 1h67h-1h70h71h-1h-1h67q16 0 24 -1q1 0 10 1t10 0q5 -3 7 -10q2 -4 5 -16l4 -16q2 -4 7 -29q3 -19 -3 -25q0 -2 -2 -2q-4 -3 -11 -1q-5 2 -10 11q0 2 -2 4q-13 25 -16 29q-13 14 -35 16
q-57 2 -83 1h-2q-2 -14 -2 -22q0 -2 -0.5 -4.5t-0.5 -3.5q0 -31 -0.5 -95t-0.5 -95q0 -18 -0.5 -54.5t-0.5 -54.5v-48q1 -3 1.5 -13.5t0.5 -14.5q3 -7 11 -12q9 -5 9 -12q0 -3 -2 -7q-1 -7 -17 -7q-10 -2 -35 -2h-2h-1q-27 0 -35 2q-16 0 -17 7q-3 3 -3 7q0 5 9 12
q8 5 11 12q2 20 2 28v48h1q-1 36 -1 109q-2 126 -2 190v8q-1 8 -3 22h-2q-25 1 -83 -1q-22 -2 -34 -16q-5 -5 -17 -29q-1 -1 -1 -2t-1 -2q-3 -8 -10 -11q-6 -2 -11 1zM699 247q64 -44 67 -133t-49 -160q-2 -4 -5 -7q-17 -23 -32 -36q-3 -3 -11 -9q-55 -47 -126 -53h-3
q-57 -5 -108 15q-66 24 -102 76q-14 19 -23 42.5t-13.5 42.5t-6 48t-1.5 45t1.5 49t1.5 45v12q0 10 -3 21q-16 50 -83 55h-5h-34q-12 -4 -16 -9q-3 -5 -3 -27q-1 -7 -1 -21t-1 -21v-38v-61q1 -8 1 -24q0 -18 4 -31q6 -14 18 -21q15 -7 15 -20q0 -17 -19 -21q-10 -2 -18 -2
q-1 0 -3 -0.5t-3 -0.5h-1q-3 0 -11.5 -0.5t-14.5 -0.5h-4h-5q-16 0 -40.5 0.5t-28.5 0.5q-1 1 -2 1h-1h-2q-1 0 -6.5 0.5t-8 1t-6.5 1.5t-5.5 3.5t-1.5 6.5q0 8 5 14.5t11.5 11.5t8.5 8q7 14 7 62q0 22 0.5 48.5t0.5 31.5v107v34q15 394 -1 421l-11.5 11.5t-10.5 19.5
q0 5 3 7l1 1q10 2 20 2q45 4 105 1q2 -1 5 -1q1 0 6.5 -0.5t8 -1t6.5 -1.5t5.5 -3.5t1.5 -6.5q0 -10 -12 -21.5t-12 -12.5q-7 -14 -7 -62v-13v-20v-1v-63q1 -16 1 -49q1 -33 1 -100q1 -10 1 -30q0 1 1 1l1 2l3 3l23 32l7 9l23 31q10 15 32 45q52 72 78 107l9 12q4 6 7 10
q5 6 14.5 20t14.5 20q21 29 23 32q1 1 1 2q17 23 14 31q-1 2 -3.5 5t-3.5 4q-6 6 -6 11q-1 7 9 9h6q5 0 15 0.5t15 0.5h50q21 0 21 -10q0 -4 -3 -7q-3 -4 -12.5 -7.5t-12.5 -5.5q-7 -4 -19 -26q-28 -42 -39 -58q-12 -17 -16 -24q-8 -12 -26 -38t-27 -40q-4 -6 -12.5 -18
t-12.5 -18q-27 -42 -44 -67q-3 -5 -14.5 -22t-27.5 -40t-24 -36q10 1 26 -3q42 -11 74 -43q8 -9 16 -19q43 -55 34 -148q-4 -45 -3 -90q4 -114 62 -156q24 -18 54 -23q79 -16 133 12q29 16 57 45.5t42 60.5q53 114 -21 191q-49 39 -99.5 35.5t-84.5 -38t-16 -69.5
q10 -18 20 -19t25.5 10t19.5 13q14 6 29.5 -0.5t22.5 -20.5q18 -31 -13 -59q-35 -30 -81 -18q-33 10 -56 43q-18 26 -20 54.5t9.5 52t31.5 44.5t48 33t58 15.5t63 -5.5t60 -32z" />
    <glyph glyph-name="Kt" unicode="Kt" horiz-adv-x="825" 
d="M1240 1025q5 -39 -6 -74q-15 -46 -58 -70q-7 -5 -23 -11q-21 -6 -42 -5q-15 0 -30 6q-28 9 -45 31q-18 26 -15 60q1 0 1 1q2 18 10 30q7 13 22 23q24 13 43 6h2q17 -6 24 -23q2 -6 2 -8q1 -11 -6.5 -21.5t-18.5 -11.5q-4 0 -12.5 1t-13.5 0q-6 0 -9 -3l-3 -3
q-11 -15 8 -34q14 -13 35 -16q33 -7 60 14q8 5 17 16q24 32 19 71v3q-4 28 -22 52h-1q-41 52 -112 52q-40 0 -77 -20q-29 -17 -69 -46l-8 -6q-4 -3 -11.5 -8.5t-11.5 -8.5q-9 -6 -31 -21.5t-35 -23.5q-25 -16 -47 -29q-34 -22 -95 -53q-26 -12 -38 -20q-19 -10 -23 -21
q-1 -5 -1 -15q-1 -19 0 -53.5t1 -45.5v-9q0 -31 -0.5 -92t-0.5 -91q-1 -36 -1 -109v-49q0 -10 2 -32q5 -10 13 -14q10 -6 10 -14q0 -5 -3 -8q0 -2 -2 -4q-1 -1 -17 -4q-2 0 -8 -0.5t-15.5 -1t-16.5 -0.5h-4q-7 0 -16.5 0.5t-15.5 1t-8 0.5q-17 3 -18 4l-2 4q-2 4 -2 8
q0 8 10 14q9 4 12 14q2 11 2 32q1 27 1 55q0 18 -0.5 52t-0.5 51q0 61 -2 183v51q-1 8 -1 24q3 17 -3 21q-4 3 -22 -1q-10 -2 -33 -9.5t-35 -9.5q-39 -7 -66 -7q-82 0 -140 40q-61 44 -58 77q2 13 4 16q5 9 19 9h2q4 0 12 -4q7 -5 18 -18q5 -6 17 -18q23 -17 55 -28
q30 -10 71 -10q53 0 119 21q-1 -1 -3.5 -2t-4.5 -1q2 1 7 2.5t7 2.5q3 0 4 1h2l1 1q4 1 14.5 5t16.5 6q167 66 314 171q3 2 33 23q58 43 87 58q25 13 48 17q16 4 38 4q38 0 71 -12q41 -19 69 -50q32 -35 40 -86zM699 247q64 -44 67 -133t-49 -160q-2 -4 -5 -7
q-17 -23 -32 -36q-3 -3 -11 -9q-55 -47 -126 -53h-3q-57 -5 -108 15q-66 24 -102 76q-14 19 -23 42.5t-13.5 42.5t-6 48t-1.5 45t1.5 49t1.5 45v12q0 10 -3 21q-16 50 -83 55h-5h-34q-12 -4 -16 -9q-3 -5 -3 -27q-1 -7 -1 -21t-1 -21v-38v-61q1 -8 1 -24q0 -18 4 -31
q6 -14 18 -21q15 -7 15 -20q0 -17 -19 -21q-10 -2 -18 -2q-1 0 -3 -0.5t-3 -0.5h-1q-3 0 -11.5 -0.5t-14.5 -0.5h-4h-5q-16 0 -40.5 0.5t-28.5 0.5q-1 1 -2 1h-1h-2q-1 0 -6.5 0.5t-8 1t-6.5 1.5t-5.5 3.5t-1.5 6.5q0 8 5 14.5t11.5 11.5t8.5 8q7 14 7 62q0 22 0.5 48.5
t0.5 31.5v107v34q15 394 -1 421l-11.5 11.5t-10.5 19.5q0 5 3 7l1 1q10 2 20 2q45 4 105 1q2 -1 5 -1q1 0 6.5 -0.5t8 -1t6.5 -1.5t5.5 -3.5t1.5 -6.5q0 -10 -12 -21.5t-12 -12.5q-7 -14 -7 -62v-13v-20v-1v-63q1 -16 1 -49q1 -33 1 -100q1 -10 1 -30q0 1 1 1l1 2l3 3l23 32
l7 9l23 31q10 15 32 45q52 72 78 107l9 12q4 6 7 10q5 6 14.5 20t14.5 20q21 29 23 32q1 1 1 2q17 23 14 31q-1 2 -3.5 5t-3.5 4q-6 6 -6 11q-1 7 9 9h6q5 0 15 0.5t15 0.5h50q21 0 21 -10q0 -4 -3 -7q-3 -4 -12.5 -7.5t-12.5 -5.5q-7 -4 -19 -26q-28 -42 -39 -58
q-12 -17 -16 -24q-8 -12 -26 -38t-27 -40q-4 -6 -12.5 -18t-12.5 -18q-27 -42 -44 -67q-3 -5 -14.5 -22t-27.5 -40t-24 -36q10 1 26 -3q42 -11 74 -43q8 -9 16 -19q43 -55 34 -148q-4 -45 -3 -90q4 -114 62 -156q24 -18 54 -23q79 -16 133 12q29 16 57 45.5t42 60.5
q53 114 -21 191q-49 39 -99.5 35.5t-84.5 -38t-16 -69.5q10 -18 20 -19t25.5 10t19.5 13q14 6 29.5 -0.5t22.5 -20.5q18 -31 -13 -59q-35 -30 -81 -18q-33 10 -56 43q-18 26 -20 54.5t9.5 52t31.5 44.5t48 33t58 15.5t63 -5.5t60 -32z" />
    <glyph glyph-name="ku" unicode="ku" horiz-adv-x="906" 
d="M818 799q1 0 4.5 -0.5t5 -0.5t4 -1t3.5 -2.5t1 -4.5q0 -6 -8 -12.5t-8 -7.5t-0.5 -2.5l-1 -3t-0.5 -3.5q1 -30 1 -78q1 -25 1 -57v-90q0 -57 -5 -96q-7 -56 -52 -104q-25 -25 -81 -27q-36 -1 -73 19t-54 53q-16 33 -14 114q1 21 1 125v95v17v1v4q0 13 -2 19q-2 7 -10 13
q-9 5 -9 12q0 11 11 13q2 1 6 1q3 1 5 1h75v-1q17 0 17 -8q0 -6 -7 -12.5t-7 -7.5q-3 -5 -3 -16v-1q-1 -11 -1 -32v-1v-35q0 -67 -2 -203q-2 -103 47 -140q36 -20 62 -2.5t37 53.5q15 48 15 135v106q0 38 -1 59v55q-2 21 -4 25l-7 7q-8 7 -8 13q0 3 2 5t4 2.5t6 1t5 0.5h1
h43h1zM699 247q64 -44 67 -133t-49 -160q-2 -4 -5 -7q-17 -23 -32 -36q-3 -3 -11 -9q-55 -47 -126 -53h-3q-57 -5 -108 15q-66 24 -102 76q-14 19 -23 42.5t-13.5 42.5t-6 48t-1.5 45t1.5 49t1.5 45v12q0 10 -3 21q-16 50 -83 55h-5h-34q-12 -4 -16 -9q-3 -5 -3 -27
q-1 -7 -1 -21t-1 -21v-38v-61q1 -8 1 -24q0 -18 4 -31q6 -14 18 -21q15 -7 15 -20q0 -17 -19 -21q-10 -2 -18 -2q-1 0 -3 -0.5t-3 -0.5h-1q-3 0 -11.5 -0.5t-14.5 -0.5h-4h-5q-16 0 -40.5 0.5t-28.5 0.5q-1 1 -2 1h-1h-2q-1 0 -6.5 0.5t-8 1t-6.5 1.5t-5.5 3.5t-1.5 6.5
q0 8 5 14.5t11.5 11.5t8.5 8q7 14 7 62q0 22 0.5 48.5t0.5 31.5v107v34q15 394 -1 421l-11.5 11.5t-10.5 19.5q0 5 3 7l1 1q10 2 20 2q45 4 105 1q2 -1 5 -1q1 0 6.5 -0.5t8 -1t6.5 -1.5t5.5 -3.5t1.5 -6.5q0 -10 -12 -21.5t-12 -12.5q-7 -14 -7 -62v-13v-20v-1v-63
q1 -16 1 -49q1 -33 1 -100q1 -10 1 -30q0 1 1 1l1 2l3 3l23 32l7 9l23 31q10 15 32 45q52 72 78 107l9 12q4 6 7 10q5 6 14.5 20t14.5 20q21 29 23 32q1 1 1 2q17 23 14 31q-1 2 -3.5 5t-3.5 4q-6 6 -6 11q-1 7 9 9h6q5 0 15 0.5t15 0.5h50q21 0 21 -10q0 -4 -3 -7
q-3 -4 -12.5 -7.5t-12.5 -5.5q-7 -4 -19 -26q-28 -42 -39 -58q-12 -17 -16 -24q-8 -12 -26 -38t-27 -40q-4 -6 -12.5 -18t-12.5 -18q-27 -42 -44 -67q-3 -5 -14.5 -22t-27.5 -40t-24 -36q10 1 26 -3q42 -11 74 -43q8 -9 16 -19q43 -55 34 -148q-4 -45 -3 -90q4 -114 62 -156
q24 -18 54 -23q79 -16 133 12q29 16 57 45.5t42 60.5q53 114 -21 191q-49 39 -99.5 35.5t-84.5 -38t-16 -69.5q10 -18 20 -19t25.5 10t19.5 13q14 6 29.5 -0.5t22.5 -20.5q18 -31 -13 -59q-35 -30 -81 -18q-33 10 -56 43q-18 26 -20 54.5t9.5 52t31.5 44.5t48 33t58 15.5
t63 -5.5t60 -32z" />
    <glyph glyph-name="Ea" unicode="Ea" horiz-adv-x="872" 
d="M578 -157q-40 -3 -86.5 8.5t-71.5 23t-79 39.5l-18 9q-72 38 -121.5 57t-96.5 20h-4q-56 -2 -81 4h-2q-18 4 -18 20q0 9 4 13q6 4 10 6q10 7 11 9q8 9 8 44q0 331 4 550q2 64 -3 78v0q-4 16 -19 25l-1 1q-2 0 -2 1q-10 5 -10 13q-1 5 -1 9t3 7t8.5 5.5t16 3.5t25.5 2
t36 1q31 1 130 1h6h117h5h21h1q18 1 28 0q15 -2 20 -7q13 -12 7 -26l-2 -2q-2 -3 -9 -9t-9 -11q-4 -11 -4 -116q0 -2 -0.5 -13.5t0 -16.5t3.5 -12.5t10 -11.5q9 -4 9 -13q0 -12 -12 -14q-2 0 -2 -1h-1q-4 0 -6 -1h-1q-8 0 -13 -1q-27 -1 -68 1h-3q-1 0 -3 1h-1q-5 0 -6 1
q-6 2 -6 7v2q1 6 9 13t8 8q7 13 5 83v35t0.5 27.5t-1 17.5t-4 13t-8.5 6q-4 2 -7 2q-9 2 -47 0h-1q-8 0 -33 -0.5t-42 -0.5h-2q-9 0 -15 -6q-3 -3 -5.5 -8.5t-3 -14.5t-0.5 -14.5v-19v-18.5q0 -56 -3 -176.5t-3 -150.5h18h28h23h13h2q7 0 15 4q17 13 26 39q1 3 2 10.5
t3.5 12t9.5 5.5q11 3 19 -2l2 -2q7 -5 10 -17q5 -22 5 -81.5t-2 -72.5q0 -2 -1 -8t-1.5 -10t-3 -8.5t-6.5 -5.5h-2v-1h-3q-16 2 -26 17q-2 3 -6.5 18t-12.5 26t-21 12h-2h-30q-15 0 -22 -1h-38v-62v-95v-70v-3h1q20 -5 48 -14q38 -14 77 -36q14 -8 51.5 -30t58.5 -33
t55.5 -25t67.5 -20q83 -14 134 13q28 15 56.5 45t42.5 61q52 114 -22 190q-48 39 -98.5 36t-84.5 -38t-16 -70q8 -18 19 -19q10 -1 25.5 10t19.5 13q14 6 30 0t22 -20q18 -31 -14 -59q-35 -31 -80 -17q-33 9 -55 42q-23 37 -20 75.5t32.5 67.5t67 45.5t85 10t85.5 -37.5
q50 -35 62 -100t-10 -128t-78.5 -113t-130.5 -57zM764 321q1 -11 -13 -13q-39 -4 -71 0q-15 0 -17 7q0 5 8 13t6 20q-9 76 -12 86l-105 -4q-1 0 -10.5 -34t-9.5 -35q-5 -19 -4 -23t7.5 -7t7.5 -6q6 -15 -24 -18q-22 -2 -35 2q-11 2 -12 10q0 4 2 7t5.5 5.5t4.5 4.5
q9 13 24 65t37.5 138t39.5 141q19 64 19 84q-1 10 0 16t7 8.5t22 3.5q21 0 28 -19.5t22 -121.5q7 -47 12 -77.5t15 -93t21 -125.5q0 -3 4 -11q3 -7 11.5 -11.5t9.5 -11.5zM589 474q12 0 32 0.5t26 0.5l-1 13q0 1 -6 60.5t-10 89.5q-3 -13 -11 -43q-10 -46 -30 -121z" />
    <glyph glyph-name="Eb" unicode="Eb" horiz-adv-x="872" 
d="M695 504q21 -12 29 -21q20 -20 25.5 -54t-2.5 -58q-11 -40 -36 -51.5t-73 -13.5q-45 -1 -113 -1h-1q-22 1 -28 2.5t-5 6.5q0 5 2 8t6.5 7t5.5 5q4 7 10 211t-2 221l-7.5 7.5t-6.5 11.5q0 6 8.5 7t47.5 1h14h14.5h17.5q31 -1 48 -2.5t42 -10t40 -25.5q18 -18 22 -57
t-8 -87.5t-40 -86.5q-2 -3 -6 -8q-8 -10 -4 -12zM682 417q2 41 -14.5 53.5t-51.5 15.5q-7 1 -22 0.5t-15 -1.5l-1 -148l2 -2q6 -2 33 0l7 1q6 0 8 0.5t8.5 1.5t9 3t8.5 5t9 7t7 10.5t6 14t4 17.5t2 22zM632 534q25 39 39 83.5t14 74.5q-1 63 -80 71h-4.5h-5.5t-4.5 -0.5
t-4 -3t-1.5 -5.5q-1 -211 -3 -240q37 0 50 20zM578 -157q74 7 130.5 57t78.5 113t10 128t-62 100q-38 31 -85.5 37.5t-85 -10t-67 -45.5t-32.5 -67.5t20 -75.5q37 -56 96 -44q41 8 55 39q9 20 -2 39q-6 14 -22 20t-30 0q-4 -2 -19.5 -13t-25.5 -10q-11 1 -19 19
q-18 35 16 70t84.5 38t98.5 -36q74 -76 22 -190q-14 -31 -42.5 -61t-56.5 -45q-51 -27 -134 -13q-33 6 -67.5 20t-55.5 25t-58.5 33t-51.5 30q-39 22 -77 36q-28 9 -48 14h-1v3v70v95v62h38q7 1 22 1h30h2q13 -1 21 -12t12.5 -26t6.5 -18q10 -15 26 -17h3v1h2q4 1 6.5 5.5
t3 8.5t1.5 10t1 8q2 13 2 72.5t-5 81.5q-3 12 -10 17l-2 2q-8 5 -19 2q-7 -1 -9.5 -5.5t-3.5 -12t-2 -10.5q-9 -26 -26 -39q-8 -4 -15 -4h-2h-13h-23h-28h-18q0 30 3 150.5t3 176.5v18.5v19t0.5 14.5t3 14.5t5.5 8.5q6 6 15 6h2q17 0 42 0.5t33 0.5h1q38 2 47 0q3 0 7 -2
q6 -2 8.5 -6t4 -13t1 -17.5t-0.5 -27.5v-35q2 -70 -5 -83q0 -1 -8 -8t-9 -13v-2q0 -5 6 -7q1 -1 6 -1h1q2 -1 3 -1h3q41 -2 68 -1q5 1 13 1h1q2 1 6 1h1q0 1 2 1q12 2 12 14q0 9 -9 13q-7 4 -10 11.5t-3.5 12.5t0 16.5t0.5 13.5q0 105 4 116q2 5 9 11t9 9l2 2q6 14 -7 26
q-5 5 -20 7q-10 1 -28 0h-1h-21h-5h-117h-6q-99 0 -130 -1q-32 0 -50 -1.5t-27.5 -5t-10.5 -8.5t0 -13q0 -8 10 -13q0 -1 1 -1t2 -1q15 -9 19 -25v0q4 -13 3 -78q-4 -219 -4 -550q0 -35 -8 -44q-1 -2 -11 -9q-4 -2 -10 -6q-4 -4 -4 -13q0 -16 18 -20h2q25 -6 81 -4h4
q47 -1 96.5 -20t121.5 -57q107 -55 150 -68q56 -16 105 -12z" />
    <glyph glyph-name="Ed" unicode="Ed" horiz-adv-x="872" 
d="M774 666q14 -32 14 -100q0 -149 -62.5 -207.5t-193.5 -53.5q-14 -1 -39 -0.5t-31 2.5q-11 3 -3 15q2 2 6.5 5.5t5.5 6.5q6 13 8.5 28.5t2 41.5t-0.5 30q2 39 4 113q0 34 0.5 67t1 52.5t1 37.5t0 27t-2 17.5t-4 12t-7.5 6.5q-7 5 -8 8q-3 13 11 16q7 3 56 2.5t80 -5.5
q55 -9 98 -40.5t63 -81.5zM611 351q108 45 98 234q-3 49 -13 82.5t-40 57.5q-31 23 -65 29q-27 3 -31 2q-7 -2 -7 -12q-1 -14 -3.5 -70t-5.5 -133.5t-2 -138t7 -62.5q9 -4 29.5 1t32.5 10zM578 -157q74 7 130.5 57t78.5 113t10 128t-62 100q-38 31 -85.5 37.5t-85 -10
t-67 -45.5t-32.5 -67.5t20 -75.5q37 -56 96 -44q41 8 55 39q9 20 -2 39q-6 14 -22 20t-30 0q-4 -2 -19.5 -13t-25.5 -10q-11 1 -19 19q-18 35 16 70t84.5 38t98.5 -36q74 -76 22 -190q-14 -31 -42.5 -61t-56.5 -45q-51 -27 -134 -13q-33 6 -67.5 20t-55.5 25t-58.5 33
t-51.5 30q-39 22 -77 36q-28 9 -48 14h-1v3v70v95v62h38q7 1 22 1h30h2q13 -1 21 -12t12.5 -26t6.5 -18q10 -15 26 -17h3v1h2q4 1 6.5 5.5t3 8.5t1.5 10t1 8q2 13 2 72.5t-5 81.5q-3 12 -10 17l-2 2q-8 5 -19 2q-7 -1 -9.5 -5.5t-3.5 -12t-2 -10.5q-9 -26 -26 -39
q-8 -4 -15 -4h-2h-13h-23h-28h-18q0 30 3 150.5t3 176.5v18.5v19t0.5 14.5t3 14.5t5.5 8.5q6 6 15 6h2q17 0 42 0.5t33 0.5h1q38 2 47 0q3 0 7 -2q6 -2 8.5 -6t4 -13t1 -17.5t-0.5 -27.5v-35q2 -70 -5 -83q0 -1 -8 -8t-9 -13v-2q0 -5 6 -7q1 -1 6 -1h1q2 -1 3 -1h3
q41 -2 68 -1q5 1 13 1h1q2 1 6 1h1q0 1 2 1q12 2 12 14q0 9 -9 13q-7 4 -10 11.5t-3.5 12.5t0 16.5t0.5 13.5q0 105 4 116q2 5 9 11t9 9l2 2q6 14 -7 26q-5 5 -20 7q-10 1 -28 0h-1h-21h-5h-117h-6q-99 0 -130 -1q-32 0 -50 -1.5t-27.5 -5t-10.5 -8.5t0 -13q0 -8 10 -13
q0 -1 1 -1t2 -1q15 -9 19 -25v0q4 -13 3 -78q-4 -219 -4 -550q0 -35 -8 -44q-1 -2 -11 -9q-4 -2 -10 -6q-4 -4 -4 -13q0 -16 18 -20h2q25 -6 81 -4h4q47 -1 96.5 -20t121.5 -57q107 -55 150 -68q56 -16 105 -12z" />
    <glyph glyph-name="Ee" unicode="Ee" horiz-adv-x="872" 
d="M743 388q1 -1 2 -3t2 -3q5 -11 2 -49q0 -26 -10 -26h-28q-16 -1 -49 -1q-11 1 -54 1q-66 0 -84 2q-4 0 -12 2q-18 5 -18 22q0 12 14 20q9 6 14 16.5t6.5 26t2 27.5t-0.5 31t-1 27q0 7 -1 68.5t-1 137.5q0 24 -4.5 37.5t-10 16t-11 6t-6.5 10.5q-2 13 3.5 22.5t19.5 10.5
q18 0 44.5 -0.5t45.5 -0.5q62 2 91 2q34 0 37 -1q12 -5 14 -20q0 -1 -6 -28q-1 -4 -1 -13.5t-2 -14.5q-3 -10 -15 -14q-16 -4 -21 6q-2 4 -5.5 14t-3.5 11q-6 16 -16 20q-3 1 -9 1q-8 1 -52 1q-12 0 -19.5 -5t-10 -17t-3 -18t-0.5 -23q0 -106 1 -138q47 0 47 10q0 11 5 23
q4 7 14.5 8.5t20.5 -5.5t10 -23q0 -18 -0.5 -35t-0.5 -31q0 -9 -0.5 -15.5t-4.5 -13.5t-12 -6q-32 3 -32 29v6.5t-1.5 4t-2.5 2t-4.5 1t-6.5 0t-9 -0.5h-12q-7 0 -9 -0.5t-3 -0.5q-1 -96 -1 -112q0 -3 -0.5 -12t-0.5 -14.5t2 -11.5t7 -9t50 -3q4 0 14 -0.5t16 -0.5t13.5 1.5
t12.5 5.5q11 10 16 40q6 9 18 6q4 -1 10 -7zM578 -157q74 7 130.5 57t78.5 113t10 128t-62 100q-38 31 -85.5 37.5t-85 -10t-67 -45.5t-32.5 -67.5t20 -75.5q37 -56 96 -44q41 8 55 39q9 20 -2 39q-6 14 -22 20t-30 0q-4 -2 -19.5 -13t-25.5 -10q-11 1 -19 19q-18 35 16 70
t84.5 38t98.5 -36q74 -76 22 -190q-14 -31 -42.5 -61t-56.5 -45q-51 -27 -134 -13q-33 6 -67.5 20t-55.5 25t-58.5 33t-51.5 30q-39 22 -77 36q-28 9 -48 14h-1v3v70v95v62h38q7 1 22 1h30h2q13 -1 21 -12t12.5 -26t6.5 -18q10 -15 26 -17h3v1h2q4 1 6.5 5.5t3 8.5t1.5 10
t1 8q2 13 2 72.5t-5 81.5q-3 12 -10 17l-2 2q-8 5 -19 2q-7 -1 -9.5 -5.5t-3.5 -12t-2 -10.5q-9 -26 -26 -39q-8 -4 -15 -4h-2h-13h-23h-28h-18q0 30 3 150.5t3 176.5v18.5v19t0.5 14.5t3 14.5t5.5 8.5q6 6 15 6h2q17 0 42 0.5t33 0.5h1q38 2 47 0q3 0 7 -2q6 -2 8.5 -6
t4 -13t1 -17.5t-0.5 -27.5v-35q2 -70 -5 -83q0 -1 -8 -8t-9 -13v-2q0 -5 6 -7q1 -1 6 -1h1q2 -1 3 -1h3q41 -2 68 -1q5 1 13 1h1q2 1 6 1h1q0 1 2 1q12 2 12 14q0 9 -9 13q-7 4 -10 11.5t-3.5 12.5t0 16.5t0.5 13.5q0 105 4 116q2 5 9 11t9 9l2 2q6 14 -7 26q-5 5 -20 7
q-10 1 -28 0h-1h-21h-5h-117h-6q-99 0 -130 -1q-32 0 -50 -1.5t-27.5 -5t-10.5 -8.5t0 -13q0 -8 10 -13q0 -1 1 -1t2 -1q15 -9 19 -25v0q4 -13 3 -78q-4 -219 -4 -550q0 -35 -8 -44q-1 -2 -11 -9q-4 -2 -10 -6q-4 -4 -4 -13q0 -16 18 -20h2q25 -6 81 -4h4q47 -1 96.5 -20
t121.5 -57q107 -55 150 -68q56 -16 105 -12z" />
    <glyph glyph-name="Ei" unicode="Ei" horiz-adv-x="872" 
d="M676 353q15 -9 15 -21q0 -18 -19 -22q-10 -2 -19 -2q-30 -3 -61 -1q-2 1 -5 1q-1 0 -6.5 0.5t-8.5 1t-6.5 1.5t-5.5 4t-2 7q0 14 13.5 26.5t13.5 13.5q6 10 6 60q0 24 0.5 51t0.5 33v111q0 42 -1 75q-2 22 -5 32q-4 13 -18 22l-8 4t-4.5 5t-2.5 11q0 18 19 22q9 2 21 3
q20 2 55 0h5q2 0 9 -1t10 -1.5t6.5 -4t3.5 -8.5q0 -10 -12 -21.5t-13 -13.5q-5 -8 -5 -245v-63q0 -5 0.5 -13.5t0.5 -12.5q0 -19 5 -32q4 -14 18 -22zM578 -157q74 7 130.5 57t78.5 113t10 128t-62 100q-38 31 -85.5 37.5t-85 -10t-67 -45.5t-32.5 -67.5t20 -75.5
q37 -56 96 -44q41 8 55 39q9 20 -2 39q-6 14 -22 20t-30 0q-4 -2 -19.5 -13t-25.5 -10q-11 1 -19 19q-18 35 16 70t84.5 38t98.5 -36q74 -76 22 -190q-14 -31 -42.5 -61t-56.5 -45q-51 -27 -134 -13q-33 6 -67.5 20t-55.5 25t-58.5 33t-51.5 30q-39 22 -77 36q-28 9 -48 14
h-1v3v70v95v62h38q7 1 22 1h30h2q13 -1 21 -12t12.5 -26t6.5 -18q10 -15 26 -17h3v1h2q4 1 6.5 5.5t3 8.5t1.5 10t1 8q2 13 2 72.5t-5 81.5q-3 12 -10 17l-2 2q-8 5 -19 2q-7 -1 -9.5 -5.5t-3.5 -12t-2 -10.5q-9 -26 -26 -39q-8 -4 -15 -4h-2h-13h-23h-28h-18q0 30 3 150.5
t3 176.5v18.5v19t0.5 14.5t3 14.5t5.5 8.5q6 6 15 6h2q17 0 42 0.5t33 0.5h1q38 2 47 0q3 0 7 -2q6 -2 8.5 -6t4 -13t1 -17.5t-0.5 -27.5v-35q2 -70 -5 -83q0 -1 -8 -8t-9 -13v-2q0 -5 6 -7q1 -1 6 -1h1q2 -1 3 -1h3q41 -2 68 -1q5 1 13 1h1q2 1 6 1h1q0 1 2 1q12 2 12 14
q0 9 -9 13q-7 4 -10 11.5t-3.5 12.5t0 16.5t0.5 13.5q0 105 4 116q2 5 9 11t9 9l2 2q6 14 -7 26q-5 5 -20 7q-10 1 -28 0h-1h-21h-5h-117h-6q-99 0 -130 -1q-32 0 -50 -1.5t-27.5 -5t-10.5 -8.5t0 -13q0 -8 10 -13q0 -1 1 -1t2 -1q15 -9 19 -25v0q4 -13 3 -78
q-4 -219 -4 -550q0 -35 -8 -44q-1 -2 -11 -9q-4 -2 -10 -6q-4 -4 -4 -13q0 -16 18 -20h2q25 -6 81 -4h4q47 -1 96.5 -20t121.5 -57q107 -55 150 -68q56 -16 105 -12z" />
    <glyph glyph-name="Eo" unicode="Eo" horiz-adv-x="872" 
d="M502 386q-44 89 -32 187q18 143 92 194q23 16 63 21q54 5 92.5 -29t51.5 -89q6 -24 7 -38q2 -31 3.5 -71t-6.5 -84.5t-21.5 -82.5t-41 -63.5t-65.5 -28.5q-46 -3 -85 19.5t-58 64.5zM580 600q-5 -73 -3 -98l1 -7q2 -27 4 -44t8 -43.5t18.5 -43t30.5 -20.5q8 -2 12 -2
q41 0 61 85q11 48 15 77q17 112 -11 190q-17 44 -41 47q-5 1 -15 1q-36 0 -55 -33.5t-24 -106.5zM578 -157q74 7 130.5 57t78.5 113t10 128t-62 100q-38 31 -85.5 37.5t-85 -10t-67 -45.5t-32.5 -67.5t20 -75.5q37 -56 96 -44q41 8 55 39q9 20 -2 39q-6 14 -22 20t-30 0
q-4 -2 -19.5 -13t-25.5 -10q-11 1 -19 19q-18 35 16 70t84.5 38t98.5 -36q74 -76 22 -190q-14 -31 -42.5 -61t-56.5 -45q-51 -27 -134 -13q-33 6 -67.5 20t-55.5 25t-58.5 33t-51.5 30q-39 22 -77 36q-28 9 -48 14h-1v3v70v95v62h38q7 1 22 1h30h2q13 -1 21 -12t12.5 -26
t6.5 -18q10 -15 26 -17h3v1h2q4 1 6.5 5.5t3 8.5t1.5 10t1 8q2 13 2 72.5t-5 81.5q-3 12 -10 17l-2 2q-8 5 -19 2q-7 -1 -9.5 -5.5t-3.5 -12t-2 -10.5q-9 -26 -26 -39q-8 -4 -15 -4h-2h-13h-23h-28h-18q0 30 3 150.5t3 176.5v18.5v19t0.5 14.5t3 14.5t5.5 8.5q6 6 15 6h2
q17 0 42 0.5t33 0.5h1q38 2 47 0q3 0 7 -2q6 -2 8.5 -6t4 -13t1 -17.5t-0.5 -27.5v-35q2 -70 -5 -83q0 -1 -8 -8t-9 -13v-2q0 -5 6 -7q1 -1 6 -1h1q2 -1 3 -1h3q41 -2 68 -1q5 1 13 1h1q2 1 6 1h1q0 1 2 1q12 2 12 14q0 9 -9 13q-7 4 -10 11.5t-3.5 12.5t0 16.5t0.5 13.5
q0 105 4 116q2 5 9 11t9 9l2 2q6 14 -7 26q-5 5 -20 7q-10 1 -28 0h-1h-21h-5h-117h-6q-99 0 -130 -1q-32 0 -50 -1.5t-27.5 -5t-10.5 -8.5t0 -13q0 -8 10 -13q0 -1 1 -1t2 -1q15 -9 19 -25v0q4 -13 3 -78q-4 -219 -4 -550q0 -35 -8 -44q-1 -2 -11 -9q-4 -2 -10 -6
q-4 -4 -4 -13q0 -16 18 -20h2q25 -6 81 -4h4q47 -1 96.5 -20t121.5 -57q107 -55 150 -68q56 -16 105 -12z" />
    <glyph glyph-name="ET" unicode="Et" horiz-adv-x="865" 
d="M1301 1015q6 -38 -6 -73q-15 -45 -57 -71q-12 -6 -24 -10q-21 -6 -41 -5q-16 0 -31 6q-29 10 -44 31q-20 26 -15 60q4 19 10 31q11 16 23 22q20 13 43 7h2q16 -7 23 -23q2 -6 2 -9q2 -11 -5.5 -21t-18.5 -11q-5 -1 -13.5 0t-12.5 1q-6 0 -10 -3l-3 -3q-5 -7 -2 -17
t11 -17q14 -13 34 -16q33 -6 60 13q11 8 17 17q24 32 19 71v3q-4 28 -22 52q-41 52 -112 52q-41 0 -78 -20q-24 -14 -68 -46l-9 -6q-4 -4 -12.5 -10t-10.5 -7q-55 -38 -65 -45q-8 -5 -23.5 -15t-23.5 -15q-39 -23 -96 -52q-22 -10 -38 -20q-19 -10 -22 -21q-2 -5 -2 -15
q0 -16 0.5 -49t0.5 -50q1 -3 1 -10q-2 -120 -2 -182q0 -18 -0.5 -54.5t-0.5 -54.5v-49q0 -2 1 -14t2 -18q3 -10 12 -14q10 -6 10 -14q0 -5 -3 -8q0 -3 -1 -4t-18 -4q-10 -2 -40 -2h-4q-30 0 -40 2q-18 3 -18 4v1q-1 2 -1 3q-3 3 -3 8q0 8 10 14q8 4 13 14q2 22 2 32v55
q0 69 -1 103q0 31 -0.5 91.5t-0.5 90.5q0 9 -0.5 26.5t-0.5 25.5v24q0 19 -3 21q-4 3 -22 -1q-10 -2 -33 -9.5t-36 -9.5q-37 -7 -66 -7q-82 0 -140 40q-61 42 -57 77q0 8 3 16q5 9 20 9h1q5 0 13 -4q5 -5 17 -18q2 -2 5.5 -6t6.5 -7t6 -5q24 -19 54 -28q31 -10 71 -10
q56 0 119 20q-3 0 -7 -2q1 0 6 2t8 3q2 0 3 1h2l1 1q14 4 31 11q167 66 314 171q4 3 16 11l18 12q49 38 87 58q22 13 47 17q16 4 39 4q38 0 71 -13q39 -17 68 -49q34 -37 40 -87zM578 -157q74 7 130.5 57t78.5 113t10 128t-62 100q-38 31 -85.5 37.5t-85 -10t-67 -45.5
t-32.5 -67.5t20 -75.5q37 -56 96 -44q41 8 55 39q9 20 -2 39q-6 14 -22 20t-30 0q-4 -2 -19.5 -13t-25.5 -10q-11 1 -19 19q-18 35 16 70t84.5 38t98.5 -36q74 -76 22 -190q-14 -31 -42.5 -61t-56.5 -45q-51 -27 -134 -13q-33 6 -67.5 20t-55.5 25t-58.5 33t-51.5 30
q-39 22 -77 36q-28 9 -48 14h-1v3v70v95v62h38q7 1 22 1h30h2q13 -1 21 -12t12.5 -26t6.5 -18q10 -15 26 -17h3v1h2q4 1 6.5 5.5t3 8.5t1.5 10t1 8q2 13 2 72.5t-5 81.5q-3 12 -10 17l-2 2q-8 5 -19 2q-7 -1 -9.5 -5.5t-3.5 -12t-2 -10.5q-9 -26 -26 -39q-8 -4 -15 -4h-2
h-13h-23h-28h-18q0 30 3 150.5t3 176.5v18.5v19t0.5 14.5t3 14.5t5.5 8.5q6 6 15 6h2q17 0 42 0.5t33 0.5h1q38 2 47 0q3 0 7 -2q6 -2 8.5 -6t4 -13t1 -17.5t-0.5 -27.5v-35q2 -70 -5 -83q0 -1 -8 -8t-9 -13v-2q0 -5 6 -7q1 -1 6 -1h1q2 -1 3 -1h3q41 -2 68 -1q5 1 13 1h1
q2 1 6 1h1q0 1 2 1q12 2 12 14q0 9 -9 13q-7 4 -10 11.5t-3.5 12.5t0 16.5t0.5 13.5q0 105 4 116q2 5 9 11t9 9l2 2q6 14 -7 26q-5 5 -20 7q-10 1 -28 0h-1h-21h-5h-117h-6q-99 0 -130 -1q-32 0 -50 -1.5t-27.5 -5t-10.5 -8.5t0 -13q0 -8 10 -13q0 -1 1 -1t2 -1
q15 -9 19 -25v0q4 -13 3 -78q-4 -219 -4 -550q0 -35 -8 -44q-1 -2 -11 -9q-4 -2 -10 -6q-4 -4 -4 -13q0 -16 18 -20h2q25 -6 81 -4h4q47 -1 96.5 -20t121.5 -57q107 -55 150 -68q56 -16 105 -12z" />
    <glyph glyph-name="Eu" unicode="Eu" horiz-adv-x="872" 
d="M784 793q1 0 5 -0.5t6 -1t4 -2t2 -4.5q0 -5 -3 -9t-7 -7t-5 -5q-2 -4 -2 -9q0 -16 0.5 -42t0.5 -36v-57v-90q0 -64 -4 -96q-7 -56 -52 -103q-17 -17 -34.5 -22t-46.5 -6q-37 0 -74 20t-53 52q-18 35 -14 114q1 42 1 126v94v17v1v4q0 10 -3 19q-1 8 -10 13q-8 6 -8 12
q0 11 11 13q2 1 5 1.5t5 0.5q44 4 76 0q1 0 5 -0.5t5.5 -1t3.5 -2.5t2 -5q0 -6 -7 -13l-7 -7q-1 -4 -3 -16v-1v-31v-1v-36q0 -68 -2 -202q-2 -105 47 -140q23 -17 43 -11t34 22.5t21 38.5q4 12 7 24.5t4.5 20.5t2.5 23t1 19.5t0.5 23.5t0.5 24q0 72 -1 106v59v55
q-2 21 -4 25q-1 2 -5 5t-7 7t-3 9q0 3 2 4.5t4 2t6 1t5 0.5h1h43h1zM578 -157q-40 -3 -86.5 8.5t-71.5 23t-79 39.5l-18 9q-72 38 -121.5 57t-96.5 20h-4q-56 -2 -81 4h-2q-18 4 -18 20q0 9 4 13q6 4 10 6q10 7 11 9q8 9 8 44q0 331 4 550q2 64 -3 78v0q-4 16 -19 25l-1 1
q-2 0 -2 1q-10 5 -10 13q-1 5 -1 9t3 7t8.5 5.5t16 3.5t25.5 2t36 1q31 1 130 1h6h117h5h21h1q18 1 28 0q15 -2 20 -7q13 -12 7 -26l-2 -2q-2 -3 -9 -9t-9 -11q-4 -11 -4 -116q0 -2 -0.5 -13.5t0 -16.5t3.5 -12.5t10 -11.5q9 -4 9 -13q0 -12 -12 -14q-2 0 -2 -1h-1
q-4 0 -6 -1h-1q-8 0 -13 -1q-27 -1 -68 1h-3q-1 0 -3 1h-1q-5 0 -6 1q-6 2 -6 7v2q1 6 9 13t8 8q7 13 5 83v35t0.5 27.5t-1 17.5t-4 13t-8.5 6q-4 2 -7 2q-9 2 -47 0h-1q-8 0 -33 -0.5t-42 -0.5h-2q-9 0 -15 -6q-3 -3 -5.5 -8.5t-3 -14.5t-0.5 -14.5v-19v-18.5
q0 -56 -3 -176.5t-3 -150.5h18h28h23h13h2q7 0 15 4q17 13 26 39q1 3 2 10.5t3.5 12t9.5 5.5q11 3 19 -2l2 -2q7 -5 10 -17q5 -22 5 -81.5t-2 -72.5q0 -2 -1 -8t-1.5 -10t-3 -8.5t-6.5 -5.5h-2v-1h-3q-16 2 -26 17q-2 3 -6.5 18t-12.5 26t-21 12h-2h-30q-15 0 -22 -1h-38
v-62v-95v-70v-3h1q20 -5 48 -14q38 -14 77 -36q14 -8 51.5 -30t58.5 -33t55.5 -25t67.5 -20q83 -14 134 13q28 15 56.5 45t42.5 61q52 114 -22 190q-48 39 -98.5 36t-84.5 -38t-16 -70q8 -18 19 -19q10 -1 25.5 10t19.5 13q14 6 30 0t22 -20q18 -31 -14 -59q-35 -31 -80 -17
q-33 9 -55 42q-23 37 -20 75.5t32.5 67.5t67 45.5t85 10t85.5 -37.5q50 -35 62 -100t-10 -128t-78.5 -113t-130.5 -57z" />
    <glyph glyph-name="EA" unicode="EA" horiz-adv-x="863" 
d="M726 241q40 -28 56.5 -76t7 -100.5t-36 -100.5t-75.5 -82t-109 -39q-43 -4 -94.5 10.5t-75.5 26t-85 43.5q-72 38 -121.5 57t-96.5 20h-4q-56 -2 -81 4h-2q-18 4 -18 20q0 9 4 13q2 2 10 6q10 7 11 9q8 9 8 44q0 331 4 550q2 64 -3 78v0q-4 16 -19 25l-4 2l-1 1
q-12 2 -25.5 2.5t-30.5 -0.5t-24 -1q-40 0 -81.5 -21t-67.5 -59q-17 -25 -21 -62t10 -65q30 -49 87 -41q42 7 44 37q0 8 -6 9.5t-17 -0.5t-12 -2q-24 2 -35 21q-10 19 1.5 39.5t32.5 26.5q21 5 43 -7t33 -31q13 -19 10.5 -44t-12.5 -47.5t-37 -37t-65 -10.5q-60 5 -97 57
q-17 23 -21.5 44t-4.5 58q0 68 69 122t149 54q24 0 76.5 -0.5t68.5 -0.5v-1h13q31 1 130 1h6h117h5h21h1q18 1 28 0q13 -1 20 -7q13 -12 7 -26l-2 -2q-2 -3 -9 -9t-9 -11q-4 -11 -4 -116q0 -3 -0.5 -14t0 -16.5t3.5 -12.5t9 -11q10 -4 10 -13q0 -12 -13 -14q-1 0 -1 -1h-1
q-4 0 -7 -1h-1q-7 0 -12 -1q-27 -1 -68 1h-3q-1 0 -2 1h-2q-5 0 -6 1q-6 1 -6 7v2q1 6 8 13l8 8q8 15 6 83q-1 20 -0.5 35.5t0.5 26.5t-1 18.5t-3.5 12t-8.5 6.5q-4 2 -7 2q-9 2 -47 0h-1q-8 0 -33 -0.5t-42 -0.5h-2q-9 0 -15 -6q-3 -3 -5.5 -8.5t-3 -14.5t-0.5 -14.5v-19
v-18.5q0 -56 -3 -176.5t-3 -150.5h18h64h2q7 0 15 4q17 13 26 39q1 3 1.5 8.5t1.5 8.5t3.5 6.5t7.5 4.5q12 3 20 -2l2 -2q7 -5 10 -17q5 -22 5 -78.5t-3 -75.5q-3 -29 -11 -32h-2v-1h-3q-16 2 -26 17q-2 3 -6.5 18t-12.5 26t-21 12h-2h-30q-15 0 -23 -1h-37v-62v-95v-70v-3
h1q20 -5 48 -14q38 -14 77 -36q14 -8 51.5 -30t58.5 -33t55.5 -25t67.5 -20q83 -14 134 13q28 15 56.5 45t42.5 61q52 114 -22 190q-48 39 -98.5 36t-84.5 -38t-16 -70q8 -18 19 -19q10 -1 25.5 10t19.5 13q14 6 29.5 0t22.5 -20q19 -32 -14 -60q-36 -30 -81 -16
q-33 9 -55 42q-18 26 -20 54.5t9.5 52t31.5 44.5t48.5 32.5t58.5 15.5t62.5 -5.5t60.5 -32.5zM755 321q1 -11 -13 -13q-39 -4 -71 0q-16 0 -17 7q-1 6 7 14t7 19q-9 76 -12 86l-105 -4q-1 0 -6 -17t-10 -35l-5 -17q0 -2 -1.5 -7t-2 -8t0.5 -8q1 -4 7.5 -7t7.5 -6
q6 -15 -24 -18q-22 -2 -35 2q-11 2 -12 10q0 3 1 5.5t2.5 4t4.5 3.5t4 4q9 13 23.5 65t37.5 138.5t39 140.5q20 66 19 84v13t3 7.5t9 5.5t18 2q21 0 28 -19.5t22 -121.5q7 -47 12 -77.5t15 -93t21 -125.5q0 -3 4 -11q3 -7 11.5 -11.5t9.5 -11.5zM580 474q12 0 32 0.5t26 0.5
l-1 13q0 1 -6 60.5t-10 89.5q-3 -13 -11 -43q-10 -46 -30 -121z" />
    <glyph glyph-name="EB" unicode="EB" horiz-adv-x="878" 
d="M741 241q40 -28 56.5 -76t7 -100.5t-36 -100.5t-75.5 -82t-109 -39q-43 -4 -94.5 10.5t-75.5 26t-85 43.5q-72 38 -121.5 57t-96.5 20h-4q-56 -2 -81 4h-2q-18 4 -18 20q0 9 4 13q2 2 10 6q10 7 11 9q8 9 8 44q0 331 4 550q2 64 -3 78v0q-4 16 -19 25l-4 2l-1 1
q-12 2 -25.5 2.5t-30.5 -0.5t-24 -1q-40 0 -81.5 -21t-67.5 -59q-17 -25 -21 -62t10 -65q30 -49 87 -41q42 7 44 37q0 8 -6 9.5t-17 -0.5t-12 -2q-24 2 -35 21q-10 19 1.5 39.5t32.5 26.5q21 5 43 -7t33 -31q13 -19 10.5 -44t-12.5 -47.5t-37 -37t-65 -10.5q-60 5 -97 57
q-17 23 -21.5 44t-4.5 58q0 68 69 122t149 54q24 0 76.5 -0.5t68.5 -0.5v-1h13q31 1 130 1h6h117h5h21h1q18 1 28 0q13 -1 20 -7q13 -12 7 -26l-2 -2q-2 -3 -9 -9t-9 -11q-4 -11 -4 -116q0 -3 -0.5 -14t0 -16.5t3.5 -12.5t9 -11q10 -4 10 -13q0 -12 -13 -14q-1 0 -1 -1h-1
q-4 0 -7 -1h-1q-7 0 -12 -1q-28 -1 -68 1h-3q-1 0 -3 1h-1q-5 0 -6 1q-6 1 -6 7v2q1 6 8 13l8 8q8 15 6 83q-1 20 -0.5 35.5t0.5 26.5t-1 18.5t-3.5 12t-8.5 6.5q-4 2 -7 2q-9 2 -47 0h-1q-8 0 -33 -0.5t-42 -0.5h-2q-9 0 -15 -6q-3 -3 -5.5 -8.5t-3 -14.5t-0.5 -14.5v-19
v-18.5q0 -56 -3 -176.5t-3 -150.5h18h28h23h13h2q7 0 15 4q17 13 26 39q1 3 1.5 8.5t1.5 8.5t3.5 6.5t7.5 4.5q12 3 20 -2l2 -2q7 -5 10 -17q5 -22 5 -78.5t-3 -75.5q-3 -29 -11 -32h-2v-1h-3q-16 2 -26 17q-2 3 -6.5 18t-12.5 26t-21 12h-2h-30q-15 0 -23 -1h-37v-62v-95
v-70v-3h1q20 -5 48 -14q38 -14 77 -36q14 -8 51.5 -30t58.5 -33t55.5 -25t67.5 -20q83 -14 134 13q28 15 56.5 45t42.5 61q52 114 -22 190q-48 39 -98.5 36t-84.5 -38t-16 -70q8 -18 19 -19q10 -1 25.5 10t19.5 13q14 6 29.5 0t22.5 -20q19 -32 -14 -60q-36 -30 -81 -16
q-33 10 -55 42q-18 26 -20 54.5t9.5 52t31.5 44.5t48.5 32.5t58.5 15.5t62.5 -5.5t60.5 -32.5zM700 504q18 -9 30 -21q20 -20 25.5 -54t-2.5 -58q-11 -40 -36 -51.5t-73 -13.5q-46 -1 -113 -1h-1q-22 1 -28 2.5t-5 6.5q-1 3 2 8q2 3 6.5 7t5.5 5q4 7 9.5 211t-1.5 221l-7 7
q-7 7 -7 12q0 6 8.5 7t47.5 1h14h14.5h17.5q31 -1 48 -2.5t42 -10t40 -25.5q18 -18 22 -57t-8.5 -87.5t-40.5 -86.5q-2 -3 -4.5 -6.5t-4 -5t-2.5 -3.5t-0.5 -3t1.5 -2zM688 417q2 41 -14.5 53.5t-52.5 15.5q-6 1 -21 0.5t-15 -1.5l-1 -148l2 -2q6 -2 33 0l7 1q6 0 8 0.5
t8.5 1.5t9 3t8.5 5t9 7t7 10.5t6 14t4 17.5t2 22zM638 534q25 39 39 83.5t13 74.5q0 63 -79 71h-4.5h-5.5t-4.5 -0.5t-4 -3t-1.5 -5.5q-1 -211 -3 -240q37 0 50 20z" />
    <glyph glyph-name="ED" unicode="ED" horiz-adv-x="875" 
d="M738 241q40 -28 56.5 -76t7 -100.5t-36 -100.5t-75.5 -82t-109 -39q-43 -4 -94.5 10.5t-75.5 26t-85 43.5q-72 38 -121.5 57t-96.5 20h-4q-56 -2 -81 4h-2q-18 4 -18 20q0 9 4 13q2 2 10 6q10 7 11 9q8 9 8 44q0 331 4 550q2 64 -3 78v0q-4 16 -19 25l-4 2l-1 1
q-12 2 -25.5 2.5t-30.5 -0.5t-24 -1q-40 0 -81.5 -21t-67.5 -59q-17 -25 -21 -62t10 -65q30 -49 87 -41q42 7 44 37q0 8 -6 9.5t-17 -0.5t-12 -2q-24 2 -35 21q-10 19 1.5 39.5t32.5 26.5q21 5 43 -7t33 -31q13 -19 10.5 -44t-12.5 -47.5t-37 -37t-65 -10.5q-60 5 -97 57
q-17 23 -21.5 44t-4.5 58q0 68 69 122t149 54q24 0 76.5 -0.5t68.5 -0.5v-1h13q31 1 130 1h6h117h5h21h1q18 1 28 0q13 -1 20 -7q13 -12 7 -26l-2 -2q-2 -3 -9 -9t-9 -11q-4 -11 -4 -116q0 -3 -0.5 -14t0 -16.5t3.5 -12.5t9 -11q10 -4 10 -13q0 -12 -13 -14q-1 0 -1 -1h-1
q-4 0 -7 -1h-1q-7 0 -12 -1q-28 -1 -68 1h-3q-1 0 -2 1h-2q-5 0 -6 1q-6 1 -6 7v2q1 6 8 13l8 8q8 15 6 83q-1 20 -0.5 35.5t0.5 26.5t-1 18.5t-3.5 12t-8.5 6.5q-4 2 -7 2q-9 2 -47 0h-1q-8 0 -33 -0.5t-42 -0.5h-2q-9 0 -15 -6q-3 -3 -5.5 -8.5t-3 -14.5t-0.5 -14.5v-19
v-18.5q0 -56 -3 -176.5t-3 -150.5h18h28h23h13h2q7 0 15 4q17 13 26 39q1 3 1.5 8.5t1.5 8.5t3.5 6.5t7.5 4.5q12 3 20 -2l2 -2q7 -5 10 -17q5 -22 5 -78.5t-3 -75.5q-3 -29 -11 -32h-2v-1h-3q-16 2 -26 17q-2 3 -6.5 18t-12.5 26t-21 12h-2h-30q-15 0 -23 -1h-37v-62v-95
v-70v-3h1q20 -5 48 -14q38 -14 77 -36q14 -8 51.5 -30t58.5 -33t55.5 -25t67.5 -20q83 -14 134 13q28 15 56.5 45t42.5 61q52 114 -22 190q-48 39 -98.5 36t-84.5 -38t-16 -70q8 -18 19 -19q10 -1 25.5 10t19.5 13q14 6 29.5 0t22.5 -20q19 -32 -14 -60q-36 -30 -81 -16
q-33 10 -55 42q-18 26 -20 54.5t9.5 52t31.5 44.5t48.5 32.5t58.5 15.5t62.5 -5.5t60.5 -32.5zM777 666q14 -34 14 -100q0 -149 -62.5 -207.5t-193.5 -53.5q-14 -1 -39 -0.5t-31 2.5q-11 3 -3 15q2 2 6.5 5.5t5.5 6.5q6 13 8.5 28.5t2 41.5t-0.5 30q2 39 4 113q0 34 0.5 67
t1 52.5t1 37.5t0 27t-2 17.5t-4 12t-7.5 6.5q-7 5 -8 8q-3 13 11 16q7 3 56 2.5t80 -5.5q55 -9 98 -40.5t63 -81.5zM614 351q108 45 98 234q-3 49 -13 82.5t-40 57.5q-31 23 -66 29q-25 4 -30 2q-7 -2 -8 -12q0 -2 -2 -46.5t-4 -101t-3.5 -115t0 -99t6.5 -42.5q9 -4 29.5 1
t32.5 10z" />
    <glyph glyph-name="EE" unicode="EE" horiz-adv-x="875" 
d="M738 241q40 -28 56.5 -76t7 -100.5t-36 -100.5t-75.5 -82t-109 -39q-43 -4 -94.5 10.5t-75.5 26t-85 43.5q-72 38 -121.5 57t-96.5 20h-4q-56 -2 -81 4h-2q-18 4 -18 20q0 9 4 13q2 2 10 6q10 7 11 9q8 9 8 44q0 331 4 550q2 64 -3 78v0q-4 16 -19 25l-4 2l-1 1
q-12 2 -25.5 2.5t-30.5 -0.5t-24 -1q-40 0 -81.5 -21t-67.5 -59q-17 -25 -21 -62t10 -65q30 -49 87 -41q42 7 44 37q0 8 -6 9.5t-17 -0.5t-12 -2q-24 2 -35 21q-10 19 1.5 39.5t32.5 26.5q21 5 43 -7t33 -31q13 -19 10.5 -44t-12.5 -47.5t-37 -37t-65 -10.5q-60 5 -97 57
q-17 23 -21.5 44t-4.5 58q0 68 69 122t149 54q24 0 76.5 -0.5t68.5 -0.5v-1h13q31 1 130 1h6h117h5h21h1q18 1 28 0q13 -1 20 -7q13 -12 7 -26l-2 -2q-2 -3 -9 -9t-9 -11q-4 -11 -4 -116q0 -3 -0.5 -14t0 -16.5t3.5 -12.5t9 -11q10 -4 10 -13q0 -12 -13 -14q-1 0 -1 -1h-1
q-4 0 -7 -1h-1q-7 0 -12 -1q-28 -1 -68 1h-3q-1 0 -2 1h-2q-5 0 -6 1q-6 1 -6 7v2q1 6 8 13l8 8q8 15 6 83q-1 20 -0.5 35.5t0.5 26.5t-1 18.5t-3.5 12t-8.5 6.5q-4 2 -7 2q-9 2 -47 0h-1q-8 0 -33 -0.5t-42 -0.5h-2q-9 0 -15 -6q-3 -3 -5.5 -8.5t-3 -14.5t-0.5 -14.5v-19
v-18.5q0 -56 -3 -176.5t-3 -150.5h18h28h23h13h2q7 0 15 4q17 13 26 39q1 3 1.5 8.5t1.5 8.5t3.5 6.5t7.5 4.5q12 3 20 -2l2 -2q7 -5 10 -17q5 -22 5 -78.5t-3 -75.5q-3 -29 -11 -32h-2v-1h-3q-16 2 -26 17q-2 3 -6.5 18t-12.5 26t-21 12h-2h-30q-15 0 -23 -1h-37v-62v-95
v-70v-3h1q20 -5 48 -14q38 -14 77 -36q14 -8 51.5 -30t58.5 -33t55.5 -25t67.5 -20q83 -14 134 13q28 15 56.5 45t42.5 61q52 114 -22 190q-48 39 -98.5 36t-84.5 -38t-16 -70q8 -18 19 -19q10 -1 25.5 10t19.5 13q14 6 29.5 0t22.5 -20q19 -32 -14 -60q-36 -30 -81 -16
q-33 10 -55 42q-18 26 -20 54.5t9.5 52t31.5 44.5t48.5 32.5t58.5 15.5t62.5 -5.5t60.5 -32.5zM746 388l3 -6q5 -13 3 -49q0 -26 -10 -26h-28q-16 -1 -49 -1q-11 1 -54 1q-67 0 -84 2q-4 0 -12 2q-18 5 -18 22q0 12 14 20q9 6 14 16.5t6.5 26t2 27.5t-0.5 31t-1 27
q0 7 -1 68.5t-1 137.5q0 24 -4.5 37.5t-10 16t-11 6t-7.5 10.5q-4 30 24 33q18 0 44.5 -0.5t45.5 -0.5q60 2 91 2q34 0 37 -1q12 -5 14 -20q0 -1 -6 -28q-1 -4 -1 -13.5t-2 -14.5q-5 -11 -16 -14q-15 -4 -20 6q-2 4 -5.5 14t-3.5 11q-6 16 -17 20q-2 1 -8 1q-9 1 -52 1
q-12 0 -19.5 -5t-10 -17t-3 -18t-0.5 -23v-138h7q7 -1 12.5 -0.5t13 1t11.5 3t4 6.5q0 11 5 23q3 7 14 8.5t21 -5.5t10 -23q0 -18 -0.5 -35t-0.5 -31q0 -9 -0.5 -15.5t-4.5 -13.5t-12 -6q-32 3 -32 29v6.5t-1.5 4t-2.5 2t-4.5 1t-6.5 0t-9 -0.5h-12q-7 0 -9 -0.5t-3 -0.5
q-1 -96 -1 -112q0 -3 -0.5 -12t-0.5 -14.5t2 -11.5t7 -9t50 -3q4 0 14 -0.5t16 -0.5t13.5 1.5t12.5 5.5q11 10 16 40q6 9 18 6q4 -1 10 -7z" />
    <glyph glyph-name="EI" unicode="EI" horiz-adv-x="869" 
d="M732 241q40 -28 56.5 -76t7 -100.5t-36 -100.5t-75.5 -82t-109 -39q-43 -4 -94.5 10.5t-75.5 26t-85 43.5q-72 38 -121.5 57t-96.5 20h-4q-56 -2 -81 4h-2q-18 4 -18 20q0 9 4 13q2 2 10 6q10 7 11 9q8 9 8 44q0 331 4 550q2 64 -3 78v0q-4 16 -19 25l-4 2l-1 1
q-12 2 -25.5 2.5t-30.5 -0.5t-24 -1q-40 0 -81.5 -21t-67.5 -59q-17 -25 -21 -62t10 -65q30 -49 87 -41q42 7 44 37q0 8 -6 9.5t-17 -0.5t-12 -2q-24 2 -35 21q-10 19 1.5 39.5t32.5 26.5q21 5 43 -7t33 -31q13 -19 10.5 -44t-12.5 -47.5t-37 -37t-65 -10.5q-60 5 -97 57
q-17 23 -21.5 44t-4.5 58q0 68 69 122t149 54q24 0 76.5 -0.5t68.5 -0.5v-1h13q31 1 130 1h6h117h5h21h1q18 1 28 0q13 -1 20 -7q13 -12 7 -26l-2 -2q-2 -3 -9 -9t-9 -11q-4 -11 -4 -116q0 -3 -0.5 -14t0 -16.5t3.5 -12.5t9 -11q10 -4 10 -13q0 -12 -13 -14q-1 0 -1 -1h-1
q-4 0 -7 -1h-1q-7 0 -12 -1q-27 -1 -68 1h-3q-1 0 -2 1h-2q-5 0 -6 1q-6 1 -6 7v2q1 6 8 13l8 8q8 15 6 83q-1 20 -0.5 35.5t0.5 26.5t-1 18.5t-3.5 12t-8.5 6.5q-4 2 -7 2q-9 2 -47 0h-1q-8 0 -33 -0.5t-42 -0.5h-2q-9 0 -15 -6q-3 -3 -5.5 -8.5t-3 -14.5t-0.5 -14.5v-19
v-18.5q0 -56 -3 -176.5t-3 -150.5h18h64h2q7 0 15 4q17 13 26 39q1 3 1.5 8.5t1.5 8.5t3.5 6.5t7.5 4.5q12 3 20 -2l2 -2q7 -5 10 -17q5 -22 5 -78.5t-3 -75.5q-3 -29 -11 -32h-2v-1h-3q-16 2 -26 17q-2 3 -6.5 18t-12.5 26t-21 12h-2h-30q-15 0 -23 -1h-37v-62v-95v-70v-3
h1q20 -5 48 -14q38 -14 77 -36q14 -8 51.5 -30t58.5 -33t55.5 -25t67.5 -20q83 -14 134 13q28 15 56.5 45t42.5 61q52 114 -22 190q-48 39 -98.5 36t-84.5 -38t-16 -70q8 -18 19 -19q10 -1 25.5 10t19.5 13q14 6 29.5 0t22.5 -20q19 -32 -14 -60q-36 -30 -81 -16
q-33 9 -55 42q-18 26 -20 54.5t9.5 52t31.5 44.5t48.5 32.5t58.5 15.5t62.5 -5.5t60.5 -32.5zM673 353q15 -9 15 -21q0 -18 -19 -22q-10 -2 -19 -2q-30 -3 -61 -1q-2 1 -5 1q-1 0 -7 0.5t-8.5 1t-6.5 1.5t-6 4t-2 7q0 14 14 26.5t14 13.5q6 10 6 60q0 67 1 84v111q0 9 -2 75
q0 17 -4 32q-4 11 -18 22l-8 4t-4.5 5t-2.5 11q0 18 19 22q9 2 21 3q20 2 55 0h5q2 0 9 -1t10 -1.5t6.5 -4t3.5 -8.5q0 -10 -12 -21.5t-13 -13.5q-5 -8 -5 -245v-63q0 -5 0.5 -13.5t0.5 -12.5q0 -19 5 -32q4 -14 18 -22z" />
    <glyph glyph-name="EM" unicode="EM" horiz-adv-x="939" 
d="M738 241q40 -28 56.5 -76t7 -100.5t-36 -100.5t-75.5 -82t-109 -39q-43 -4 -94.5 10.5t-75.5 26t-85 43.5q-72 38 -121.5 57t-96.5 20h-4q-56 -2 -81 4h-2q-18 4 -18 20q0 9 4 13q2 2 10 6q10 7 11 9q8 9 8 44q0 331 4 550q2 64 -3 78v0q-4 16 -19 25l-4 2l-1 1
q-12 2 -25.5 2.5t-30.5 -0.5t-24 -1q-40 0 -81.5 -21t-67.5 -59q-17 -25 -21 -62t10 -65q30 -49 87 -41q42 7 44 37q0 8 -6 9.5t-17 -0.5t-12 -2q-24 2 -35 21q-10 19 1.5 39.5t32.5 26.5q21 5 43 -7t33 -31q13 -19 10.5 -44t-12.5 -47.5t-37 -37t-65 -10.5q-60 5 -97 57
q-17 23 -21.5 44t-4.5 58q0 68 69 122t149 54q24 0 76.5 -0.5t68.5 -0.5v-1h13q31 1 130 1h6h117h5h21h1q18 1 28 0q13 -1 20 -7q13 -12 7 -26l-2 -2q-2 -3 -9 -9t-9 -11q-4 -11 -4 -116q0 -3 -0.5 -14t0 -16.5t3.5 -12.5t9 -11q10 -4 10 -13q0 -12 -13 -14q-1 0 -1 -1h-1
q-4 0 -7 -1h-1q-7 0 -12 -1q-28 -1 -68 1h-3q-1 0 -2 1h-2q-5 0 -6 1q-6 1 -6 7v2q1 6 8 13l8 8q8 15 6 83q-1 20 -0.5 35.5t0.5 26.5t-1 18.5t-3.5 12t-8.5 6.5q-4 2 -7 2q-9 2 -47 0h-1q-8 0 -33 -0.5t-42 -0.5h-2q-9 0 -15 -6q-3 -3 -5.5 -8.5t-3 -14.5t-0.5 -14.5v-19
v-18.5q0 -56 -3 -176.5t-3 -150.5h18h28h23h13h2q7 0 15 4q17 13 26 39q1 3 1.5 8.5t1.5 8.5t3.5 6.5t7.5 4.5q12 3 20 -2l2 -2q7 -5 10 -17q5 -22 5 -78.5t-3 -75.5q-3 -29 -11 -32h-2v-1h-3q-16 2 -26 17q-2 3 -6.5 18t-12.5 26t-21 12h-2h-30q-15 0 -23 -1h-37v-62v-95
v-70v-3h1q20 -5 48 -14q38 -14 77 -36q14 -8 51.5 -30t58.5 -33t55.5 -25t67.5 -20q83 -14 134 13q28 15 56.5 45t42.5 61q52 114 -22 190q-48 39 -98.5 36t-84.5 -38t-16 -70q8 -18 19 -19q10 -1 25.5 10t19.5 13q14 6 29.5 0t22.5 -20q19 -32 -14 -60q-36 -30 -81 -16
q-33 10 -55 42q-18 26 -20 54.5t9.5 52t31.5 44.5t48.5 32.5t58.5 15.5t62.5 -5.5t60.5 -32.5zM855 339q1 -2 5.5 -6t7 -8t0.5 -8q-3 -6 -19 -6q-12 -1 -56 -1q-37 0 -43 7q-9 11 5 20q7 4 10 12q2 5 2 13v1q1 22 1 53v46v5v217q-3 3 -5 1q-27 -118 -76 -331q-9 -41 -33 -41
q-9 0 -14.5 2t-12.5 14t-15 35q-15 47 -27 87t-18 64.5t-18 70.5t-21 82q-4 14 -6 16v-1l-1 -1q0 -1 0.5 -53t-0.5 -53v-95v-55q-1 -21 -1 -76q0 -5 2 -9q0 -1 7.5 -7.5t7.5 -12.5q0 -3 -2 -4.5t-4 -2t-6 -1t-5 -0.5h-1h-31h-1q-17 2 -17 8t7 12.5t7 7.5q4 8 4 24v1
q1 87 1 185v115q1 18 1 56q2 39 -5 47q-1 1 -11 1q-4 6 -4 9q0 8 8 8q12 0 33 0.5t32 0.5q24 0 29 -15q14 -39 36.5 -121t39 -143t21.5 -65q1 3 7 28q0 2 12.5 57t17.5 81q7 33 16 70.5t15.5 63.5t6.5 27q2 14 24 16q8 1 77 1q24 0 24 -9q0 -4 -1.5 -6.5t-5 -5.5t-4.5 -5
q-4 -4 -6 -18v-1v-69q0 -93 1 -139v-124q-1 -15 -1 -51q0 -15 3 -21z" />
    <glyph glyph-name="EN" unicode="EN" horiz-adv-x="869" 
d="M732 241q40 -28 56.5 -76t7 -100.5t-36 -100.5t-75.5 -82t-109 -39q-43 -4 -94.5 10.5t-75.5 26t-85 43.5q-72 38 -121.5 57t-96.5 20h-4q-56 -2 -81 4h-2q-18 4 -18 20q0 9 4 13q2 2 10 6q10 7 11 9q8 9 8 44q0 331 4 550q2 64 -3 78v0q-4 16 -19 25l-4 2l-1 1
q-12 2 -25.5 2.5t-30.5 -0.5t-24 -1q-40 0 -81.5 -21t-67.5 -59q-17 -25 -21 -62t10 -65q30 -49 87 -41q42 7 44 37q0 8 -6 9.5t-17 -0.5t-12 -2q-24 2 -35 21q-10 19 1.5 39.5t32.5 26.5q21 5 43 -7t33 -31q13 -19 10.5 -44t-12.5 -47.5t-37 -37t-65 -10.5q-60 5 -97 57
q-17 23 -21.5 44t-4.5 58q0 68 69 122t149 54q24 0 76.5 -0.5t68.5 -0.5v-1h13q31 1 130 1h6h117h5h21h1q18 1 28 0q13 -1 20 -7q13 -12 7 -26l-2 -2q-2 -3 -9 -9t-9 -11q-4 -11 -4 -116q0 -3 -0.5 -14t0 -16.5t3.5 -12.5t9 -11q10 -4 10 -13q0 -12 -13 -14q-1 0 -1 -1h-1
q-4 0 -7 -1h-1q-7 0 -12 -1q-27 -1 -68 1h-3q-1 0 -2 1h-2q-5 0 -6 1q-6 1 -6 7v2q1 6 8 13l8 8q8 15 6 83q-1 20 -0.5 35.5t0.5 26.5t-1 18.5t-3.5 12t-8.5 6.5q-4 2 -7 2q-9 2 -47 0h-1q-8 0 -33 -0.5t-42 -0.5h-2q-9 0 -15 -6q-3 -3 -5.5 -8.5t-3 -14.5t-0.5 -14.5v-19
v-18.5q0 -56 -3 -176.5t-3 -150.5h18h64h2q7 0 15 4q17 13 26 39q1 3 1.5 8.5t1.5 8.5t3.5 6.5t7.5 4.5q12 3 20 -2l2 -2q7 -5 10 -17q5 -22 5 -78.5t-3 -75.5q-3 -29 -11 -32h-2v-1h-3q-16 2 -26 17q-2 3 -6.5 18t-12.5 26t-21 12h-2h-30q-15 0 -23 -1h-37v-62v-95v-70v-3
h1q20 -5 48 -14q38 -14 77 -36q14 -8 51.5 -30t58.5 -33t55.5 -25t67.5 -20q83 -14 134 13q28 15 56.5 45t42.5 61q52 114 -22 190q-48 39 -98.5 36t-84.5 -38t-16 -70q8 -18 19 -19q10 -1 25.5 10t19.5 13q14 6 29.5 0t22.5 -20q19 -32 -14 -60q-36 -30 -81 -16
q-33 9 -55 42q-18 26 -20 54.5t9.5 52t31.5 44.5t48.5 32.5t58.5 15.5t62.5 -5.5t60.5 -32.5zM776 772q0 -11 -11.5 -22.5t-12.5 -13.5q-2 -3 -4 -16q0 -24 0.5 -70.5t1.5 -67.5q0 -21 0.5 -83.5t0.5 -90.5q0 -20 -1 -30v-27v-5q2 -6 7 -8q9 -4 11 -9q2 -3 2 -10
q-3 -10 -3 -11q-4 -6 -27 -6h-38q0 1 -1 2q-13 5 -24 25q-1 0 -1 1q-12 21 -26 58q-92 248 -97 252q-1 -1 -1 -2v-7v-4q0 -102 -3 -258q2 -12 3 -16q0 -1 12.5 -13t12.5 -23q0 -5 -1.5 -8t-5.5 -4t-6.5 -1.5t-8 -1t-6.5 -0.5h-2h-52h-1q-2 0 -6 0.5t-6.5 0.5t-6 1t-5.5 2.5
t-3.5 4t-1.5 6.5q0 11 12.5 23t12.5 13q4 8 6 43v1q1 53 1 83.5v36.5t0.5 16.5t0.5 33.5q0 17 1 51.5t1 51.5q0 73 -9 83q-2 3 -19 3q-6 10 -6 17q0 13 14 13q22 0 68 2q6 1 10.5 0t10.5 -1q5 0 16.5 -24.5t25.5 -61t29.5 -80t28 -80t21.5 -62.5l9 -26l-2 141v14l-2 84
q0 30 -5 43q-1 0 -1 1q-1 2 -13 13.5t-12 22.5q0 3 1 5t2.5 3.5t3 2.5t4.5 1.5t5 0.5t5.5 0.5t4.5 0.5h1q1 1 2 1h1h52h2q2 0 8.5 -1t9.5 -1.5t6.5 -4t3.5 -8.5z" />
    <glyph glyph-name="EO" unicode="EO" horiz-adv-x="878" 
d="M741 241q40 -28 56.5 -76t7 -100.5t-36 -100.5t-75.5 -82t-109 -39q-43 -4 -94.5 10.5t-75.5 26t-85 43.5q-72 38 -121.5 57t-96.5 20h-4q-56 -2 -81 4h-2q-18 4 -18 20q0 9 4 13q2 2 10 6q10 7 11 9q8 9 8 44q0 331 4 550q2 64 -3 78v0q-4 16 -19 25l-4 2l-1 1
q-12 2 -25.5 2.5t-30.5 -0.5t-24 -1q-40 0 -81.5 -21t-67.5 -59q-17 -25 -21 -62t10 -65q30 -49 87 -41q42 7 44 37q0 8 -6 9.5t-17 -0.5t-12 -2q-24 2 -35 21q-10 19 1.5 39.5t32.5 26.5q21 5 43 -7t33 -31q13 -19 10.5 -44t-12.5 -47.5t-37 -37t-65 -10.5q-60 5 -97 57
q-17 23 -21.5 44t-4.5 58q0 68 69 122t149 54q24 0 76.5 -0.5t68.5 -0.5v-1h13q31 1 130 1h6h117h5h21h1q18 1 28 0q13 -1 20 -7q13 -12 7 -26l-2 -2q-2 -3 -9 -9t-9 -11q-4 -11 -4 -116q0 -3 -0.5 -14t0 -16.5t3.5 -12.5t9 -11q10 -4 10 -13q0 -12 -13 -14q-1 0 -1 -1h-1
q-4 0 -7 -1h-1q-7 0 -12 -1q-28 -1 -68 1h-3q-1 0 -3 1h-1q-5 0 -6 1q-6 1 -6 7v2q1 6 8 13l8 8q8 15 6 83q-1 20 -0.5 35.5t0.5 26.5t-1 18.5t-3.5 12t-8.5 6.5q-4 2 -7 2q-9 2 -47 0h-1q-8 0 -33 -0.5t-42 -0.5h-2q-9 0 -15 -6q-3 -3 -5.5 -8.5t-3 -14.5t-0.5 -14.5v-19
v-18.5q0 -56 -3 -176.5t-3 -150.5h18h28h23h13h2q7 0 15 4q17 13 26 39q1 3 1.5 8.5t1.5 8.5t3.5 6.5t7.5 4.5q12 3 20 -2l2 -2q7 -5 10 -17q5 -22 5 -78.5t-3 -75.5q-3 -29 -11 -32h-2v-1h-3q-16 2 -26 17q-2 3 -6.5 18t-12.5 26t-21 12h-2h-30q-15 0 -23 -1h-37v-62v-95
v-70v-3h1q20 -5 48 -14q38 -14 77 -36q14 -8 51.5 -30t58.5 -33t55.5 -25t67.5 -20q83 -14 134 13q28 15 56.5 45t42.5 61q52 114 -22 190q-48 39 -98.5 36t-84.5 -38t-16 -70q8 -18 19 -19q10 -1 25.5 10t19.5 13q14 6 29.5 0t22.5 -20q19 -32 -14 -60q-36 -30 -81 -16
q-33 10 -55 42q-18 26 -20 54.5t9.5 52t31.5 44.5t48.5 32.5t58.5 15.5t62.5 -5.5t60.5 -32.5zM507 386q-43 90 -31 187q18 143 92 194q23 16 63 21q54 5 92.5 -29t51.5 -89q6 -24 7 -38q2 -31 3.5 -71t-7 -84.5t-21.5 -82.5t-41 -63.5t-65 -28.5q-46 -3 -85 19.5t-59 64.5z
M586 600q-5 -73 -3 -98l1 -7q2 -27 4 -44t8 -43.5t18.5 -43t30.5 -20.5q8 -2 11 -2q41 0 62 85q6 27 15 77q17 112 -11 190q-17 44 -41 47q-5 1 -15 1q-36 0 -55 -33.5t-24 -106.5z" />
    <glyph glyph-name="ES" unicode="ES" horiz-adv-x="872" 
d="M735 241q40 -28 56.5 -76t7 -100.5t-36 -100.5t-75.5 -82t-109 -39q-43 -4 -94.5 10.5t-75.5 26t-85 43.5q-72 38 -121.5 57t-96.5 20h-4q-56 -2 -81 4h-2q-18 4 -18 20q0 9 4 13q2 2 10 6q10 7 11 9q8 9 8 44q0 331 4 550q2 64 -3 78v0q-4 16 -19 25l-4 2l-1 1
q-12 2 -25.5 2.5t-30.5 -0.5t-24 -1q-40 0 -81.5 -21t-67.5 -59q-17 -25 -21 -62t10 -65q30 -49 87 -41q42 7 44 37q0 8 -6 9.5t-17 -0.5t-12 -2q-24 2 -35 21q-10 19 1.5 39.5t32.5 26.5q21 5 43 -7t33 -31q13 -19 10.5 -44t-12.5 -47.5t-37 -37t-65 -10.5q-60 5 -97 57
q-17 23 -21.5 44t-4.5 58q0 68 69 122t149 54q24 0 76.5 -0.5t68.5 -0.5v-1h13q31 1 130 1h6h117h5h21h1q18 1 28 0q13 -1 20 -7q13 -12 7 -26l-2 -2q-2 -3 -9 -9t-9 -11q-4 -11 -4 -116q0 -3 -0.5 -14t0 -16.5t3.5 -12.5t9 -11q10 -4 10 -13q0 -12 -13 -14q-1 0 -1 -1h-1
q-4 0 -7 -1h-1q-7 0 -12 -1q-28 -1 -68 1h-3q-1 0 -3 1h-1q-5 0 -6 1q-6 1 -6 7v2q1 6 8 13l8 8q8 15 6 83q-1 20 -0.5 35.5t0.5 26.5t-1 18.5t-3.5 12t-8.5 6.5q-4 2 -7 2q-9 2 -47 0h-1q-8 0 -33 -0.5t-42 -0.5h-2q-9 0 -15 -6q-3 -3 -5.5 -8.5t-3 -14.5t-0.5 -14.5v-19
v-18.5q0 -56 -3 -176.5t-3 -150.5h18h28h23h13h2q7 0 15 4q17 13 26 39q1 3 1.5 8.5t1.5 8.5t3.5 6.5t7.5 4.5q12 3 20 -2l2 -2q7 -5 10 -17q5 -22 5 -78.5t-3 -75.5q-3 -29 -11 -32h-2v-1h-3q-16 2 -26 17q-2 3 -6.5 18t-12.5 26t-21 12h-2h-30q-15 0 -23 -1h-37v-62v-95
v-70v-3h1q20 -5 48 -14q38 -14 77 -36q14 -8 51.5 -30t58.5 -33t55.5 -25t67.5 -20q83 -14 134 13q28 15 56.5 45t42.5 61q52 114 -22 190q-48 39 -98.5 36t-84.5 -38t-16 -70q8 -18 19 -19q10 -1 25.5 10t19.5 13q14 6 29.5 0t22.5 -20q19 -32 -14 -60q-36 -30 -81 -16
q-33 9 -55 42q-18 26 -20 54.5t9.5 52t31.5 44.5t48.5 32.5t58.5 15.5t62.5 -5.5t60.5 -32.5zM650 681q2 8 10 13q20 15 25 30q3 9 -1 19t-13 13q-15 5 -30 -10q-23 -24 -12 -63q3 -10 8 -19t13.5 -18.5t12.5 -13.5t16.5 -15t15.5 -13q66 -58 72 -140q6 -98 -82 -149
q-56 -30 -114.5 -3.5t-79.5 85.5q-13 30 -10.5 74t24.5 70q22 20 53 21.5t54 -19.5t13 -53q-7 -21 -33 -29t-35 16q-4 12 6.5 21t11.5 11q4 8 -2.5 16.5t-16.5 8.5q-11 0 -23 -21q-20 -34 -12.5 -76.5t38.5 -67.5q21 -16 47.5 -19.5t50.5 8.5q49 24 46 67q0 11 -2 21.5
t-6 21t-7.5 19t-10.5 19.5t-10.5 17t-13 18t-13 16t-14.5 17t-13 16q-67 80 -35 151q12 27 40.5 40.5t57.5 7.5q45 -11 55 -73q1 -14 2 -31t-7.5 -30t-26.5 -11q-16 1 -34 11.5t-15 25.5z" />
    <glyph glyph-name="eT" unicode="eT" horiz-adv-x="923" 
d="M738 241q40 -28 56.5 -76t7 -100.5t-36 -100.5t-75.5 -82t-109 -39q-43 -4 -94.5 10.5t-75.5 26t-85 43.5q-72 38 -121.5 57t-96.5 20h-4q-56 -2 -81 4h-2q-18 4 -18 20q0 9 4 13q2 2 10 6q10 7 11 9q8 9 8 44q0 331 4 550q2 64 -3 78v0q-4 16 -19 25l-4 2l-1 1
q-12 2 -25.5 2.5t-30.5 -0.5t-24 -1q-40 0 -81.5 -21t-67.5 -59q-17 -25 -21 -62t10 -65q30 -49 87 -41q42 7 44 37q0 8 -6 9.5t-17 -0.5t-12 -2q-24 2 -35 21q-10 19 1.5 39.5t32.5 26.5q21 5 43 -7t33 -31q13 -19 10.5 -44t-12.5 -47.5t-37 -37t-65 -10.5q-60 5 -97 57
q-17 23 -21.5 44t-4.5 58q0 68 69 122t149 54q24 0 76.5 -0.5t68.5 -0.5v-1h13q31 1 130 1h6h117h5h21h1q18 1 28 0q13 -1 20 -7q13 -12 7 -26l-2 -2q-2 -3 -9 -9t-9 -11q-4 -11 -4 -116q0 -3 -0.5 -14t0 -16.5t3.5 -12.5t9 -11q10 -4 10 -13q0 -12 -13 -14q-1 0 -1 -1h-1
q-4 0 -7 -1h-1q-7 0 -12 -1q-28 -1 -68 1h-3q-1 0 -2 1h-2q-5 0 -6 1q-6 1 -6 7v2q1 6 8 13l8 8q8 15 6 83q-1 20 -0.5 35.5t0.5 26.5t-1 18.5t-3.5 12t-8.5 6.5q-4 2 -7 2q-9 2 -47 0h-1q-8 0 -33 -0.5t-42 -0.5h-2q-9 0 -15 -6q-3 -3 -5.5 -8.5t-3 -14.5t-0.5 -14.5v-19
v-18.5q0 -56 -3 -176.5t-3 -150.5h18h28h23h13h2q7 0 15 4q17 13 26 39q1 3 1.5 8.5t1.5 8.5t3.5 6.5t7.5 4.5q12 3 20 -2l2 -2q7 -5 10 -17q5 -22 5 -78.5t-3 -75.5q-3 -29 -11 -32h-2v-1h-3q-16 2 -26 17q-2 3 -6.5 18t-12.5 26t-21 12h-2h-30q-15 0 -23 -1h-37v-62v-95
v-70v-3h1q20 -5 48 -14q38 -14 77 -36q14 -8 51.5 -30t58.5 -33t55.5 -25t67.5 -20q83 -14 134 13q28 15 56.5 45t42.5 61q52 114 -22 190q-48 39 -98.5 36t-84.5 -38t-16 -70q8 -18 19 -19q10 -1 25.5 10t19.5 13q14 6 29.5 0t22.5 -20q19 -32 -14 -60q-36 -30 -81 -16
q-33 10 -55 42q-18 26 -20 54.5t9.5 52t31.5 44.5t48.5 32.5t58.5 15.5t62.5 -5.5t60.5 -32.5zM449 689q-6 7 -3 26q5 24 7 29q2 4 5 17t3 15q4 8 8 10q1 2 10 0.5t10 -1.5q8 1 24 1h67h-2h71h70h-1h67q15 0 23 -1q2 0 11 1.5t9 -0.5q4 -2 8 -10q2 -4 5 -17t3 -15
q5 -12 7 -29q5 -18 -2 -26l-2 -1q-6 -3 -11 -1q-6 3 -10 10q-2 4 -2 5q-12 24 -17 29q-12 14 -35 16q-56 2 -82 1h-1l-1 -1q-1 -2 -3 -21v-8q0 -64 -2 -190q0 -73 -1 -109h1v-48q0 -8 2 -28q3 -7 11 -12q8 -6 8 -12t-2 -7q-1 -7 -17 -7q-8 -2 -35 -2h-1h-2q-25 0 -35 2
q-16 0 -17 7q-2 2 -2 7q0 7 9 12q8 5 11 12q1 10 1 28q1 23 1 48q0 18 -0.5 54.5t-0.5 54.5q0 64 -2 190v8q0 12 -3 21q-1 1 -2 1q-25 1 -82 -1q-22 -2 -35 -16q-4 -4 -16 -29q-2 -2 -2 -5q-6 -8 -10 -10q-7 -2 -11 1z" />
    <glyph glyph-name="et" unicode="et" horiz-adv-x="858" 
d="M741 241q40 -28 56.5 -76t7 -100.5t-36 -100.5t-75.5 -82t-109 -39q-43 -4 -94.5 10.5t-75.5 26t-85 43.5q-72 38 -121.5 57t-96.5 20h-4q-56 -2 -81 4h-2q-18 4 -18 20q0 9 4 13q2 2 10 6q10 7 11 9q8 9 8 44q0 331 4 550q2 64 -3 78v0q-4 16 -19 25l-4 2l-1 1
q-12 2 -25.5 2.5t-30.5 -0.5t-24 -1q-40 0 -81.5 -21t-67.5 -59q-17 -25 -21 -62t10 -65q30 -49 87 -41q42 7 44 37q0 8 -6 9.5t-17 -0.5t-12 -2q-24 2 -35 21q-10 19 1.5 39.5t32.5 26.5q21 5 43 -7t33 -31q13 -19 10.5 -44t-12.5 -47.5t-37 -37t-65 -10.5q-60 5 -97 57
q-17 23 -21.5 44t-4.5 58q0 68 69 122t149 54q24 0 76.5 -0.5t68.5 -0.5v-1h13q31 1 130 1h6h117h5h21h1q18 1 28 0q13 -1 20 -7q13 -12 7 -26l-2 -2q-2 -3 -9 -9t-9 -11q-4 -11 -4 -116q0 -3 -0.5 -14t0 -16.5t3.5 -12.5t9 -11q10 -4 10 -13q0 -12 -13 -14q-1 0 -1 -1h-1
q-4 0 -7 -1h-1q-7 0 -12 -1q-28 -1 -68 1h-3q-1 0 -3 1h-1q-5 0 -6 1q-6 1 -6 7v2q1 6 8 13l8 8q8 15 6 83q-1 20 -0.5 35.5t0.5 26.5t-1 18.5t-3.5 12t-8.5 6.5q-4 2 -7 2q-9 2 -47 0h-1q-8 0 -33 -0.5t-42 -0.5h-2q-9 0 -15 -6q-3 -3 -5.5 -8.5t-3 -14.5t-0.5 -14.5v-19
v-18.5q0 -56 -3 -176.5t-3 -150.5h18h28h23h13h2q7 0 15 4q17 13 26 39q1 3 1.5 8.5t1.5 8.5t3.5 6.5t7.5 4.5q12 3 20 -2l2 -2q7 -5 10 -17q5 -22 5 -78.5t-3 -75.5q-3 -29 -11 -32h-2v-1h-3q-16 2 -26 17q-2 3 -6.5 18t-12.5 26t-21 12h-2h-30q-15 0 -23 -1h-37v-62v-95
v-70v-3h1q20 -5 48 -14q38 -14 77 -36q14 -8 51.5 -30t58.5 -33t55.5 -25t67.5 -20q83 -14 134 13q28 15 56.5 45t42.5 61q52 114 -22 190q-48 39 -98.5 36t-84.5 -38t-16 -70q8 -18 19 -19q10 -1 25.5 10t19.5 13q14 6 29.5 0t22.5 -20q19 -32 -14 -60q-36 -30 -81 -16
q-33 10 -55 42q-18 26 -20 54.5t9.5 52t31.5 44.5t48.5 32.5t58.5 15.5t62.5 -5.5t60.5 -32.5zM1307 1015q5 -41 -6 -73q-15 -45 -57 -71q-12 -6 -24 -10q-21 -6 -41 -5q-16 0 -31 6q-29 10 -44 31q-20 26 -15 60q4 19 10 31q10 16 22 22q21 13 43 7h3q16 -7 23 -23
q2 -6 2 -9q2 -11 -5.5 -21t-18.5 -11q-5 -1 -13.5 0t-12.5 1q-6 0 -10 -3l-3 -3q-5 -7 -2 -17t11 -17q13 -13 34 -16q33 -6 60 13q11 8 17 17q24 32 19 71v3q-4 28 -22 52q-41 52 -112 52q-41 0 -78 -20q-24 -14 -68 -46l-9 -6q-4 -4 -12.5 -10t-10.5 -7q-50 -35 -66 -45
q-15 -10 -47 -30q-36 -22 -95 -52q-22 -10 -38 -20q-19 -10 -22 -21q-2 -5 -2 -15q0 -16 0.5 -49t0.5 -50v-10q0 -30 -0.5 -90.5t-0.5 -91.5q0 -18 -0.5 -54.5t-0.5 -54.5v-49q0 -15 3 -32q3 -10 12 -14q10 -6 10 -14q0 -5 -3 -8q0 -3 -1 -4t-18 -4q-10 -2 -40 -2h-4
q-30 0 -40 2q-18 3 -18 4v1q-1 2 -1 3q-3 3 -3 8q0 8 10 14q8 4 13 14q2 22 2 32v55q0 69 -1 103q0 31 -0.5 91.5t-0.5 90.5q0 9 -0.5 26.5t-0.5 25.5v24q0 18 -4 21q-3 3 -21 -1q-11 -2 -33.5 -9.5t-35.5 -9.5q-38 -7 -66 -7q-82 0 -140 40q-61 42 -58 77q2 13 4 16
q5 9 19 9h2q5 0 13 -4q5 -5 17 -18q10 -13 17 -18q26 -19 55 -28q31 -10 71 -10q56 0 119 20q-3 0 -7 -2q1 0 6 2t8 3q2 0 3 1h2l1 1q14 4 31 11q167 66 314 171q3 2 33 23q52 38 87 58q24 13 48 17q16 4 38 4q39 0 72 -13q39 -17 68 -49q34 -37 40 -87z" />
    <glyph glyph-name="EU" unicode="EU" horiz-adv-x="884" 
d="M747 241q40 -28 56.5 -76t7 -100.5t-36 -100.5t-75.5 -82t-109 -39q-43 -4 -94.5 10.5t-75.5 26t-85 43.5q-72 38 -121.5 57t-96.5 20h-4q-56 -2 -81 4h-2q-18 4 -18 20q0 9 4 13q2 2 10 6q10 7 11 9q8 9 8 44q0 331 4 550q2 64 -3 78v0q-4 16 -19 25l-4 2l-1 1
q-12 2 -25.5 2.5t-30.5 -0.5t-24 -1q-40 0 -81.5 -21t-67.5 -59q-17 -25 -21 -62t10 -65q30 -49 87 -41q42 7 44 37q0 8 -6 9.5t-17 -0.5t-12 -2q-24 2 -35 21q-10 19 1.5 39.5t32.5 26.5q21 5 43 -7t33 -31q13 -19 10.5 -44t-12.5 -47.5t-37 -37t-65 -10.5q-60 5 -97 57
q-17 23 -21.5 44t-4.5 58q0 68 69 122t149 54q24 0 76.5 -0.5t68.5 -0.5v-1h13q31 1 130 1h6h117h5h21h1q18 1 28 0q13 -1 20 -7q13 -12 7 -26l-2 -2q-2 -3 -9 -9t-9 -11q-4 -11 -4 -116q0 -3 -0.5 -14t0 -16.5t3.5 -12.5t9 -11q10 -4 10 -13q0 -12 -13 -14q-1 0 -1 -1h-1
q-4 0 -7 -1h-1q-7 0 -12 -1q-28 -1 -68 1h-3q-1 0 -3 1h-1q-5 0 -6 1q-6 1 -6 7v2q1 6 8 13l8 8q8 15 6 83q-1 20 -0.5 35.5t0.5 26.5t-1 18.5t-3.5 12t-8.5 6.5q-4 2 -7 2q-9 2 -47 0h-1q-8 0 -33 -0.5t-42 -0.5h-2q-9 0 -15 -6q-3 -3 -5.5 -8.5t-3 -14.5t-0.5 -14.5v-19
v-18.5q0 -56 -3 -176.5t-3 -150.5h18h64h2q7 0 15 4q17 13 26 39q1 3 1.5 8.5t1.5 8.5t3.5 6.5t7.5 4.5q12 3 20 -2l2 -2q7 -5 10 -17q5 -22 5 -78.5t-3 -75.5q-3 -29 -11 -32h-2v-1h-3q-16 2 -26 17q-2 3 -6.5 18t-12.5 26t-21 12h-2h-30q-15 0 -23 -1h-37v-62v-95v-70v-3
h1q20 -5 48 -14q38 -14 77 -36q14 -8 51.5 -30t58.5 -33t55.5 -25t67.5 -20q83 -14 134 13q28 15 56.5 45t42.5 61q52 114 -22 190q-48 39 -98.5 36t-84.5 -38t-16 -70q8 -18 19 -19q10 -1 25.5 10t19.5 13q14 6 29.5 0t22.5 -20q19 -32 -14 -60q-36 -30 -81 -16
q-33 10 -55 42q-18 26 -20 54.5t9.5 52t31.5 44.5t48.5 32.5t58.5 15.5t62.5 -5.5t60.5 -32.5zM796 793q1 0 5 -0.5t6 -1t4 -2t2 -4.5q0 -5 -3 -9t-7 -7t-5 -5q-2 -4 -2 -9q0 -16 0.5 -42t0.5 -36v-57v-90q0 -64 -4 -96q-7 -56 -52 -103q-25 -26 -81 -28q-37 0 -74 20
t-53 52q-18 35 -14 114q1 42 1 126v94v17v1v4q0 10 -3 19t-10 13q-8 6 -8 12q0 11 11 13q1 1 4.5 1.5t5.5 0.5q43 4 76 0q1 0 5 -0.5t5.5 -1t3.5 -2.5t2 -5q0 -6 -7 -13l-7 -7q-1 -4 -3 -16v-1v-31v-1v-36q0 -34 -1 -101.5t-1 -100.5q-2 -105 47 -140q23 -17 43 -11t34 22.5
t21 38.5q3 9 5.5 18.5t4 16.5t2.5 17l1.5 15t1 16.5t0.5 15.5v18v18v106v59q0 36 -1 55q0 19 -3 25l-8 7q-8 7 -8 14q0 5 18 8h1h43h1z" />
    <glyph glyph-name="ra" unicode="ra" horiz-adv-x="842" 
d="M705 243q63 -44 66 -133t-49 -160q-21 -31 -48 -52q-55 -47 -126 -53h-3q-61 -5 -118 19t-92 72q-21 29 -31 69.5t-11.5 64.5t0 81.5t1.5 68.5q0 10 -3 21q-14 50 -83 55q-63 0 -63 -4v-9q0 -10 -8 -235v-5q1 -2 8 -7t11 -11t4 -13q0 -8 -9 -11t-39 -3q-6 0 -24.5 0.5
t-31.5 0.5q-39 2 -44 3q-12 4 -11 13q0 5 4 12q3 4 10.5 10.5t8.5 8.5q7 12 16.5 344t-3.5 361l-11.5 11.5t-10.5 19.5q0 11 23 13q19 1 67 0h79q112 -2 159 -27q17 -8 34 -24q47 -47 55 -129t-26 -163.5t-99 -124.5q10 7 32.5 -9.5t30.5 -28.5q17 -23 19.5 -53.5t-5 -78.5
t-8.5 -57q-14 -184 100 -205q83 -14 134 13q29 15 57 44.5t42 60.5q52 115 -22 191q-48 39 -98.5 36t-84.5 -38t-16 -70q8 -18 19 -19q10 -1 25.5 10t19.5 13q14 6 29.5 0t22.5 -20q19 -32 -14 -60q-36 -30 -81 -17q-33 11 -55 42q-18 26 -20 54.5t9.5 52.5t31.5 45
t48.5 32.5t58.5 15.5t62.5 -5.5t60.5 -32.5zM220 297h2h-1h-1zM277 416q21 29 32 63q11 32 14 61q6 54 -7 103q-4 17 -12 33q-1 2 -3 5t-3 5q-2 4 -5 8q-27 41 -91 49q-8 2 -14 2q-32 3 -34 -13q0 -60 -1 -134v-112q0 -19 -0.5 -58t-1.5 -54q0 -6 -0.5 -15t-0.5 -11v-8h10
q2 0 5 0.5t4 0.5q1 1 4 1t5 1q3 0 9 2q1 1 3 1t3 1q1 0 1 0.5t1 0.5t3.5 1t3.5 2q3 1 7 3l6 3q4 2 6 4q9 6 10 7q1 0 1 0.5t1 0.5l1 1q1 1 3.5 2.5t3.5 3.5q14 12 20 19t16 21zM738 323q1 -6 -3 -8.5t-11 -3.5q-34 -5 -70 -1q-1 0 -5 0.5t-5.5 1t-4 2t-2.5 4.5q-1 6 7 13.5
t6 18.5q-9 80 -11 86l-105 -4q-1 0 -11 -33.5t-10 -35.5q-5 -18 -3 -23q1 -3 7 -5.5t8 -6.5q3 -8 -4 -12.5t-18.5 -5t-21.5 -0.5t-15 1q-12 2 -12 11q0 4 1.5 6.5t5 5.5t4.5 4q9 13 24 65t38 139t39 141q20 64 19 83q-1 17 3 22t26 6q21 1 28.5 -20t22.5 -121
q24 -159 48 -296q0 -3 3 -11q3 -7 12 -11.5t10 -11.5zM562 476q10 0 30 0.5t28 1.5l-1 13q-2 16 -4.5 41t-5.5 58.5t-5 50.5q-2 -8 -5.5 -23t-5.5 -21q-25 -100 -31 -121z" />
    <glyph glyph-name="rb" unicode="rb" horiz-adv-x="842" 
d="M705 243q63 -44 66 -133t-49 -160q-21 -31 -48 -52q-55 -47 -126 -53h-3q-61 -5 -118 19t-92 72q-21 29 -31 69.5t-11.5 64.5t0 81.5t1.5 68.5q0 10 -3 21q-14 50 -83 55q-63 0 -63 -4v-9q0 -10 -8 -235v-5q1 -2 8 -7t11 -11t4 -13q0 -8 -9 -11t-39 -3q-6 0 -24.5 0.5
t-31.5 0.5q-39 2 -44 3q-12 4 -11 13q0 5 4 12q3 4 10.5 10.5t8.5 8.5q7 12 16.5 344t-3.5 361l-11.5 11.5t-10.5 19.5q0 11 23 13q19 1 67 0h79q112 -2 159 -27q17 -8 34 -24q47 -47 55 -129t-26 -163.5t-99 -124.5q10 7 32.5 -9.5t30.5 -28.5q17 -23 19.5 -53.5t-5 -78.5
t-8.5 -57q-14 -184 100 -205q83 -14 134 13q29 15 57 44.5t42 60.5q52 115 -22 191q-48 39 -98.5 36t-84.5 -38t-16 -70q8 -18 19 -19q10 -1 25.5 10t19.5 13q14 6 29.5 0t22.5 -20q19 -32 -14 -60q-36 -30 -81 -17q-33 11 -55 42q-18 26 -20 54.5t9.5 52.5t31.5 45
t48.5 32.5t58.5 15.5t62.5 -5.5t60.5 -32.5zM220 297h2h-1h-1zM277 416q21 29 32 63q11 32 14 61q6 54 -7 103q-4 17 -12 33q-1 2 -3 5t-3 5q-2 4 -5 8q-27 41 -91 49q-8 2 -14 2q-32 3 -34 -13q0 -60 -1 -134v-112q0 -19 -0.5 -58t-1.5 -54q0 -6 -0.5 -15t-0.5 -11v-8h10
q2 0 5 0.5t4 0.5q1 1 4 1t5 1q3 0 9 2q1 1 3 1t3 1q1 0 1 0.5t1 0.5t3.5 1t3.5 2q3 1 7 3l6 3q4 2 6 4q9 6 10 7q1 0 1 0.5t1 0.5l1 1q1 1 3.5 2.5t3.5 3.5q14 12 20 19t16 21zM675 506q15 -7 30 -20q40 -42 22 -113q-10 -39 -35.5 -51t-72.5 -14q-46 -1 -114 -1
q-22 1 -28.5 2.5t-5.5 7.5q0 5 3 8q2 3 6 6.5t5 4.5q4 8 10 211.5t-2 221.5l-7 7q-7 6 -7 11q0 8 18 8.5t84 -0.5q95 0 131 -37q18 -19 22 -58t-8.5 -87.5t-40.5 -86.5q-2 -3 -6 -8q-8 -10 -4 -12zM662 420q1 21 -3 35t-14.5 20.5t-20.5 9t-28 4.5q-36 0 -36 -2l-2 -148
q1 -1 2 -1q6 -3 34 -1q36 4 49 19q18 22 19 64zM612 536q25 39 39 83.5t14 74.5q0 64 -80 71q-19 3 -20 -8q-1 -212 -3 -241q39 0 50 20z" />
    <glyph glyph-name="rd" unicode="rd" horiz-adv-x="871" 
d="M705 243q63 -44 66 -133t-49 -160q-21 -31 -48 -52q-55 -47 -126 -53h-3q-61 -5 -118 19t-92 72q-21 29 -31 69.5t-11.5 64.5t0 81.5t1.5 68.5q0 10 -3 21q-14 50 -83 55q-63 0 -63 -4v-9q0 -10 -8 -235v-5q1 -2 8 -7t11 -11t4 -13q0 -8 -9 -11t-39 -3q-6 0 -24.5 0.5
t-31.5 0.5q-39 2 -44 3q-12 4 -11 13q0 5 4 12q3 4 10.5 10.5t8.5 8.5q7 12 16.5 344t-3.5 361l-11.5 11.5t-10.5 19.5q0 11 23 13q19 1 67 0h79q112 -2 159 -27q17 -8 34 -24q47 -47 55 -129t-26 -163.5t-99 -124.5q10 7 32.5 -9.5t30.5 -28.5q17 -23 19.5 -53.5t-5 -78.5
t-8.5 -57q-14 -184 100 -205q83 -14 134 13q29 15 57 44.5t42 60.5q52 115 -22 191q-48 39 -98.5 36t-84.5 -38t-16 -70q8 -18 19 -19q10 -1 25.5 10t19.5 13q14 6 29.5 0t22.5 -20q19 -32 -14 -60q-36 -30 -81 -17q-33 11 -55 42q-18 26 -20 54.5t9.5 52.5t31.5 45
t48.5 32.5t58.5 15.5t62.5 -5.5t60.5 -32.5zM220 297h2h-1h-1zM277 416q21 29 32 63q11 32 14 61q6 54 -7 103q-4 17 -12 33q-1 2 -3 5t-3 5q-2 4 -5 8q-27 41 -91 49q-8 2 -14 2q-32 3 -34 -13q0 -60 -1 -134v-112q0 -19 -0.5 -58t-1.5 -54q0 -6 -0.5 -15t-0.5 -11v-8h10
q2 0 5 0.5t4 0.5q1 1 4 1t5 1q3 0 9 2q1 1 3 1t3 1q1 0 1 0.5t1 0.5t3.5 1t3.5 2q3 1 7 3l6 3q4 2 6 4q9 6 10 7q1 0 1 0.5t1 0.5l1 1q1 1 3.5 2.5t3.5 3.5q14 12 20 19t16 21zM788 668q13 -32 13 -100q0 -149 -62.5 -207.5t-193.5 -53.5q-14 -1 -38.5 0t-31.5 2
q-10 3 -2 15q1 2 5.5 6t6.5 7q6 13 8.5 28t2 41.5t-0.5 30.5q3 111 3 112q0 34 0.5 67t1.5 52.5t1 37.5v27t-1.5 17.5t-4.5 12t-8 6.5q-7 5 -8 8q-2 14 11 16q15 3 56.5 3t79.5 -5q55 -10 98 -41.5t64 -81.5zM625 353q109 47 97 234q-3 50 -13 83.5t-39 56.5q-31 23 -66 29
q-28 4 -30 3v-1q-8 -2 -8 -11q-1 -15 -3.5 -70.5t-5 -133.5t-1.5 -138.5t7 -62.5q13 -5 62 11z" />
    <glyph glyph-name="re" unicode="re" horiz-adv-x="842" 
d="M705 243q63 -44 66 -133t-49 -160q-21 -31 -48 -52q-55 -47 -126 -53h-3q-61 -5 -118 19t-92 72q-21 29 -31 69.5t-11.5 64.5t0 81.5t1.5 68.5q0 10 -3 21q-14 50 -83 55q-63 0 -63 -4v-9q0 -10 -8 -235v-5q1 -2 8 -7t11 -11t4 -13q0 -8 -9 -11t-39 -3q-6 0 -24.5 0.5
t-31.5 0.5q-39 2 -44 3q-12 4 -11 13q0 5 4 12q3 4 10.5 10.5t8.5 8.5q7 12 16.5 344t-3.5 361l-11.5 11.5t-10.5 19.5q0 11 23 13q19 1 67 0h79q112 -2 159 -27q17 -8 34 -24q47 -47 55 -129t-26 -163.5t-99 -124.5q10 7 32.5 -9.5t30.5 -28.5q17 -23 19.5 -53.5t-5 -78.5
t-8.5 -57q-14 -184 100 -205q83 -14 134 13q29 15 57 44.5t42 60.5q52 115 -22 191q-48 39 -98.5 36t-84.5 -38t-16 -70q8 -18 19 -19q10 -1 25.5 10t19.5 13q14 6 29.5 0t22.5 -20q19 -32 -14 -60q-36 -30 -81 -17q-33 11 -55 42q-18 26 -20 54.5t9.5 52.5t31.5 45
t48.5 32.5t58.5 15.5t62.5 -5.5t60.5 -32.5zM220 297h2h-1h-1zM277 416q21 29 32 63q11 32 14 61q6 54 -7 103q-4 17 -12 33q-1 2 -3 5t-3 5q-2 4 -5 8q-27 41 -91 49q-8 2 -14 2q-32 3 -34 -13q0 -60 -1 -134v-112q0 -19 -0.5 -58t-1.5 -54q0 -6 -0.5 -15t-0.5 -11v-8h10
q2 0 5 0.5t4 0.5q1 1 4 1t5 1q3 0 9 2q1 1 3 1t3 1q1 0 1 0.5t1 0.5t3.5 1t3.5 2q3 1 7 3l6 3q4 2 6 4q9 6 10 7q1 0 1 0.5t1 0.5l1 1q1 1 3.5 2.5t3.5 3.5q14 12 20 19t16 21zM723 390q2 -2 4 -6q3 -6 3 -48q0 -2 -0.5 -5.5t-0.5 -6t-0.5 -5.5t-2 -5t-3 -3.5t-4.5 -1.5h-28
h-49h-53q-79 2 -84 3q-5 0 -12 1q-19 5 -19 22q0 12 14 21q9 5 14 15.5t6.5 26t2 27.5t-0.5 31t-1 27q0 7 -1 69t-1 137q0 24 -4.5 37.5t-10 16t-11 6.5t-6.5 11q-2 12 4 21.5t20 10.5q4 0 44.5 -0.5t45.5 0.5q15 0 45 0.5t45 0.5q34 0 37 -1q14 -5 14 -20q0 -1 -6 -28v-8.5
t-0.5 -10.5t-2.5 -9q-3 -11 -15 -14q-15 -4 -21 6q-2 5 -5 14t-4 11q-5 16 -16 20q-3 1 -9 1q-22 3 -52 1q-12 0 -19.5 -5t-10 -17t-3 -18t-0.5 -23q0 -74 1 -138q47 0 47 10q0 13 5 23q5 12 25 7.5t20 -26.5q0 -19 -0.5 -35.5t-0.5 -30.5q0 -37 -17 -36q-32 3 -32 29
q0 4 -0.5 6t-0.5 4t-1.5 3t-3 1.5t-4.5 0.5t-6 -0.5t-9 -0.5h-11q-2 0 -12 -2q-1 -96 -1 -112q0 -3 -0.5 -12t-0.5 -14.5t2 -11.5t7 -9q7 -3 50 -3q4 0 14 -0.5t16 -0.5t13.5 1.5t12.5 5.5q12 11 17 41q5 10 17 6q8 -4 10 -8z" />
    <glyph glyph-name="ri" unicode="ri" horiz-adv-x="842" 
d="M705 243q63 -44 66 -133t-49 -160q-21 -31 -48 -52q-55 -47 -126 -53h-3q-61 -5 -118 19t-92 72q-21 29 -31 69.5t-11.5 64.5t0 81.5t1.5 68.5q0 10 -3 21q-14 50 -83 55q-63 0 -63 -4v-9q0 -10 -8 -235v-5q1 -2 8 -7t11 -11t4 -13q0 -8 -9 -11t-39 -3q-6 0 -24.5 0.5
t-31.5 0.5q-39 2 -44 3q-12 4 -11 13q0 5 4 12q3 4 10.5 10.5t8.5 8.5q7 12 16.5 344t-3.5 361l-11.5 11.5t-10.5 19.5q0 11 23 13q19 1 67 0h79q112 -2 159 -27q17 -8 34 -24q47 -47 55 -129t-26 -163.5t-99 -124.5q10 7 32.5 -9.5t30.5 -28.5q17 -23 19.5 -53.5t-5 -78.5
t-8.5 -57q-14 -184 100 -205q83 -14 134 13q29 15 57 44.5t42 60.5q52 115 -22 191q-48 39 -98.5 36t-84.5 -38t-16 -70q8 -18 19 -19q10 -1 25.5 10t19.5 13q14 6 29.5 0t22.5 -20q19 -32 -14 -60q-36 -30 -81 -17q-33 11 -55 42q-18 26 -20 54.5t9.5 52.5t31.5 45
t48.5 32.5t58.5 15.5t62.5 -5.5t60.5 -32.5zM220 297h2h-1h-1zM277 416q21 29 32 63q11 32 14 61q6 54 -7 103q-4 17 -12 33q-1 2 -3 5t-3 5q-2 4 -5 8q-27 41 -91 49q-8 2 -14 2q-32 3 -34 -13q0 -60 -1 -134v-112q0 -19 -0.5 -58t-1.5 -54q0 -6 -0.5 -15t-0.5 -11v-8h10
q2 0 5 0.5t4 0.5q1 1 4 1t5 1q3 0 9 2q1 1 3 1t3 1q1 0 1 0.5t1 0.5t3.5 1t3.5 2q3 1 7 3l6 3q4 2 6 4q9 6 10 7q1 0 1 0.5t1 0.5l1 1q1 1 3.5 2.5t3.5 3.5q14 12 20 19t16 21zM645 355q15 -9 15 -20q0 -18 -20 -22q-8 -2 -19 -3q-33 -3 -61 0h-4q-1 0 -6 0.5t-7 0.5t-6 1
t-6 2.5t-3.5 4t-1.5 5.5q0 10 5.5 18t13.5 14t9 8q5 11 5 60q0 24 0.5 51.5t0.5 32.5q1 37 1 111q0 22 -2 75q-2 25 -5 32q-4 14 -18 22q-15 9 -15 20q0 18 20 22q7 1 20 3q30 3 55 0h5q2 0 9 -1t10 -1.5t6.5 -3.5t3.5 -8q0 -8 -5 -14.5t-11.5 -12.5t-8.5 -8q-5 -11 -5 -246
q1 -10 1 -63v-26q2 -25 5 -32q4 -14 19 -22z" />
    <glyph glyph-name="rm" unicode="rm" horiz-adv-x="939" 
d="M705 243q63 -44 66 -133t-49 -160q-21 -31 -48 -52q-55 -47 -126 -53h-3q-61 -5 -118 19t-92 72q-21 29 -31 69.5t-11.5 64.5t0 81.5t1.5 68.5q0 10 -3 21q-14 50 -83 55q-63 0 -63 -4v-9q0 -10 -8 -235v-5q1 -2 8 -7t11 -11t4 -13q0 -8 -9 -11t-39 -3q-6 0 -24.5 0.5
t-31.5 0.5q-39 2 -44 3q-12 4 -11 13q0 5 4 12q3 4 10.5 10.5t8.5 8.5q7 12 16.5 344t-3.5 361l-11.5 11.5t-10.5 19.5q0 11 23 13q19 1 67 0h79q112 -2 159 -27q17 -8 34 -24q47 -47 55 -129t-26 -163.5t-99 -124.5q10 7 32.5 -9.5t30.5 -28.5q17 -23 19.5 -53.5t-5 -78.5
t-8.5 -57q-14 -184 100 -205q83 -14 134 13q29 15 57 44.5t42 60.5q52 115 -22 191q-48 39 -98.5 36t-84.5 -38t-16 -70q8 -18 19 -19q10 -1 25.5 10t19.5 13q14 6 29.5 0t22.5 -20q19 -32 -14 -60q-36 -30 -81 -17q-33 11 -55 42q-18 26 -20 54.5t9.5 52.5t31.5 45
t48.5 32.5t58.5 15.5t62.5 -5.5t60.5 -32.5zM220 297h2h-1h-1zM277 416q21 29 32 63q11 32 14 61q6 54 -7 103q-4 17 -12 33q-1 2 -3 5t-3 5q-2 4 -5 8q-27 41 -91 49q-8 2 -14 2q-32 3 -34 -13q0 -60 -1 -134v-112q0 -19 -0.5 -58t-1.5 -54q0 -6 -0.5 -15t-0.5 -11v-8h10
q2 0 5 0.5t4 0.5q1 1 4 1t5 1q3 0 9 2q1 1 3 1t3 1q1 0 1 0.5t1 0.5t3.5 1t3.5 2q3 1 7 3l6 3q4 2 6 4q9 6 10 7q1 0 1 0.5t1 0.5l1 1q1 1 3.5 2.5t3.5 3.5q14 12 20 19t16 21zM855 342q1 -2 4 -5t5 -5.5t3.5 -6t-0.5 -6.5t-19 -6q-6 0 -28 -0.5t-27 -0.5h-13t-19 2t-11 6
q-10 10 5 19q8 6 10 13q1 2 1.5 6.5t0.5 6.5v53v46v6v216q-3 6 -5 1q-27 -117 -75 -330q-11 -42 -34 -42q-9 0 -14 2t-12.5 14t-15.5 36q-24 76 -84 303q-4 14 -6 16l-1 -1v-1q1 -53 0 -106v-95v-55q0 -9 -0.5 -34.5t-0.5 -41.5q0 -5 2 -9q1 -1 5 -4t7 -7t3 -8q0 -3 -2 -5
t-4 -2.5t-6 -1t-5 -0.5h-1h-31h-1q-1 0 -5 0.5t-6 1t-4 2.5t-2 5q0 4 3 8t7 7t5 4q2 4 4 25q0 51 0.5 114.5t0.5 70.5v3v7.5v11.5v14.5v15.5v17v17v15.5v13.5q0 38 1 57q0 40 -6 46q-1 1 -2.5 1t-4 0.5t-4.5 0.5q-3 3 -3 9q0 7 8 7q11 0 32 1t33 1q23 0 29 -16
q14 -39 36 -120.5t38.5 -142.5t21.5 -66q1 2 7 28q1 4 6.5 29.5t13 58t11.5 50.5q7 33 16 71t14.5 63t6.5 28q3 13 25 16q12 1 39 1t37 -1q24 0 24 -9q0 -5 -11 -16q-5 -5 -5 -19v-1q-1 -27 -1 -69q0 -92 1 -139v-124q0 -7 -0.5 -24t-0.5 -26q2 -18 4 -21z" />
    <glyph glyph-name="rn" unicode="rn" horiz-adv-x="842" 
d="M705 243q63 -44 66 -133t-49 -160q-21 -31 -48 -52q-55 -47 -126 -53h-3q-61 -5 -118 19t-92 72q-21 29 -31 69.5t-11.5 64.5t0 81.5t1.5 68.5q0 10 -3 21q-14 50 -83 55q-63 0 -63 -4v-9q0 -10 -8 -235v-5q1 -2 8 -7t11 -11t4 -13q0 -8 -9 -11t-39 -3q-6 0 -24.5 0.5
t-31.5 0.5q-39 2 -44 3q-12 4 -11 13q0 5 4 12q3 4 10.5 10.5t8.5 8.5q7 12 16.5 344t-3.5 361l-11.5 11.5t-10.5 19.5q0 11 23 13q19 1 67 0h79q112 -2 159 -27q17 -8 34 -24q47 -47 55 -129t-26 -163.5t-99 -124.5q10 7 32.5 -9.5t30.5 -28.5q17 -23 19.5 -53.5t-5 -78.5
t-8.5 -57q-14 -184 100 -205q83 -14 134 13q29 15 57 44.5t42 60.5q52 115 -22 191q-48 39 -98.5 36t-84.5 -38t-16 -70q8 -18 19 -19q10 -1 25.5 10t19.5 13q14 6 29.5 0t22.5 -20q19 -32 -14 -60q-36 -30 -81 -17q-33 11 -55 42q-18 26 -20 54.5t9.5 52.5t31.5 45
t48.5 32.5t58.5 15.5t62.5 -5.5t60.5 -32.5zM220 297h2h-1h-1zM277 416q21 29 32 63q11 32 14 61q6 54 -7 103q-4 17 -12 33q-1 2 -3 5t-3 5q-2 4 -5 8q-27 41 -91 49q-8 2 -14 2q-32 3 -34 -13q0 -60 -1 -134v-112q0 -19 -0.5 -58t-1.5 -54q0 -6 -0.5 -15t-0.5 -11v-8h10
q2 0 5 0.5t4 0.5q1 1 4 1t5 1q3 0 9 2q1 1 3 1t3 1q1 0 1 0.5t1 0.5t3.5 1t3.5 2q3 1 7 3l6 3q4 2 6 4q9 6 10 7q1 0 1 0.5t1 0.5l1 1q1 1 3.5 2.5t3.5 3.5q14 12 20 19t16 21zM763 778q0 -11 -11.5 -22.5t-12.5 -13.5q-2 -3 -4 -16q0 -24 0.5 -70.5t1.5 -67.5
q0 -21 0.5 -83.5t0.5 -90.5v-30q-1 -9 -1 -27q0 -3 1 -5q0 -6 6 -8q9 -4 12 -9q1 -3 1 -10q0 -6 -3 -12q-4 -5 -27 -5h-38q-1 0 -0.5 0.5t-0.5 1.5q-13 5 -24 25h-1q-15 27 -26 59q-92 248 -97 252q-1 -1 -1 -2v-7v-4q0 -102 -3 -258q2 -12 4 -17l12 -12q12 -13 12 -24
q0 -4 -1.5 -7t-5.5 -4t-6.5 -1.5t-8 -1t-6.5 -0.5t-1 -1h-53l-1 1q-2 0 -6 0.5t-6.5 0.5t-6 1t-5.5 2t-3.5 3.5t-1.5 6.5q0 11 12 24l13 12q4 9 6 44v1q1 52 1 82.5v37t0.5 17.5t0.5 33q1 17 1.5 51.5t0.5 51.5q3 70 -9 83q-2 3 -19 3q-6 10 -6 17q0 13 14 13q22 0 68 2
q6 1 10.5 0t10.5 -1q5 0 16.5 -24.5t25.5 -61t29.5 -80t28 -80t21.5 -62.5l9 -26l-2 141v14l-2 83v1q0 29 -5 42q-1 1 -1 2q-1 2 -13 13.5t-12 22.5q0 12 26 14h3q0 1 1 1h53q1 0 1 -1q1 0 6.5 -0.5t8 -1t6.5 -1.5t5.5 -4t1.5 -7z" />
    <glyph glyph-name="ro" unicode="ro" horiz-adv-x="860" 
d="M705 243q63 -44 66 -133t-49 -160q-21 -31 -48 -52q-55 -47 -126 -53h-3q-61 -5 -118 19t-92 72q-21 29 -31 69.5t-11.5 64.5t0 81.5t1.5 68.5q0 10 -3 21q-14 50 -83 55q-63 0 -63 -4v-9q0 -10 -8 -235v-5q1 -2 8 -7t11 -11t4 -13q0 -8 -9 -11t-39 -3q-6 0 -24.5 0.5
t-31.5 0.5q-39 2 -44 3q-12 4 -11 13q0 5 4 12q3 4 10.5 10.5t8.5 8.5q7 12 16.5 344t-3.5 361l-11.5 11.5t-10.5 19.5q0 11 23 13q19 1 67 0h79q112 -2 159 -27q17 -8 34 -24q47 -47 55 -129t-26 -163.5t-99 -124.5q10 7 32.5 -9.5t30.5 -28.5q17 -23 19.5 -53.5t-5 -78.5
t-8.5 -57q-14 -184 100 -205q83 -14 134 13q29 15 57 44.5t42 60.5q52 115 -22 191q-48 39 -98.5 36t-84.5 -38t-16 -70q8 -18 19 -19q10 -1 25.5 10t19.5 13q14 6 29.5 0t22.5 -20q19 -32 -14 -60q-36 -30 -81 -17q-33 11 -55 42q-18 26 -20 54.5t9.5 52.5t31.5 45
t48.5 32.5t58.5 15.5t62.5 -5.5t60.5 -32.5zM220 297h2h-1h-1zM277 416q21 29 32 63q11 32 14 61q6 54 -7 103q-4 17 -12 33q-1 2 -3 5t-3 5q-2 4 -5 8q-27 41 -91 49q-8 2 -14 2q-32 3 -34 -13q0 -60 -1 -134v-112q0 -19 -0.5 -58t-1.5 -54q0 -6 -0.5 -15t-0.5 -11v-8h10
q2 0 5 0.5t4 0.5q1 1 4 1t5 1q3 0 9 2q1 1 3 1t3 1q1 0 1 0.5t1 0.5t3.5 1t3.5 2q3 1 7 3l6 3q4 2 6 4q9 6 10 7q1 0 1 0.5t1 0.5l1 1q1 1 3.5 2.5t3.5 3.5q14 12 20 19t16 21zM511 392q-43 89 -32 187q18 141 92 193q24 18 63 21q54 6 93 -28t52 -89q3 -15 7 -38
q7 -37 2.5 -92t-15 -106.5t-42 -90t-77.5 -41.5t-85 19.5t-58 64.5zM589 606q-4 -72 -2 -98v-7q2 -27 4 -44.5t8 -44t18.5 -43t30.5 -20.5q4 -1 12 -1q42 0 61 85q11 48 15 77q17 111 -11 190q-16 43 -41 47q-5 1 -15 1q-36 0 -54.5 -33t-24.5 -107z" />
    <glyph glyph-name="rs" unicode="rs" horiz-adv-x="842" 
d="M705 243q63 -44 66 -133t-49 -160q-21 -31 -48 -52q-55 -47 -126 -53h-3q-61 -5 -118 19t-92 72q-21 29 -31 69.5t-11.5 64.5t0 81.5t1.5 68.5q0 10 -3 21q-14 50 -83 55q-63 0 -63 -4v-9q0 -10 -8 -235v-5q1 -2 8 -7t11 -11t4 -13q0 -8 -9 -11t-39 -3q-6 0 -24.5 0.5
t-31.5 0.5q-39 2 -44 3q-12 4 -11 13q0 5 4 12q3 4 10.5 10.5t8.5 8.5q7 12 16.5 344t-3.5 361l-11.5 11.5t-10.5 19.5q0 11 23 13q19 1 67 0h79q112 -2 159 -27q17 -8 34 -24q47 -47 55 -129t-26 -163.5t-99 -124.5q10 7 32.5 -9.5t30.5 -28.5q17 -23 19.5 -53.5t-5 -78.5
t-8.5 -57q-14 -184 100 -205q83 -14 134 13q29 15 57 44.5t42 60.5q52 115 -22 191q-48 39 -98.5 36t-84.5 -38t-16 -70q8 -18 19 -19q10 -1 25.5 10t19.5 13q14 6 29.5 0t22.5 -20q19 -32 -14 -60q-36 -30 -81 -17q-33 11 -55 42q-18 26 -20 54.5t9.5 52.5t31.5 45
t48.5 32.5t58.5 15.5t62.5 -5.5t60.5 -32.5zM220 297h1h1h-2zM277 416q21 29 32 63q11 32 14 61q6 54 -7 103q-4 17 -12 33q-1 2 -3 5t-3 5q-2 4 -5 8q-27 41 -91 49q-8 2 -14 2q-32 3 -34 -13q0 -60 -1 -134v-112q0 -19 -0.5 -58t-1.5 -54q0 -6 -0.5 -15t-0.5 -11v-8h10
q2 0 5 0.5t4 0.5q1 1 4 1t5 1q3 0 9 2q1 1 3 1t3 1q1 0 1 0.5t1 0.5t3.5 1t3.5 2q3 1 7 3l6 3q4 2 6 4q9 6 10 7q1 0 1 0.5t1 0.5l1 1q1 1 3.5 2.5t3.5 3.5q14 12 20 19t16 21zM638 687q1 5 9 13q19 12 25 29q3 10 -1 20t-13 13q-16 6 -29 -11q-24 -26 -12 -62
q2 -9 6.5 -17.5t8.5 -14t12 -13.5l11.5 -11.5t14 -12.5t12.5 -11q66 -56 72 -139q6 -99 -82 -149q-56 -30 -114.5 -3.5t-79.5 84.5q-13 30 -10 74.5t25 70.5q22 20 52.5 22t53.5 -20t13 -53q-7 -21 -33 -29t-35 16q-4 12 6.5 20.5t11.5 11.5q4 8 -2 16.5t-16 8.5
q-13 -1 -24 -21q-20 -34 -12 -76.5t39 -67.5q20 -16 46.5 -19.5t50.5 8.5q49 24 46 67q-1 31 -17.5 64.5t-29 49t-43.5 51.5q-29 34 -39.5 71t4.5 80q12 26 40.5 40t57.5 7q44 -9 56 -72q1 -14 2 -30.5t-8 -30t-26 -11.5q-17 1 -34.5 11.5t-14.5 25.5z" />
    <glyph glyph-name="rt" unicode="rt" horiz-adv-x="937" 
d="M705 243q63 -44 66 -133t-49 -160q-21 -31 -48 -52q-55 -47 -126 -53h-3q-61 -5 -118 19t-92 72q-21 29 -31 69.5t-11.5 64.5t0 81.5t1.5 68.5q0 10 -3 21q-14 50 -83 55q-63 0 -63 -4v-9q0 -10 -8 -235v-5q1 -2 8 -7t11 -11t4 -13q0 -8 -9 -11t-39 -3q-6 0 -24.5 0.5
t-31.5 0.5q-39 2 -44 3q-12 4 -11 13q0 5 4 12q3 4 10.5 10.5t8.5 8.5q7 12 16.5 344t-3.5 361l-11.5 11.5t-10.5 19.5q0 11 23 13q19 1 67 0h79q112 -2 159 -27q17 -8 34 -24q47 -47 55 -129t-26 -163.5t-99 -124.5q10 7 32.5 -9.5t30.5 -28.5q17 -23 19.5 -53.5t-5 -78.5
t-8.5 -57q-14 -184 100 -205q83 -14 134 13q29 15 57 44.5t42 60.5q52 115 -22 191q-48 39 -98.5 36t-84.5 -38t-16 -70q8 -18 19 -19q10 -1 25.5 10t19.5 13q14 6 29.5 0t22.5 -20q19 -32 -14 -60q-36 -30 -81 -17q-33 11 -55 42q-18 26 -20 54.5t9.5 52.5t31.5 45
t48.5 32.5t58.5 15.5t62.5 -5.5t60.5 -32.5zM220 297h2h-1h-1zM277 416q21 29 32 63q11 32 14 61q6 54 -7 103q-4 17 -12 33q-1 2 -3 5t-3 5q-2 4 -5 8q-27 41 -91 49q-8 2 -14 2q-32 3 -34 -13q0 -60 -1 -134v-112q0 -19 -0.5 -58t-1.5 -54q0 -6 -0.5 -15t-0.5 -11v-8h10
q2 0 5 0.5t4 0.5q1 1 4 1t5 1q3 0 9 2q1 1 3 1t3 1q1 0 1 0.5t1 0.5t3.5 1t3.5 2q3 1 7 3l6 3q4 2 6 4q9 6 10 7q1 0 1 0.5t1 0.5l1 1q1 1 3.5 2.5t3.5 3.5q14 12 20 19t16 21zM462 695q-5 6 -3 26q4 20 7 29q1 3 4 15.5t5 16.5q3 8 7 9h21q7 1 23 1h67q4 0 -2 -1q19 1 71 1
t71 -1q4 1 -2 1h67q16 0 24 -1h20q4 -1 7 -9q2 -4 5 -16.5t4 -15.5q3 -9 7 -29q2 -20 -3 -26l-2 -2q-5 -2 -11 0q-7 3 -10 10q0 3 -2 5q-13 25 -16 29q-14 15 -35 15q-38 2 -83 1h-2q-2 -12 -2 -21q0 -2 -0.5 -4.5t-0.5 -3.5q0 -32 -0.5 -95t-0.5 -95q0 -19 -0.5 -55
t-0.5 -54v-49q0 -7 2 -27q3 -8 11 -13q9 -4 9 -11q0 -4 -2 -8q-1 -4 -17 -7q-1 0 -13.5 -0.5t-21.5 -0.5h-2h-2q-9 0 -21 0.5t-13 0.5t-4 0.5t-4.5 0.5t-3.5 0.5t-3.5 2t-1.5 3.5q-3 3 -3 8q0 7 9 11q8 5 11 13q2 20 2 27v49h1q-1 18 -1.5 54.5t-0.5 54.5q0 32 -0.5 95
t-0.5 95v8q-2 12 -3 21h-2q-44 1 -83 -1q-22 0 -34 -15q-5 -5 -17 -29q-1 -1 -1 -2t-0.5 -1.5t-0.5 -1.5q-4 -7 -10 -10q-6 -2 -11 0z" />
    <glyph glyph-name="Rt" unicode="Rt" horiz-adv-x="828" 
d="M705 243q63 -44 66 -133t-49 -160q-21 -31 -48 -52q-55 -47 -126 -53h-3q-61 -5 -118 19t-92 72q-21 29 -31 69.5t-11.5 64.5t0 81.5t1.5 68.5q0 10 -3 21q-14 50 -83 55q-63 0 -63 -4v-9q0 -10 -8 -235v-5q1 -2 8 -7t11 -11t4 -13q0 -8 -9 -11t-39 -3q-6 0 -24.5 0.5
t-31.5 0.5q-39 2 -44 3q-12 4 -11 13q0 5 4 12q3 4 10.5 10.5t8.5 8.5q7 12 16.5 344t-3.5 361l-11.5 11.5t-10.5 19.5q0 11 23 13q19 1 67 0h79q112 -2 159 -27q17 -8 34 -24q47 -47 55 -129t-26 -163.5t-99 -124.5q10 7 32.5 -9.5t30.5 -28.5q17 -23 19.5 -53.5t-5 -78.5
t-8.5 -57q-14 -184 100 -205q83 -14 134 13q29 15 57 44.5t42 60.5q52 115 -22 191q-48 39 -98.5 36t-84.5 -38t-16 -70q8 -18 19 -19q10 -1 25.5 10t19.5 13q14 6 29.5 0t22.5 -20q19 -32 -14 -60q-36 -30 -81 -17q-33 11 -55 42q-18 26 -20 54.5t9.5 52.5t31.5 45
t48.5 32.5t58.5 15.5t62.5 -5.5t60.5 -32.5zM220 297h2h-1h-1zM277 416q21 29 32 63q11 32 14 61q6 54 -7 103q-4 17 -12 33q-1 2 -3 5t-3 5q-2 4 -5 8q-27 41 -91 49q-8 2 -14 2q-32 3 -34 -13q0 -60 -1 -134v-112q0 -19 -0.5 -58t-1.5 -54q0 -6 -0.5 -15t-0.5 -11v-8h10
q2 0 5 0.5t4 0.5q1 1 4 1t5 1q3 0 9 2q1 1 3 1t3 1q1 0 1 0.5t1 0.5t3.5 1t3.5 2q3 1 7 3l6 3q4 2 6 4q9 6 10 7q1 0 1 0.5t1 0.5l1 1q1 1 3.5 2.5t3.5 3.5q14 12 20 19t16 21zM1241 1021q5 -37 -6 -74q-15 -45 -58 -70q-13 -8 -23 -10q-18 -7 -42 -5q-13 0 -30 5
q-26 9 -45 32q-18 26 -15 59l1 1q2 17 10 31t22 22q21 13 43 7q1 0 2 -1q17 -5 24 -22q2 -6 2 -9q1 -11 -6.5 -21t-18.5 -11q-4 0 -12.5 1t-13.5 0q-6 0 -9 -3l-3 -3q-5 -8 -2 -18t10 -16q14 -13 35 -16q32 -6 60 13q9 8 17 17q24 32 19 71v3q-4 26 -22 52h-1
q-43 52 -112 52q-40 0 -77 -20q-29 -17 -69 -46l-8 -7q-10 -6 -23 -16q-9 -6 -31 -21.5t-35 -23.5q-15 -10 -47 -30q-36 -22 -95 -52q-18 -8 -38 -20q-19 -10 -23 -21q-1 -5 -1 -15q-1 -19 0 -53.5t1 -45.5v-10q0 -30 -0.5 -90.5t-0.5 -91.5q-1 -36 -1 -109v-50q0 -9 2 -31
q5 -9 13 -15q10 -6 10 -13q0 -5 -3 -8q0 -2 -2 -4q-3 -4 -17 -4q-10 -2 -40 -2h-4q-30 0 -40 2q-14 0 -18 4l-2 4q-2 4 -2 8q0 7 10 13q9 6 12 15q2 11 2 31q1 28 1 56q0 17 -0.5 51.5t-0.5 51.5q0 62 -2 182v51q-1 9 -1 25q3 17 -3 21q-4 3 -22 -1q-7 -2 -31 -9.5t-37 -9.5
q-38 -7 -66 -7q-82 0 -140 40q-61 42 -58 77q3 14 4 16q5 9 19 9h2q5 0 12 -5q7 -4 18 -17q10 -13 17 -18q26 -20 55 -28q33 -11 71 -11q53 0 119 21q-2 -1 -4 -1t-4 -1q1 0 6 1.5t8 2.5q2 1 4 1l2 1h1q11 4 31 12q171 68 314 170q18 13 33 24q63 45 87 58q25 13 48 17
q16 4 38 4q35 0 71 -13q40 -17 69 -49q32 -35 40 -87z" />
    <glyph glyph-name="ru" unicode="ru" horiz-adv-x="842" 
d="M705 243q63 -44 66 -133t-49 -160q-21 -31 -48 -52q-55 -47 -126 -53h-3q-61 -5 -118 19t-92 72q-21 29 -31 69.5t-11.5 64.5t0 81.5t1.5 68.5q0 10 -3 21q-14 50 -83 55q-63 0 -63 -4v-9q0 -10 -8 -235v-5q1 -2 8 -7t11 -11t4 -13q0 -8 -9 -11t-39 -3q-6 0 -24.5 0.5
t-31.5 0.5q-39 2 -44 3q-12 4 -11 13q0 5 4 12q3 4 10.5 10.5t8.5 8.5q7 12 16.5 344t-3.5 361l-11.5 11.5t-10.5 19.5q0 11 23 13q19 1 67 0h79q112 -2 159 -27q17 -8 34 -24q47 -47 55 -129t-26 -163.5t-99 -124.5q10 7 32.5 -9.5t30.5 -28.5q17 -23 19.5 -53.5t-5 -78.5
t-8.5 -57q-14 -184 100 -205q83 -14 134 13q29 15 57 44.5t42 60.5q52 115 -22 191q-48 39 -98.5 36t-84.5 -38t-16 -70q8 -18 19 -19q10 -1 25.5 10t19.5 13q14 6 29.5 0t22.5 -20q19 -32 -14 -60q-36 -30 -81 -17q-33 11 -55 42q-18 26 -20 54.5t9.5 52.5t31.5 45
t48.5 32.5t58.5 15.5t62.5 -5.5t60.5 -32.5zM220 297h2h-1h-1zM277 416q21 29 32 63q11 32 14 61q6 54 -7 103q-4 17 -12 33q-1 2 -3 5t-3 5q-2 4 -5 8q-27 41 -91 49q-8 2 -14 2q-32 3 -34 -13q0 -60 -1 -134v-112q0 -19 -0.5 -58t-1.5 -54q0 -6 -0.5 -15t-0.5 -11v-8h10
q2 0 5 0.5t4 0.5q1 1 4 1t5 1q3 0 9 2q1 1 3 1t3 1q1 0 1 0.5t1 0.5t3.5 1t3.5 2q3 1 7 3l6 3q4 2 6 4q9 6 10 7q1 0 1 0.5t1 0.5l1 1q1 1 3.5 2.5t3.5 3.5q14 12 20 19t16 21zM753 796q1 0 5 -0.5t6.5 -1t4.5 -2.5t2 -5q0 -6 -8 -12.5t-8 -7.5q-1 -1 -1.5 -4t-0.5 -5
q1 -30 1 -79q1 -25 1 -56v-91q0 -56 -5 -96q-7 -55 -52 -103q-27 -27 -81 -27q-36 -1 -73 19t-54 53q-16 33 -14 113q1 21 1 126v95v17v5q0 7 -2 19q-2 7 -10 13q-9 4 -9 12q0 9 11 13q1 0 4.5 0.5t6.5 0.5q43 4 75 0q1 0 5 -0.5t5.5 -1t3.5 -2t2 -4.5q0 -5 -2.5 -9t-6.5 -7
t-5 -5q-2 -4 -2 -16q-1 -11 -1 -32v-1v-35q0 -67 -2 -203q-2 -103 47 -140q36 -20 62 -2.5t37 53.5q15 48 15 135v106q0 38 -1 59v55q-2 21 -4 25l-8 7q-7 7 -7 13q0 3 2 5t4 2.5t6 1t5 0.5h1h43h1z" />
    <glyph glyph-name="Ra" unicode="Ra" horiz-adv-x="855" 
d="M717 239q64 -44 67 -132.5t-49 -159.5q-20 -31 -48 -53q-56 -46 -126 -53h-3q-62 -5 -119 19.5t-91 72.5q-21 28 -31 68.5t-11.5 64.5t0 81.5t1.5 68.5q0 12 -3 21q-7 24 -29.5 39t-53.5 17q-29 0 -46 -1q-17 -2 -17 -3v-10q-1 -18 -2.5 -68.5t-3.5 -105.5t-2 -61v-4
q2 -2 8.5 -7.5t10.5 -11t4 -12.5q0 -8 -6 -10q-8 -4 -42 -4q-12 -1 -56 1h-1q-31 0 -43 3q-13 3 -11 12q0 8 4 13q3 5 12 12h1q5 5 6 7q6 11 16 333.5t-2 368.5q-28 4 -111.5 2.5t-106.5 -8.5q-19 -6 -43 -24.5t-40 -41.5q-17 -26 -21 -63t10 -64q30 -51 87 -41q42 7 44 37
q0 8 -6 9.5t-17 -0.5t-12 -2q-24 2 -35 21q-10 19 2 39.5t32 25.5q22 5 43.5 -6.5t32.5 -31.5q25 -42 -3 -93.5t-101 -45.5q-61 6 -97 58q-17 23 -21.5 43.5t-4.5 57.5t23 73q24 37 58 61t71.5 32.5t67 11t64 1t42.5 -0.5q-5 0 -8 -1q17 1 97 -2h20q28 -1 79 -1
q112 -2 159 -26q22 -13 34 -25q16 -18 25 -33q30 -59 31 -129.5t-33.5 -143t-92.5 -111.5q4 4 36 -28q14 -15 19 -30q10 -26 5 -62q-4 -36 -5.5 -58.5t-2 -62t6 -66t18.5 -55t35.5 -46t56.5 -23.5q81 -16 133 12q29 15 57 45t42 61q53 115 -21 190q-49 40 -99.5 36.5
t-84.5 -38t-16 -69.5q10 -19 20 -20t25.5 10t19.5 13q14 6 29.5 0t22.5 -20q18 -31 -13 -59q-35 -30 -81 -18q-33 10 -56 43q-18 26 -20 54.5t9.5 52t31.5 44.5t48 32.5t58 15.5t63 -5.5t60 -32.5zM233 294q0 -1 2 -1q-1 0 -1 0.5t-1 0.5zM290 412q21 29 32 64q11 30 14 60
q6 54 -7 103q-9 26 -13 33q0 2 -5 11q-1 1 -2.5 4t-2.5 4q-26 39 -91 49q-3 0 -8 0.5t-7 0.5q-10 2 -18 2q-14 -2 -15 -15q0 -60 -1 -133q0 -76 -1 -112q0 -24 -0.5 -62.5t-0.5 -50.5q-1 -11 -1 -26v-8h10q1 1 2 1q5 0 7 1q2 0 5 0.5t4 0.5l9 3q2 0 6 2h1q6 2 8 3q6 3 7 4
q4 0 5 3l6 3q2 1 11 7q1 1 2 1q0 1 1 1q4 4 7 6q11 9 20 20q6 6 16 20zM750 323q1 -6 -2.5 -8.5t-10.5 -3.5q-34 -5 -70 -1q-1 0 -5 0.5t-5.5 1t-4 2t-2.5 4.5q-1 6 7 13.5t6 18.5q-9 78 -11 86l-105 -4q-1 0 -11 -33.5t-10 -35.5q-5 -18 -4 -23q1 -3 7.5 -5.5t7.5 -6.5
q7 -15 -26 -18l-32 1q-12 2 -12 11q0 4 1.5 6.5t5 5.5t4.5 4q9 13 24 65t38 139t39 141q20 64 19 83q-1 10 0 16t7 9t22 3q21 1 28.5 -20t22.5 -121q24 -159 48 -296q0 -3 3 -11q3 -7 11.5 -11.5t9.5 -11.5zM575 476q10 0 30 0.5t28 1.5l-1 13q0 1 -6 60.5t-10 89.5
q-1 -6 -4.5 -21t-5.5 -23q-25 -100 -31 -121z" />
    <glyph glyph-name="Rb" unicode="Rb" horiz-adv-x="846" 
d="M708 239q64 -44 67 -132.5t-49 -159.5q-20 -31 -48 -53q-56 -46 -126 -53h-3q-62 -5 -119 19.5t-91 72.5q-21 28 -31 68.5t-11.5 64.5t0 81.5t1.5 68.5q0 12 -3 21q-7 24 -29.5 39t-53.5 17q-29 0 -46 -1q-17 -2 -17 -3v-10q-1 -18 -2.5 -68.5t-3.5 -105.5t-2 -61v-4
q2 -2 8.5 -7.5t10.5 -11t4 -12.5q0 -8 -6 -10q-8 -4 -42 -4q-12 -1 -56 1h-1q-31 0 -43 3q-13 3 -11 12q0 8 4 13q3 5 12 12h1q5 5 6 7q6 11 16 333.5t-2 368.5q-28 4 -111.5 2.5t-106.5 -8.5q-19 -6 -43 -24.5t-40 -41.5q-17 -26 -21 -63t10 -64q30 -51 87 -41q42 7 44 37
q0 8 -6 9.5t-17 -0.5t-12 -2q-24 2 -35 21q-10 19 2 39.5t32 25.5q22 5 43.5 -6.5t32.5 -31.5q25 -42 -3 -93.5t-101 -45.5q-61 6 -97 58q-17 23 -21.5 43.5t-4.5 57.5t23 73q24 37 58 61t71.5 32.5t67 11t64 1t42.5 -0.5q-5 0 -8 -1q17 1 97 -2h20q28 -1 79 -1
q112 -2 159 -26q22 -13 34 -25q16 -18 25 -33q30 -59 31 -129.5t-33.5 -143t-92.5 -111.5q4 4 36 -28q14 -15 19 -30q10 -26 5 -62q-4 -36 -5.5 -58.5t-2 -62t6 -66t18.5 -55t35.5 -46t56.5 -23.5q81 -16 133 12q29 15 57 45t42 61q53 115 -21 190q-49 40 -99.5 36.5
t-84.5 -38t-16 -69.5q10 -19 20 -20t25.5 10t19.5 13q14 6 29.5 0t22.5 -20q18 -31 -13 -59q-35 -30 -81 -18q-33 10 -56 43q-18 26 -20 54.5t9.5 52t31.5 44.5t48 32.5t58 15.5t63 -5.5t60 -32.5zM224 294q0 -1 2 -1l-1 1h-1zM281 412q21 29 32 64q11 30 14 60q6 54 -7 103
q-9 26 -13 33q-1 2 -5 11q-1 1 -2.5 4t-2.5 4q-26 39 -91 49q-2 0 -7 0.5t-8 0.5q-10 2 -18 2q-14 -2 -15 -15q0 -60 -1 -133q0 -76 -1 -112q0 -24 -0.5 -62.5t-0.5 -50.5q-1 -11 -1 -26v-8h10q1 1 2 1q5 0 7 1q1 0 4 0.5t5 0.5l9 3q2 0 6 2h1q6 2 8 3q6 3 7 4q3 0 5 3l6 3
q2 1 11 7q1 1 2 1q0 1 1 1q4 4 7 6q11 9 20 20q6 6 16 20zM679 506q20 -11 29 -20q20 -20 25.5 -54t-2.5 -59q-11 -39 -36.5 -51t-72.5 -14q-45 -1 -113 -1h-1q-22 1 -28 2.5t-5 7.5q0 5 2 8t6.5 6.5t5.5 4.5q4 8 10 211.5t-2 221.5l-7 7q-7 6 -7 11q0 8 18 8.5t84 -0.5
q95 0 130 -37q28 -25 22 -100t-48 -132q-2 -3 -6 -8q-8 -10 -4 -12zM666 420q1 21 -3 35t-14.5 20.5t-20.5 9t-28 4.5q-37 0 -37 -2l-1 -148q1 -1 2 -1q6 -3 33 -1q36 4 50 19q18 22 19 64zM616 536q25 39 39 83.5t14 74.5q-1 64 -80 71q-19 3 -20 -8q-1 -212 -3 -241
q37 0 50 20z" />
    <glyph glyph-name="Rd" unicode="Rd" horiz-adv-x="881" 
d="M714 239q64 -44 67 -132.5t-49 -159.5q-20 -31 -48 -53q-56 -46 -126 -53h-3q-62 -5 -119 19.5t-91 72.5q-21 28 -31 68.5t-11.5 64.5t0 81.5t1.5 68.5q0 12 -3 21q-7 24 -29.5 39t-53.5 17q-29 0 -46 -1q-17 -2 -17 -3v-10q-1 -18 -2.5 -68.5t-3.5 -105.5t-2 -61v-4
q2 -2 8.5 -7.5t10.5 -11t4 -12.5q0 -8 -6 -10q-8 -4 -42 -4q-12 -1 -56 1h-1q-31 0 -43 3q-13 3 -11 12q0 8 4 13q3 5 12 12h1q5 5 6 7q6 11 16 333.5t-2 368.5q-28 4 -111.5 2.5t-106.5 -8.5q-19 -6 -43 -24.5t-40 -41.5q-17 -26 -21 -63t10 -64q30 -51 87 -41q42 7 44 37
q0 8 -6 9.5t-17 -0.5t-12 -2q-24 2 -35 21q-10 19 2 39.5t32 25.5q22 5 43.5 -6.5t32.5 -31.5q25 -42 -3 -93.5t-101 -45.5q-61 6 -97 58q-17 23 -21.5 43.5t-4.5 57.5t23 73q24 37 58 61t71.5 32.5t67 11t64 1t42.5 -0.5q-5 0 -8 -1q17 1 97 -2h20q28 -1 79 -1
q112 -2 159 -26q22 -13 34 -25q16 -18 25 -33q30 -59 31 -129.5t-33.5 -143t-92.5 -111.5q4 4 36 -28q14 -15 19 -30q10 -26 5 -62q-4 -36 -5.5 -58.5t-2 -62t6 -66t18.5 -55t35.5 -46t56.5 -23.5q81 -16 133 12q29 15 57 45t42 61q53 115 -21 190q-49 40 -99.5 36.5
t-84.5 -38t-16 -69.5q10 -19 20 -20t25.5 10t19.5 13q14 6 29.5 0t22.5 -20q18 -31 -13 -59q-35 -30 -81 -18q-33 10 -56 43q-18 26 -20 54.5t9.5 52t31.5 44.5t48 32.5t58 15.5t63 -5.5t60 -32.5zM230 294q0 -1 2 -1l-1 1h-1zM287 412q21 29 32 64q11 30 14 60q6 54 -7 103
q-9 26 -13 33q-1 2 -5 11q-1 1 -2.5 4t-2.5 4q-26 39 -91 49q-2 0 -7 0.5t-8 0.5q-10 2 -18 2q-14 -2 -15 -15q0 -60 -1 -133q0 -76 -1 -112q0 -24 -0.5 -62.5t-0.5 -50.5q-1 -11 -1 -26v-8h10q1 1 2 1q5 0 7 1q1 0 4 0.5t5 0.5l9 3q2 0 6 2h1q6 2 8 3q6 3 7 4q3 0 5 3l6 3
q2 1 11 7q1 1 2 1q0 1 1 1q4 4 7 6q11 9 20 20q6 6 16 20zM797 668q14 -32 14 -100q0 -149 -62.5 -207.5t-193.5 -53.5q-14 -1 -38.5 0t-31.5 2q-12 3 -2 15q1 2 5.5 6t5.5 7q6 13 8.5 29t2.5 40v31q1 19 2 56t1 56q0 34 0.5 67t1.5 52.5t1 37.5v27t-1.5 17.5t-4.5 12
t-8 6.5q-7 5 -8 8q-3 14 11 16q14 3 56 3t80 -5q55 -10 98 -41.5t63 -81.5zM634 353q108 46 98 234q-3 50 -13 83.5t-40 56.5q-29 23 -65 29q-29 4 -31 3v-1q-7 -2 -7 -11q-1 -16 -3.5 -70.5t-5.5 -133.5t-2 -139t7 -62q15 -6 62 11z" />
    <glyph glyph-name="Re" unicode="Re" horiz-adv-x="858" 
d="M720 239q64 -44 67 -132.5t-49 -159.5q-20 -31 -48 -53q-56 -46 -126 -53h-3q-62 -5 -119 19.5t-91 72.5q-21 28 -31 68.5t-11.5 64.5t0 81.5t1.5 68.5q0 12 -3 21q-7 24 -29.5 39t-53.5 17q-29 0 -46 -1q-17 -2 -17 -3v-10q-1 -18 -2.5 -68.5t-3.5 -105.5t-2 -61v-4
q2 -2 8.5 -7.5t10.5 -11t4 -12.5q0 -8 -6 -10q-8 -4 -42 -4q-12 -1 -56 1h-1q-31 0 -43 3q-13 3 -11 12q0 8 4 13q3 5 12 12h1q5 5 6 7q6 11 16 333.5t-2 368.5q-28 4 -111.5 2.5t-106.5 -8.5q-19 -6 -43 -24.5t-40 -41.5q-17 -26 -21 -63t10 -64q30 -51 87 -41q42 7 44 37
q0 8 -6 9.5t-17 -0.5t-12 -2q-24 2 -35 21q-10 19 2 39.5t32 25.5q22 5 43.5 -6.5t32.5 -31.5q25 -42 -3 -93.5t-101 -45.5q-61 6 -97 58q-17 23 -21.5 43.5t-4.5 57.5t23 73q24 37 58 61t71.5 32.5t67 11t64 1t42.5 -0.5q-5 0 -8 -1q17 1 97 -2h20q28 -1 79 -1
q112 -2 159 -26q22 -13 34 -25q16 -18 25 -33q30 -59 31 -129.5t-33.5 -143t-92.5 -111.5q4 4 36 -28q14 -15 19 -30q10 -26 5 -62q-4 -36 -5.5 -58.5t-2 -62t6 -66t18.5 -55t35.5 -46t56.5 -23.5q81 -16 133 12q29 15 57 45t42 61q53 115 -21 190q-49 40 -99.5 36.5
t-84.5 -38t-16 -69.5q10 -19 20 -20t25.5 10t19.5 13q14 6 29.5 0t22.5 -20q18 -31 -13 -59q-35 -30 -81 -18q-33 10 -56 43q-18 26 -20 54.5t9.5 52t31.5 44.5t48 32.5t58 15.5t63 -5.5t60 -32.5zM236 294q0 -1 2 -1l-1 1h-1zM293 412q21 29 32 64q11 30 14 60q6 54 -7 103
q-9 26 -13 33q-1 2 -5 11q-1 1 -2.5 4t-2.5 4q-26 39 -91 49q-2 0 -7 0.5t-8 0.5q-10 2 -18 2q-14 -2 -15 -15q0 -60 -1 -133q0 -76 -1 -112q0 -24 -0.5 -62.5t-0.5 -50.5q-1 -11 -1 -26v-8h10q1 1 2 1q5 0 7 1q1 0 4 0.5t5 0.5l9 3q2 0 6 2h1q6 2 8 3q6 3 7 4q3 0 5 3l6 3
q2 1 11 7q1 1 2 1q0 1 1 1q4 4 7 6q11 9 20 20q6 6 16 20zM739 390q0 -1 1.5 -3t2.5 -3q5 -10 2 -48q0 -27 -10 -27h-28h-49h-54q-79 2 -84 3q-4 0 -12 1q-18 5 -18 22q0 12 14 21q9 5 14 15.5t6.5 26t2 27.5t-0.5 31t-1 27q0 7 -1 69t-1 137q0 24 -4.5 37.5t-10 16t-11 6.5
t-6.5 11q-2 12 3.5 21.5t19.5 10.5q4 0 44.5 -0.5t45.5 0.5q16 0 46 0.5t45 0.5q34 0 37 -1q12 -5 14 -20q0 -1 -6 -28q-1 -4 -1 -13.5t-2 -14.5q-3 -10 -15 -14q-16 -4 -21 6q-2 5 -5 14t-4 11q-5 16 -16 20q-3 1 -9 1q-22 3 -52 1q-12 0 -19.5 -5t-10 -17t-3 -18t-0.5 -23
q0 -106 1 -138q47 0 47 10q0 13 5 23q5 12 25 7.5t20 -26.5q0 -19 -0.5 -35.5t-0.5 -30.5q0 -37 -17 -36q-32 3 -32 29v6.5t-1.5 4.5t-2.5 2.5t-4.5 1t-6.5 0t-9 -0.5h-12q-2 0 -12 -2q-1 -96 -1 -112q0 -3 -0.5 -12t-0.5 -14.5t2 -11.5t7 -9q7 -3 50 -3q4 0 14 -0.5
t16 -0.5t13.5 1.5t12.5 5.5q11 10 16 41q6 9 18 6q6 -3 10 -8z" />
    <glyph glyph-name="Ri" unicode="Ri" horiz-adv-x="855" 
d="M717 239q64 -44 67 -132.5t-49 -159.5q-20 -31 -48 -53q-56 -46 -126 -53h-3q-62 -5 -119 19.5t-91 72.5q-21 28 -31 68.5t-11.5 64.5t0 81.5t1.5 68.5q0 12 -3 21q-7 24 -29.5 39t-53.5 17q-29 0 -46 -1q-17 -2 -17 -3v-10q-1 -18 -2.5 -68.5t-3.5 -105.5t-2 -61v-4
q2 -2 8.5 -7.5t10.5 -11t4 -12.5q0 -8 -6 -10q-8 -4 -42 -4q-12 -1 -56 1h-1q-31 0 -43 3q-13 3 -11 12q0 8 4 13q3 5 12 12h1q5 5 6 7q6 11 16 333.5t-2 368.5q-28 4 -111.5 2.5t-106.5 -8.5q-19 -6 -43 -24.5t-40 -41.5q-17 -26 -21 -63t10 -64q30 -51 87 -41q42 7 44 37
q0 8 -6 9.5t-17 -0.5t-12 -2q-24 2 -35 21q-10 19 2 39.5t32 25.5q22 5 43.5 -6.5t32.5 -31.5q25 -42 -3 -93.5t-101 -45.5q-61 6 -97 58q-17 23 -21.5 43.5t-4.5 57.5t23 73q24 37 58 61t71.5 32.5t67 11t64 1t42.5 -0.5q-5 0 -8 -1q17 1 97 -2h20q28 -1 79 -1
q112 -2 159 -26q22 -13 34 -25q16 -18 25 -33q30 -59 31 -129.5t-33.5 -143t-92.5 -111.5q4 4 36 -28q14 -15 19 -30q10 -26 5 -62q-4 -36 -5.5 -58.5t-2 -62t6 -66t18.5 -55t35.5 -46t56.5 -23.5q81 -16 133 12q29 15 57 45t42 61q53 115 -21 190q-49 40 -99.5 36.5
t-84.5 -38t-16 -69.5q10 -19 20 -20t25.5 10t19.5 13q14 6 29.5 0t22.5 -20q18 -31 -13 -59q-35 -30 -81 -18q-33 10 -56 43q-18 26 -20 54.5t9.5 52t31.5 44.5t48 32.5t58 15.5t63 -5.5t60 -32.5zM233 294q0 -1 2 -1q-1 0 -1 0.5t-1 0.5zM290 412q21 29 32 64q11 30 14 60
q6 54 -7 103q-9 26 -13 33q0 2 -5 11q-1 1 -2.5 4t-2.5 4q-26 39 -91 49q-3 0 -8 0.5t-7 0.5q-10 2 -18 2q-14 -2 -15 -15q0 -60 -1 -133q0 -76 -1 -112q0 -24 -0.5 -62.5t-0.5 -50.5q-1 -11 -1 -26v-8h10q1 1 2 1q5 0 7 1q2 0 5 0.5t4 0.5l9 3q2 0 6 2h1q6 2 8 3q6 3 7 4
q4 0 5 3l6 3q2 1 11 7q1 1 2 1q0 1 1 1q4 4 7 6q11 9 20 20q6 6 16 20zM647 355q15 -7 15 -20q0 -18 -19 -22q-5 -1 -19 -3q-33 -3 -61 0h-5q-1 0 -5.5 0.5t-6.5 0.5t-6 1t-6 2.5t-3.5 4t-1.5 5.5q0 10 5.5 18t13 14t8.5 8q6 11 6 60q0 24 0.5 51.5t0.5 32.5v111q0 42 -1 75
q-2 22 -5 32q-4 14 -18 22q-15 8 -15 20q0 18 19 22q9 2 21 3q30 3 55 0h5q2 0 9 -1t10 -1.5t6.5 -3.5t3.5 -8q0 -11 -12.5 -22.5t-12.5 -12.5q-5 -9 -5 -246v-63q1 -9 1 -26q0 -19 5 -32q4 -14 18 -22z" />
    <glyph glyph-name="Rm" unicode="Rm" horiz-adv-x="951" 
d="M717 239q64 -44 67 -132.5t-49 -159.5q-20 -31 -48 -53q-56 -46 -126 -53h-3q-62 -5 -119 19.5t-91 72.5q-21 28 -31 68.5t-11.5 64.5t0 81.5t1.5 68.5q0 12 -3 21q-7 24 -29.5 39t-53.5 17q-29 0 -46 -1q-17 -2 -17 -3v-10q-1 -18 -2.5 -68.5t-3.5 -105.5t-2 -61v-4
q2 -2 8.5 -7.5t10.5 -11t4 -12.5q0 -8 -6 -10q-8 -4 -42 -4q-12 -1 -56 1h-1q-31 0 -43 3q-13 3 -11 12q0 8 4 13q3 5 12 12h1q5 5 6 7q6 11 16 333.5t-2 368.5q-28 4 -111.5 2.5t-106.5 -8.5q-19 -6 -43 -24.5t-40 -41.5q-17 -26 -21 -63t10 -64q30 -51 87 -41q42 7 44 37
q0 8 -6 9.5t-17 -0.5t-12 -2q-24 2 -35 21q-10 19 2 39.5t32 25.5q22 5 43.5 -6.5t32.5 -31.5q25 -42 -3 -93.5t-101 -45.5q-61 6 -97 58q-17 23 -21.5 43.5t-4.5 57.5t23 73q24 37 58 61t71.5 32.5t67 11t64 1t42.5 -0.5q-5 0 -8 -1q17 1 97 -2h20q28 -1 79 -1
q112 -2 159 -26q22 -13 34 -25q16 -18 25 -33q30 -59 31 -129.5t-33.5 -143t-92.5 -111.5q4 4 36 -28q14 -15 19 -30q10 -26 5 -62q-4 -36 -5.5 -58.5t-2 -62t6 -66t18.5 -55t35.5 -46t56.5 -23.5q81 -16 133 12q29 15 57 45t42 61q53 115 -21 190q-49 40 -99.5 36.5
t-84.5 -38t-16 -69.5q10 -19 20 -20t25.5 10t19.5 13q14 6 29.5 0t22.5 -20q18 -31 -13 -59q-35 -30 -81 -18q-33 10 -56 43q-18 26 -20 54.5t9.5 52t31.5 44.5t48 32.5t58 15.5t63 -5.5t60 -32.5zM233 294q0 -1 2 -1q-1 0 -1 0.5t-1 0.5zM290 412q21 29 32 64q11 30 14 60
q6 54 -7 103q-9 26 -13 33q0 2 -5 11q-1 1 -2.5 4t-2.5 4q-26 39 -91 49q-3 0 -8 0.5t-7 0.5q-10 2 -18 2q-14 -2 -15 -15q0 -60 -1 -133q0 -76 -1 -112q0 -24 -0.5 -62.5t-0.5 -50.5q-1 -11 -1 -26v-8h10q1 1 2 1q5 0 7 1q2 0 5 0.5t4 0.5l9 3q2 0 6 2h1q6 2 8 3q6 3 7 4
q4 0 5 3l6 3q2 1 11 7q1 1 2 1q0 1 1 1q4 4 7 6q11 9 20 20q6 6 16 20zM867 342q1 -2 4 -5l5.5 -5.5t4 -6t-0.5 -6.5q-1 -3 -4.5 -4t-8.5 -1.5t-6 -0.5q-5 0 -28 -0.5t-28 -0.5h-12.5t-18.5 2t-11 6q-11 10 5 19q8 6 9 13q1 1 3 13v53v46v6v216q-3 6 -5 1q-27 -117 -76 -330
q-9 -42 -33 -42q-9 0 -14.5 2.5t-12.5 14t-15 35.5q-24 76 -84 303q-4 14 -6 16v-1l-1 -1q1 -53 0 -106v-95v-55q0 -9 -0.5 -34.5t-0.5 -41.5q0 -5 2 -9q1 -1 5 -4t7 -7t3 -8q0 -3 -2 -5t-4 -2.5t-6 -1t-5 -0.5h-1h-31h-1q-1 0 -5 0.5t-6 1t-4 2.5t-2 5q0 4 3 8t7 7t5 4
q3 6 3 25q1 87 1 185v115q1 9 1 28t1 29q0 40 -6 46q-1 1 -2.5 1t-4 0.5t-4.5 0.5q-4 4 -4 9q0 7 8 7q12 0 33 1t32 1q24 0 30 -16q14 -38 36 -120t38.5 -143t21.5 -66q2 3 7 28q1 5 6.5 29.5t12.5 57.5t11 51q7 33 16 71t15 63t7 28q2 13 24 16q12 1 39 1t38 -1q24 0 24 -9
q0 -5 -11 -16q-4 -4 -6 -19v-1v-69q0 -92 1 -139v-124q0 -7 -0.5 -24t-0.5 -26q2 -18 3 -21z" />
    <glyph glyph-name="Rn" unicode="Rn" horiz-adv-x="849" 
d="M711 239q64 -44 67 -132.5t-49 -159.5q-20 -31 -48 -53q-56 -46 -126 -53h-3q-62 -5 -119 19.5t-91 72.5q-21 28 -31 68.5t-11.5 64.5t0 81.5t1.5 68.5q0 12 -3 21q-7 24 -29.5 39t-53.5 17q-29 0 -46 -1q-17 -2 -17 -3v-10q-1 -18 -2.5 -68.5t-3.5 -105.5t-2 -61v-4
q2 -2 8.5 -7.5t10.5 -11t4 -12.5q0 -8 -6 -10q-8 -4 -42 -4q-12 -1 -56 1h-1q-31 0 -43 3q-13 3 -11 12q0 8 4 13q3 5 12 12h1q5 5 6 7q6 11 16 333.5t-2 368.5q-28 4 -111.5 2.5t-106.5 -8.5q-19 -6 -43 -24.5t-40 -41.5q-17 -26 -21 -63t10 -64q30 -51 87 -41q42 7 44 37
q0 8 -6 9.5t-17 -0.5t-12 -2q-24 2 -35 21q-10 19 2 39.5t32 25.5q22 5 43.5 -6.5t32.5 -31.5q25 -42 -3 -93.5t-101 -45.5q-61 6 -97 58q-17 23 -21.5 43.5t-4.5 57.5t23 73q24 37 58 61t71.5 32.5t67 11t64 1t42.5 -0.5q-5 0 -8 -1q17 1 97 -2h20q28 -1 79 -1
q112 -2 159 -26q22 -13 34 -25q16 -18 25 -33q30 -59 31 -129.5t-33.5 -143t-92.5 -111.5q4 4 36 -28q14 -15 19 -30q10 -26 5 -62q-4 -36 -5.5 -58.5t-2 -62t6 -66t18.5 -55t35.5 -46t56.5 -23.5q81 -16 133 12q29 15 57 45t42 61q53 115 -21 190q-49 40 -99.5 36.5
t-84.5 -38t-16 -69.5q10 -19 20 -20t25.5 10t19.5 13q14 6 29.5 0t22.5 -20q18 -31 -13 -59q-35 -30 -81 -18q-33 10 -56 43q-18 26 -20 54.5t9.5 52t31.5 44.5t48 32.5t58 15.5t63 -5.5t60 -32.5zM227 294q0 -1 2 -1q-1 0 -1 0.5t-1 0.5zM284 412q21 29 32 64q11 30 14 60
q6 54 -7 103q-9 26 -13 33q0 2 -5 11q-1 1 -2.5 4t-2.5 4q-26 39 -91 49q-3 0 -8 0.5t-7 0.5q-10 2 -18 2q-14 -2 -15 -15q0 -60 -1 -133q0 -76 -1 -112q0 -24 -0.5 -62.5t-0.5 -50.5q-1 -11 -1 -26v-8h10q1 1 2 1q5 0 7 1q2 0 5 0.5t4 0.5l9 3q2 0 6 2h1q6 2 8 3q6 3 7 4
q4 0 5 3l6 3q2 1 11 7q1 1 2 1q0 1 1 1q4 4 7 6q11 9 20 20q6 6 16 20zM770 778q0 -11 -12.5 -23t-12.5 -13q-1 -4 -3 -16q0 -60 2 -138q0 -21 0.5 -83.5t0.5 -90.5q0 -20 -1 -30v-27v-5q2 -6 7 -8q9 -4 11 -9q2 -6 1 -10q0 -8 -2 -12q-4 -5 -27 -5h-38q-2 0 -1 0.5t0 1.5
q-13 5 -24 25h-1q-14 26 -27 59q-18 50 -45 122q-32 87 -40 107t-12 23v-2v-7v-4q0 -7 -1.5 -117.5t-1.5 -140.5q1 -10 3 -17q1 -2 8 -8t12 -13t5 -15q0 -4 -1.5 -7t-5.5 -4t-6.5 -1.5t-8 -1t-6.5 -0.5t-2 -1h-52l-1 1q-2 0 -6 0.5t-6.5 0.5t-6 1t-5.5 2t-3.5 3.5t-1.5 6.5
q0 8 5 15t12 13t8 8q4 9 6 44v1q1 52 1 82.5v37t0.5 17.5t0.5 33q1 17 1.5 51.5t0.5 51.5q0 72 -9 83q-3 3 -19 3q-6 10 -6 17q0 13 14 13q22 0 68 2q6 1 10.5 0t10.5 -1q5 0 16.5 -24.5t25.5 -61t29.5 -80t28 -80t21.5 -62.5l9 -26l-2 141v14l-2 83v1q0 26 -6 42v2
q0 1 -12.5 13t-12.5 23q0 12 25 14h4v1h1h52q1 0 2 -1q1 0 6.5 -0.5t8 -1t6.5 -1.5t5.5 -4t1.5 -7z" />
    <glyph glyph-name="Ro" unicode="Ro" horiz-adv-x="860" 
d="M705 239q64 -44 67 -132.5t-49 -159.5q-20 -31 -48 -53q-56 -46 -126 -53h-3q-62 -5 -119 19.5t-91 72.5q-21 28 -31 68.5t-11.5 64.5t0 81.5t1.5 68.5q0 12 -3 21q-7 24 -29.5 39t-53.5 17q-29 0 -46 -1q-17 -2 -17 -3v-10q-1 -18 -2.5 -68.5t-3.5 -105.5t-2 -61v-4
q2 -2 8.5 -7.5t10.5 -11t4 -12.5q0 -8 -6 -10q-8 -4 -42 -4q-12 -1 -56 1h-1q-31 0 -43 3q-13 3 -11 12q0 8 4 13q3 5 12 12h1q5 5 6 7q6 11 16 333.5t-2 368.5q-28 4 -111.5 2.5t-106.5 -8.5q-19 -6 -43 -24.5t-40 -41.5q-17 -26 -21 -63t10 -64q30 -51 87 -41q42 7 44 37
q0 8 -6 9.5t-17 -0.5t-12 -2q-24 2 -35 21q-10 19 2 39.5t32 25.5q22 5 43.5 -6.5t32.5 -31.5q25 -42 -3 -93.5t-101 -45.5q-61 6 -97 58q-17 23 -21.5 43.5t-4.5 57.5t23 73q24 37 58 61t71.5 32.5t67 11t64 1t42.5 -0.5q-5 0 -8 -1q17 1 97 -2h20q28 -1 79 -1
q112 -2 159 -26q22 -13 34 -25q16 -18 25 -33q30 -59 31 -129.5t-33.5 -143t-92.5 -111.5q4 4 36 -28q14 -15 19 -30q10 -26 5 -62q-4 -36 -5.5 -58.5t-2 -62t6 -66t18.5 -55t35.5 -46t56.5 -23.5q81 -16 133 12q29 15 57 45t42 61q53 115 -21 190q-49 40 -99.5 36.5
t-84.5 -38t-16 -69.5q10 -19 20 -20t25.5 10t19.5 13q14 6 29.5 0t22.5 -20q18 -31 -13 -59q-35 -30 -81 -18q-33 10 -56 43q-18 26 -20 54.5t9.5 52t31.5 44.5t48 32.5t58 15.5t63 -5.5t60 -32.5zM221 294q0 -1 2 -1q-1 0 -1 0.5t-1 0.5zM278 412q21 29 32 64q11 30 14 60
q6 54 -7 103q-9 26 -13 33q0 2 -5 11q-1 1 -2.5 4t-2.5 4q-26 39 -91 49q-3 0 -8 0.5t-7 0.5q-10 2 -18 2q-14 -2 -15 -15q0 -60 -1 -133q0 -76 -1 -112q0 -24 -0.5 -62.5t-0.5 -50.5q-1 -11 -1 -26v-8h10q1 1 2 1q5 0 7 1q2 0 5 0.5t4 0.5l9 3q2 0 6 2h1q6 2 8 3q6 3 7 4
q4 0 5 3l6 3q2 1 11 7q1 1 2 1q0 1 1 1q4 4 7 6q11 9 20 20q6 6 16 20zM512 392q-44 89 -32 187q18 141 92 193q24 18 63 21q54 6 92.5 -28t51.5 -89q6 -27 7 -38q2 -31 3.5 -71t-6.5 -85t-21.5 -82.5t-41 -63t-65.5 -28.5q-46 -3 -85 19.5t-58 64.5zM590 606q-4 -74 -3 -98
l1 -7q2 -27 4 -44.5t8 -44t18.5 -43t30.5 -20.5q4 -1 11 -1q43 0 62 85q6 27 15 77q17 111 -11 190q-16 42 -41 47q-5 1 -15 1q-36 0 -55 -33.5t-24 -106.5z" />
    <glyph glyph-name="Rs" unicode="Rs" horiz-adv-x="852" 
d="M714 239q64 -44 67 -132.5t-49 -159.5q-20 -31 -48 -53q-56 -46 -126 -53h-3q-62 -5 -119 19.5t-91 72.5q-21 28 -31 68.5t-11.5 64.5t0 81.5t1.5 68.5q0 12 -3 21q-7 24 -29.5 39t-53.5 17q-29 0 -46 -1q-17 -2 -17 -3v-10q-1 -18 -2.5 -68.5t-3.5 -105.5t-2 -61v-4
q2 -2 8.5 -7.5t10.5 -11t4 -12.5q0 -8 -6 -10q-8 -4 -42 -4q-12 -1 -56 1h-1q-31 0 -43 3q-13 3 -11 12q0 8 4 13q3 5 12 12h1q5 5 6 7q6 11 16 333.5t-2 368.5q-28 4 -111.5 2.5t-106.5 -8.5q-19 -6 -43 -24.5t-40 -41.5q-17 -26 -21 -63t10 -64q30 -51 87 -41q42 7 44 37
q0 8 -6 9.5t-17 -0.5t-12 -2q-24 2 -35 21q-10 19 2 39.5t32 25.5q22 5 43.5 -6.5t32.5 -31.5q25 -42 -3 -93.5t-101 -45.5q-61 6 -97 58q-17 23 -21.5 43.5t-4.5 57.5t23 73q24 37 58 61t71.5 32.5t67 11t64 1t42.5 -0.5q-5 0 -8 -1q17 1 97 -2h20q28 -1 79 -1
q112 -2 159 -26q22 -13 34 -25q16 -18 25 -33q30 -59 31 -129.5t-33.5 -143t-92.5 -111.5q4 4 36 -28q14 -15 19 -30q10 -26 5 -62q-4 -36 -5.5 -58.5t-2 -62t6 -66t18.5 -55t35.5 -46t56.5 -23.5q81 -16 133 12q29 15 57 45t42 61q53 115 -21 190q-49 40 -99.5 36.5
t-84.5 -38t-16 -69.5q10 -19 20 -20t25.5 10t19.5 13q14 6 29.5 0t22.5 -20q18 -31 -13 -59q-35 -30 -81 -18q-33 10 -56 43q-18 26 -20 54.5t9.5 52t31.5 44.5t48 32.5t58 15.5t63 -5.5t60 -32.5zM230 294q0 -1 2 -1l-1 1h-1zM287 412q21 29 32 64q11 30 14 60q6 54 -7 103
q-9 26 -13 33q-1 2 -5 11q-1 1 -2.5 4t-2.5 4q-26 39 -91 49q-2 0 -7 0.5t-8 0.5q-10 2 -18 2q-14 -2 -15 -15q0 -60 -1 -133q0 -76 -1 -112q0 -24 -0.5 -62.5t-0.5 -50.5q-1 -11 -1 -26v-8h10q1 1 2 1q5 0 7 1q1 0 4 0.5t5 0.5l9 3q2 0 6 2h1q6 2 8 3q6 3 7 4q3 0 5 3l6 3
q2 1 11 7q1 1 2 1q0 1 1 1q4 4 7 6q11 9 20 20q6 6 16 20zM647 687q-3 -15 15 -25.5t34 -11.5q18 -2 26.5 11t7.5 30t-2 31q-10 63 -55 72q-29 7 -57.5 -7t-40.5 -40q-15 -43 -4.5 -80t39.5 -71q2 -3 13 -16t14.5 -17t13 -16t13 -18t10.5 -17t10.5 -19.5t7.5 -19t6 -21
t2 -21.5q3 -43 -46 -67q-24 -12 -50.5 -8.5t-47.5 19.5q-31 25 -38.5 67.5t12.5 76.5q11 20 23 21q10 0 16.5 -8.5t2.5 -16.5q-1 -3 -11.5 -11.5t-6.5 -20.5q9 -24 35 -16t33 29q10 32 -13 53t-54 19.5t-53 -21.5q-22 -26 -24.5 -70.5t10.5 -74.5q21 -58 79.5 -84.5
t114.5 3.5q88 51 82 149q-6 83 -72 139q-3 2 -13 11t-13.5 12.5l-11.5 11.5t-12 13.5t-8.5 14t-7.5 17.5q-11 38 12 62q15 17 30 11q9 -3 13 -13t1 -20q-6 -17 -25 -29q-9 -7 -10 -13z" />
    <glyph glyph-name="RT" unicode="RT" horiz-adv-x="950" 
d="M717 239q64 -44 67 -132.5t-49 -159.5q-20 -31 -48 -53q-56 -46 -126 -53h-3q-62 -5 -119 19.5t-91 72.5q-21 28 -31 68.5t-11.5 64.5t0 81.5t1.5 68.5q0 12 -3 21q-7 24 -29.5 39t-53.5 17q-29 0 -46 -1q-17 -2 -17 -3v-10q-1 -18 -2.5 -68.5t-3.5 -105.5t-2 -61v-4
q2 -2 8.5 -7.5t10.5 -11t4 -12.5q0 -8 -6 -10q-8 -4 -42 -4q-12 -1 -56 1h-1q-31 0 -43 3q-13 3 -11 12q0 8 4 13q3 5 12 12h1q5 5 6 7q6 11 16 333.5t-2 368.5q-28 4 -111.5 2.5t-106.5 -8.5q-19 -6 -43 -24.5t-40 -41.5q-17 -26 -21 -63t10 -64q30 -51 87 -41q42 7 44 37
q0 8 -6 9.5t-17 -0.5t-12 -2q-24 2 -35 21q-10 19 2 39.5t32 25.5q22 5 43.5 -6.5t32.5 -31.5q25 -42 -3 -93.5t-101 -45.5q-61 6 -97 58q-17 23 -21.5 43.5t-4.5 57.5t23 73q24 37 58 61t71.5 32.5t67 11t64 1t42.5 -0.5q-5 0 -8 -1q17 1 97 -2h20q28 -1 79 -1
q112 -2 159 -26q22 -13 34 -25q16 -18 25 -33q30 -59 31 -129.5t-33.5 -143t-92.5 -111.5q4 4 36 -28q14 -15 19 -30q10 -26 5 -62q-4 -36 -5.5 -58.5t-2 -62t6 -66t18.5 -55t35.5 -46t56.5 -23.5q81 -16 133 12q29 15 57 45t42 61q53 115 -21 190q-49 40 -99.5 36.5
t-84.5 -38t-16 -69.5q10 -19 20 -20t25.5 10t19.5 13q14 6 29.5 0t22.5 -20q18 -31 -13 -59q-35 -30 -81 -18q-33 10 -56 43q-18 26 -20 54.5t9.5 52t31.5 44.5t48 32.5t58 15.5t63 -5.5t60 -32.5zM233 294q0 -1 2 -1q-1 0 -1 0.5t-1 0.5zM290 412q21 29 32 64q11 30 14 60
q6 54 -7 103q-9 26 -13 33q0 2 -5 11q-1 1 -2.5 4t-2.5 4q-26 39 -91 49q-3 0 -8 0.5t-7 0.5q-10 2 -18 2q-14 -2 -15 -15q0 -60 -1 -133q0 -76 -1 -112q0 -24 -0.5 -62.5t-0.5 -50.5q-1 -11 -1 -26v-8h10q1 1 2 1q5 0 7 1q2 0 5 0.5t4 0.5l9 3q2 0 6 2h1q6 2 8 3q6 3 7 4
q4 0 5 3l6 3q2 1 11 7q1 1 2 1q0 1 1 1q4 4 7 6q11 9 20 20q6 6 16 20zM475 695q-5 6 -3 26q4 20 7 29q1 3 4 15.5t5 16.5q3 8 7 9h20q8 1 24 1h67q4 0 -2 -1q19 1 71 1t71 -1q4 1 -2 1h67q16 0 23 -1h21q4 -1 7 -9q2 -4 5 -16.5t4 -15.5q3 -9 7 -29q2 -20 -3 -26l-2 -2
q-6 -2 -11 0q-6 3 -10 10q0 1 -0.5 2.5t-1.5 2.5q-12 25 -16 29q-14 15 -35 15q-39 2 -83 1h-2q-2 -9 -3 -21v-8q0 -32 -0.5 -95t-0.5 -95q0 -18 -0.5 -54.5t-1.5 -54.5h1v-49q0 -7 2 -27q3 -8 11 -13q9 -4 9 -11q0 -5 -3 -8q0 -2 -2 -3.5t-4 -2t-6 -1t-5 -0.5t-13 -0.5
t-21 -0.5h-2h-2q-9 0 -21.5 0.5t-13.5 0.5q-16 3 -17 7q-2 4 -2 8q0 7 9 11q8 5 11 13q2 20 2 27v49q0 72 -1 109q0 32 -0.5 95t-0.5 95q0 5 -1 8q0 9 -2 21h-2q-45 1 -83 -1q-21 0 -35 -15q-4 -4 -16 -29q-1 -1 -1 -2t-0.5 -1.5t-0.5 -1.5q-3 -7 -10 -10q-6 -2 -11 0z" />
    <glyph glyph-name="rT" unicode="rT" horiz-adv-x="843" 
d="M714 239q64 -44 67 -132.5t-49 -159.5q-20 -31 -48 -53q-56 -46 -126 -53h-3q-62 -5 -119 19.5t-91 72.5q-21 28 -31 68.5t-11.5 64.5t0 81.5t1.5 68.5q0 12 -3 21q-7 24 -29.5 39t-53.5 17q-29 0 -46 -1q-17 -2 -17 -3v-10q-1 -18 -2.5 -68.5t-3.5 -105.5t-2 -61v-4
q2 -2 8.5 -7.5t10.5 -11t4 -12.5q0 -8 -6 -10q-8 -4 -42 -4q-12 -1 -56 1h-1q-31 0 -43 3q-13 3 -11 12q0 8 4 13q3 5 12 12h1q5 5 6 7q6 11 16 333.5t-2 368.5q-28 4 -111.5 2.5t-106.5 -8.5q-19 -6 -43 -24.5t-40 -41.5q-17 -26 -21 -63t10 -64q30 -51 87 -41q42 7 44 37
q0 8 -6 9.5t-17 -0.5t-12 -2q-24 2 -35 21q-10 19 2 39.5t32 25.5q22 5 43.5 -6.5t32.5 -31.5q25 -42 -3 -93.5t-101 -45.5q-61 6 -97 58q-17 23 -21.5 43.5t-4.5 57.5t23 73q24 37 58 61t71.5 32.5t67 11t64 1t42.5 -0.5q-5 0 -8 -1q17 1 97 -2h20q28 -1 79 -1
q112 -2 159 -26q22 -13 34 -25q16 -18 25 -33q30 -59 31 -129.5t-33.5 -143t-92.5 -111.5q4 4 36 -28q14 -15 19 -30q10 -26 5 -62q-4 -36 -5.5 -58.5t-2 -62t6 -66t18.5 -55t35.5 -46t56.5 -23.5q81 -16 133 12q29 15 57 45t42 61q53 115 -21 190q-49 40 -99.5 36.5
t-84.5 -38t-16 -69.5q10 -19 20 -20t25.5 10t19.5 13q14 6 29.5 0t22.5 -20q18 -31 -13 -59q-35 -30 -81 -18q-33 10 -56 43q-18 26 -20 54.5t9.5 52t31.5 44.5t48 32.5t58 15.5t63 -5.5t60 -32.5zM230 294q0 -1 2 -1l-1 1h-1zM287 412q21 29 32 64q11 30 14 60q6 54 -7 103
q-9 26 -13 33q-1 2 -5 11q-1 1 -2.5 4t-2.5 4q-26 39 -91 49q-2 0 -7 0.5t-8 0.5q-10 2 -18 2q-14 -2 -15 -15q0 -60 -1 -133q0 -76 -1 -112q0 -24 -0.5 -62.5t-0.5 -50.5q-1 -11 -1 -26v-8h10q1 1 2 1q5 0 7 1q1 0 4 0.5t5 0.5l9 3q2 0 6 2h1q6 2 8 3q6 3 7 4q3 0 5 3l6 3
q2 1 11 7q1 1 2 1q0 1 1 1q4 4 7 6q11 9 20 20q6 6 16 20zM1250 1021q6 -37 -6 -74q-14 -44 -57 -70q-13 -8 -23 -10q-19 -7 -42 -5q-13 0 -30 5q-29 9 -45 32q-18 26 -15 59v1q3 18 11 31q8 14 22 22q21 13 43 7q1 0 2 -1q17 -5 24 -22q1 -3 1 -9q2 -11 -5.5 -21t-18.5 -11
q-4 -1 -13 0t-13 1q-5 0 -10 -3q-2 -2 -2 -3q-5 -8 -2 -17.5t10 -16.5q14 -13 34 -16q34 -6 61 13q9 8 17 17q22 30 19 71v1l-1 2q-5 29 -22 52q-43 52 -112 52q-42 0 -77 -20q-29 -17 -69 -46l-9 -7q-20 -14 -22 -16q-9 -6 -31 -21.5t-35 -23.5q-15 -10 -47 -30
q-36 -22 -95 -52q-18 -8 -38 -20q-18 -9 -23 -21q-2 -5 -2 -15q0 -33 2 -99v-10q0 -60 -2 -182q0 -73 -1 -109q1 -11 1 -50q0 -20 2 -31q2 -7 12 -15q10 -5 10 -13q0 -4 -2 -8q0 -2 -2 -4q-4 -4 -18 -4q-10 -2 -40 -2h-3q-30 0 -40 2q-14 0 -18 4q-2 2 -2 4q-2 4 -2 8
q0 8 10 13q10 8 12 15q2 11 2 31q0 16 0.5 34.5t0.5 21.5q-1 34 -1 103q-2 122 -2 182q0 34 -1 51v25q3 17 -3 21q-4 3 -22 -1q-7 -2 -31 -9.5t-37 -9.5q-39 -7 -66 -7q-81 0 -141 40q-60 43 -57 77q0 8 3 16q5 9 20 9h1q6 0 13 -5q9 -6 17 -17q2 -2 5.5 -6t6.5 -7t6 -5
q26 -20 54 -28q35 -11 71 -11q54 0 120 21q-1 0 -4 -0.5t-4 -1.5q1 0 5.5 1.5t8.5 2.5q1 1 4 1l2 1q12 4 32 12q167 67 314 170q17 13 33 24q58 42 87 58q22 13 47 17q17 4 39 4q35 0 71 -13q38 -16 68 -49q34 -37 40 -87z" />
    <glyph glyph-name="Ru" unicode="Ru" horiz-adv-x="858" 
d="M720 239q64 -44 67 -132.5t-49 -159.5q-20 -31 -48 -53q-56 -46 -126 -52q-1 -1 -3 -1q-62 -5 -119 19.5t-91 72.5q-21 29 -31 69.5t-11.5 64.5t0 81t1.5 68q0 12 -3 21q-7 24 -29.5 39t-53.5 17q-29 0 -46 -1q-17 -2 -17 -3v-9q-1 -18 -2.5 -69t-3.5 -106t-2 -61v-4
q2 -2 8.5 -7.5t10.5 -11t4 -12.5q0 -8 -6 -10q-8 -4 -42 -4q-32 0 -56 1h-1q-31 0 -43 3q-13 3 -11 12q0 8 4 13q3 5 12 12q1 0 1 1q4 3 6 6q6 11 16 334t-2 368q-28 4 -111.5 2.5t-106.5 -8.5q-19 -6 -43 -24.5t-40 -41.5q-17 -26 -21 -63t10 -64q30 -51 87 -41q42 7 44 37
q0 8 -6 9.5t-17 -0.5t-12 -2q-24 2 -35 21q-10 19 1.5 39.5t32.5 25.5q21 6 43 -6t33 -32q25 -42 -3 -93.5t-101 -45.5q-61 6 -97 58q-17 23 -21.5 43.5t-4.5 57.5t23 73q24 37 58 61t71.5 32.5t67 11t64 1t42.5 -0.5q-5 0 -8 -1q17 1 97 -2h20q28 -1 79 -1q112 -2 159 -26
q22 -13 34 -25q16 -18 25 -33q30 -59 31 -129.5t-33.5 -143t-92.5 -110.5q4 3 36 -29q14 -15 19 -30q10 -26 5 -62q-4 -36 -5.5 -58.5t-2 -62t6 -66t18.5 -55t35.5 -46t56.5 -23.5q81 -16 133 12q29 15 57 45t42 61q53 115 -21 190q-49 40 -99.5 36.5t-84.5 -38t-16 -69.5
q10 -19 20 -20t25.5 10t19.5 13q14 6 29.5 0t22.5 -20q18 -31 -13 -59q-35 -30 -81 -18q-33 10 -56 43q-18 26 -20 54.5t9.5 52t31.5 44.5t48 32.5t58 15.5t63 -5.5t60 -32.5zM236 294q1 -1 2 -1l-1 1h-1zM293 412q21 29 32 64q11 30 14 60q6 54 -7 103q-4 15 -13 33
q-1 2 -5 11q-1 1 -2.5 3.5t-2.5 4.5q-26 39 -91 49q-2 0 -7 1t-8 1q-2 0 -8.5 0.5t-9.5 0.5q-14 -2 -15 -15q0 -60 -1 -133q0 -76 -1 -112q0 -24 -0.5 -62.5t-0.5 -50.5q-1 -11 -1 -26v-8q6 0 10 1h2q5 0 7 1q1 0 4 0.5t5 0.5l9 3q2 0 6 2h1q6 2 8 3q6 3 7 4q3 0 5 3l6 3
q2 1 11 7q1 1 2 1q0 1 1 1q4 4 7 6q11 9 20 20q6 6 16 20zM769 796q1 0 5 -0.5t6 -1t4 -2.5t2 -5q0 -6 -8 -13l-7 -7q-2 -4 -2 -9q0 -16 0.5 -42.5t0.5 -36.5q0 -14 0.5 -33t0.5 -23v-91q0 -56 -5 -96q-7 -55 -52 -103q-27 -27 -81 -27q-36 -1 -73.5 19.5t-53.5 52.5
q-18 37 -14 114q1 41 1 125v95v17v5q0 10 -3 19q-1 8 -10 13q-8 4 -8 12q0 11 11 13q1 0 4.5 0.5t5.5 0.5q44 4 76 0q1 0 5 -0.5t5.5 -1t3.5 -2t2 -4.5q0 -4 -2.5 -8t-6.5 -7.5t-5 -5.5t-3 -16v-32v-1v-35q0 -67 -2 -203q-2 -103 47 -140q36 -20 61.5 -2.5t36.5 53.5
q4 12 7 24.5t4.5 20.5t2.5 22.5t1 19.5t0.5 24t0.5 24q0 71 -1 106v59v55q-2 21 -4 25l-8 7q-7 7 -7 13q0 3 2 5t4 2.5t6 1t5 0.5h1h43h1z" />
    <glyph glyph-name="as" unicode="as" horiz-adv-x="815" 
d="M315 321q1 -11 -13 -13q-40 -4 -70 0q-16 0 -17 7q-1 6 7 14t6 19q-9 76 -12 86l-105 -4q-1 0 -10.5 -33.5t-9.5 -35.5q-5 -18 -4 -23q2 -4 8 -6.5t7 -5.5q7 -15 -25 -18q-20 -2 -34 1q-11 2 -12 10q0 4 2 7t5.5 5.5t4.5 4.5q9 13 24 64.5t38 139.5t39 141q20 64 19 83
q-1 10 0 16t7 8.5t22 3.5q21 0 28 -19.5t22 -121.5q24 -159 48 -296q0 -3 4 -11q3 -7 11.5 -11.5t9.5 -11.5zM140 474q12 0 32 0.5t26 0.5l-1 13q0 1 -6 60.5t-10 89.5q0 -1 -4 -17.5t-6 -25.5q-10 -40 -31 -121zM724 82q21 -76 20.5 -153t-30.5 -153t-86 -127
q-68 -62 -160 -86t-186 -7q-92 18 -165 80q-66 56 -95 136t-20.5 162.5t49.5 156.5q48 87 126 136q55 35 125 33q82 -2 140 -58.5t58 -168.5q0 -50 -16.5 -87.5t-42 -55.5t-54.5 -26t-54.5 -5.5t-42.5 11.5q-30 17 -43 54q-12 37 -6 76q0 1 0.5 3.5t0.5 3.5q0 2 1 5t2 5
q13 46 58 63q22 8 43 2q10 -3 17 -9q17 -13 24 -34.5t0 -41.5q-9 -24 -34.5 -35.5t-49.5 -2.5q-1 1 -3 1v-1q-3 -28 25 -45q16 -12 44 -5t52 37q28 36 34 84t-14 89q-4 8 -6 11q-42 73 -124 81q-68 7 -127 -38q-41 -30 -73 -84q-38 -66 -46.5 -141.5t16.5 -147.5
q26 -71 85.5 -121t132.5 -59q82 -11 166 15t125 85q44 63 53.5 140t-7.5 146.5t-54 141.5q-26 50 -80.5 125t-96 144.5t-56.5 138.5q-21 98 28 169t143 70q53 0 98.5 -27t71.5 -73q27 -48 30.5 -112.5t-21.5 -113.5q-2 -4 -8 -12.5t-9.5 -15t-4.5 -13.5q-6 -33 -16 -38
q-6 -3 -16.5 -1.5t-15.5 5.5q-74 59 -71 99q1 16 21.5 17.5t24.5 4.5q33 23 36 74t-17 84q-21 39 -63.5 55t-83.5 2q-52 -18 -45 -112q3 -37 19.5 -75t31.5 -60t47.5 -64t44.5 -58q113 -156 150 -279z" />
    <glyph glyph-name="bs" unicode="bs" horiz-adv-x="815" 
d="M246 504q21 -12 29 -21q20 -20 25.5 -54t-2.5 -58q-11 -40 -36 -51.5t-73 -13.5q-45 -1 -113 -1h-1q-22 1 -28 2.5t-5 7.5q0 4 2 7t6.5 7t5.5 5q4 7 10 211t-2 221l-7.5 7.5t-6.5 11.5q0 6 8.5 7t47.5 1h14h14.5h17.5q31 -1 48 -2.5t42 -10t41 -25.5q27 -24 21 -99
t-48 -132q-2 -3 -6 -8q-8 -10 -4 -12zM233 417q2 41 -14.5 53.5t-51.5 15.5q-6 1 -21.5 0.5t-15.5 -1.5l-1 -148l2 -2q6 -2 34 0l6 1q6 0 8 0.5t8.5 1.5t9.5 3t8.5 5t8.5 7t7 10.5t6 14t4 17.5t2 22zM183 534q25 39 39 83.5t14 74.5q-1 63 -80 71h-4.5h-5.5t-4.5 -0.5t-4 -3
t-1.5 -5.5q-1 -211 -3 -240q37 0 50 20zM724 82q21 -76 20.5 -153t-30.5 -153t-86 -127q-68 -62 -160 -86t-186 -7q-92 18 -165 80q-66 56 -95 136t-20.5 162.5t49.5 156.5q48 87 126 136q55 35 125 33q82 -2 140 -58.5t58 -168.5q0 -50 -16.5 -87.5t-42 -55.5t-54.5 -26
t-54.5 -5.5t-42.5 11.5q-30 17 -43 54q-12 37 -6 76q0 1 0.5 3.5t0.5 3.5q0 2 1 5t2 5q13 46 58 63q22 8 43 2q10 -3 17 -9q17 -13 24 -34.5t0 -41.5q-9 -24 -34.5 -35.5t-49.5 -2.5q-1 1 -3 1v-1q-3 -28 25 -45q16 -12 44 -5t52 37q28 36 34 84t-14 89q-4 8 -6 11
q-42 73 -124 81q-68 7 -127 -38q-41 -30 -73 -84q-38 -66 -46.5 -141.5t16.5 -147.5q26 -71 85.5 -121t132.5 -59q82 -11 166 15t125 85q44 63 53.5 140t-7.5 146.5t-54 141.5q-26 50 -80.5 125t-96 144.5t-56.5 138.5q-21 98 28 169t143 70q53 0 98.5 -27t71.5 -73
q27 -48 30.5 -112.5t-21.5 -113.5q-2 -4 -8 -12.5t-9.5 -15t-4.5 -13.5q-6 -33 -16 -38q-6 -3 -16.5 -1.5t-15.5 5.5q-74 59 -71 99q1 16 21.5 17.5t24.5 4.5q33 23 36 74t-17 84q-21 39 -63.5 55t-83.5 2q-52 -18 -45 -112q3 -37 19.5 -75t31.5 -60t47.5 -64t44.5 -58
q113 -156 150 -279z" />
    <glyph glyph-name="ds" unicode="ds" horiz-adv-x="838" 
d="M319 666q14 -34 14 -100q0 -149 -62.5 -207.5t-193.5 -53.5q-14 -1 -39.5 -0.5t-31.5 2.5q-10 3 -2 15q2 2 6.5 5.5t5.5 6.5q6 13 8.5 28.5t2 41.5t-0.5 30q0 13 1 36t1.5 41.5t0.5 35.5q0 34 0.5 67t1.5 52.5t1 37.5v27t-1.5 17.5t-4 12t-7.5 6.5q-7 4 -9 8q-1 13 11 16
q8 3 57 2.5t79 -5.5q56 -9 99 -40.5t63 -81.5zM156 351q108 45 98 234q-3 33 -6 52.5t-14.5 45.5t-32.5 42q-29 23 -66 29q-26 3 -30 2q-8 -2 -8 -12q-2 -24 -5 -109.5t-5 -190t7 -104.5q16 -8 62 11zM747 82q21 -76 20.5 -153t-30.5 -153t-86 -127q-68 -62 -160 -86
t-186 -7q-92 18 -165 80q-66 56 -95 136t-20.5 162.5t49.5 156.5q48 87 126 136q55 35 125 33q82 -2 140 -58.5t58 -168.5q0 -50 -16.5 -87.5t-42 -55.5t-54.5 -26t-54.5 -5.5t-42.5 11.5q-30 17 -43 54q-12 37 -6 76q0 1 0.5 3.5t0.5 3.5q1 1 2 5t1 5q13 46 58 63
q22 8 43 2q10 -3 17 -9q17 -13 24 -34.5t0 -41.5q-9 -24 -34.5 -35.5t-49.5 -2.5q-1 1 -3 1v-1q-3 -28 25 -45q16 -12 44 -5t52 37q28 36 34 84t-14 89q-4 8 -6 11q-42 73 -124 81q-68 7 -127 -38q-41 -30 -73 -84q-38 -66 -46.5 -141.5t16.5 -147.5q26 -71 85.5 -121
t132.5 -59q82 -11 166 15t125 85q44 63 53.5 140t-7.5 146.5t-54 141.5q-26 50 -80.5 125t-96 144.5t-56.5 138.5q-21 98 28 169t143 70q53 0 98.5 -27t71.5 -73q27 -48 30.5 -112.5t-21.5 -113.5q-2 -4 -8 -12.5t-9.5 -15t-4.5 -13.5q-6 -33 -16 -38q-6 -3 -16.5 -1.5
t-15.5 5.5q-74 59 -71 99q1 16 21.5 17.5t24.5 4.5q33 23 36 74t-17 84q-21 39 -63.5 55t-83.5 2q-52 -18 -45 -112q3 -37 19.5 -75t31.5 -60t47.5 -64t44.5 -58q113 -156 150 -279z" />
    <glyph glyph-name="es" unicode="es" horiz-adv-x="815" 
d="M294 388q2 -2 4 -6q5 -11 2 -49q0 -26 -10 -26h-28q-8 0 -24.5 -0.5t-24.5 -0.5q-11 1 -54 1q-67 0 -84 2q-4 1 -12 2q-18 5 -18 22q0 12 14 21q9 5 14 15.5t6.5 26t2 27.5t-0.5 31t-1 27q0 7 -1 68.5t-1 137.5q0 24 -4.5 37.5t-10 16t-11 6t-6.5 10.5q-2 13 3.5 22.5
t19.5 10.5q18 0 45 -0.5t45 -0.5q62 2 91 2q34 0 37 -1q14 -5 14 -20q0 -1 -6 -28q-1 -3 -1 -13t-2 -15q-3 -11 -15 -14q-15 -4 -21 6q-2 5 -5 14t-4 11q-6 16 -16 20q-3 1 -9 1q-8 1 -52 1q-12 0 -19.5 -5t-10 -17t-3 -18t-0.5 -23q0 -74 1 -138q47 0 47 10q0 11 5 23
t25 7.5t20 -26.5q0 -19 -0.5 -36t-0.5 -31q0 -9 -0.5 -15.5t-4.5 -13.5t-12 -6q-32 3 -32 29v6.5t-1.5 4t-2.5 2t-4.5 1t-6.5 0t-9 -0.5h-12q-7 0 -8.5 -0.5t-3.5 -0.5q-1 -96 -1 -112q0 -3 -0.5 -12t-0.5 -14.5t2 -11.5t7 -9t50 -3q4 0 14 -0.5t16 -0.5t13.5 1.5t12.5 5.5
q12 11 17 40q5 10 17 6q4 -1 10 -7zM724 82q21 -76 20.5 -153t-30.5 -153t-86 -127q-68 -62 -160 -86t-186 -7q-92 18 -165 80q-66 56 -95 136t-20.5 162.5t49.5 156.5q48 87 126 136q55 35 125 33q82 -2 140 -58.5t58 -168.5q0 -50 -16.5 -87.5t-42 -55.5t-54.5 -26
t-54.5 -5.5t-42.5 11.5q-30 17 -43 54q-12 37 -6 76q0 1 0.5 3.5t0.5 3.5q0 2 1 5t2 5q13 46 58 63q22 8 43 2q10 -3 17 -9q17 -13 24 -34.5t0 -41.5q-9 -24 -34.5 -35.5t-49.5 -2.5q-1 1 -3 1v-1q-3 -28 25 -45q16 -12 44 -5t52 37q28 36 34 84t-14 89q-4 8 -6 11
q-42 73 -124 81q-68 7 -127 -38q-41 -30 -73 -84q-38 -66 -46.5 -141.5t16.5 -147.5q26 -71 85.5 -121t132.5 -59q82 -11 166 15t125 85q44 63 53.5 140t-7.5 146.5t-54 141.5q-26 50 -80.5 125t-96 144.5t-56.5 138.5q-21 98 28 169t143 70q53 0 98.5 -27t71.5 -73
q27 -48 30.5 -112.5t-21.5 -113.5q-2 -4 -8 -12.5t-9.5 -15t-4.5 -13.5q-6 -33 -16 -38q-6 -3 -16.5 -1.5t-15.5 5.5q-74 59 -71 99q1 16 21.5 17.5t24.5 4.5q33 23 36 74t-17 84q-21 39 -63.5 55t-83.5 2q-52 -18 -45 -112q3 -37 19.5 -75t31.5 -60t47.5 -64t44.5 -58
q113 -156 150 -279z" />
    <glyph glyph-name="is" unicode="is" horiz-adv-x="815" 
d="M227 353q15 -9 15 -21q0 -18 -19 -22q-10 -2 -19 -2q-30 -3 -61 -1q-2 1 -5 1q-1 0 -6.5 0.5t-8.5 1t-6.5 1.5t-5.5 4t-2 7q0 14 13.5 26.5t13.5 13.5q6 11 6 60q0 24 0.5 51t0.5 33v111q0 42 -1 75q-3 25 -5 32q-4 13 -18 22q-1 0 -3.5 1.5t-3.5 2.5t-3 2.5t-3 3
t-1.5 4.5t-0.5 6q0 18 20 22q7 1 20 3q30 3 55 0h5q2 0 9 -1t10 -1.5t6.5 -4t3.5 -8.5q0 -10 -12 -22l-13 -13q-5 -10 -5 -245q0 -33 1 -63v-26q2 -25 5 -32q4 -13 18 -22zM724 82q21 -76 20.5 -153t-30.5 -153t-86 -127q-68 -62 -160 -86t-186 -7q-92 18 -165 80
q-66 56 -95 136t-20.5 162.5t49.5 156.5q48 87 126 136q55 35 125 33q82 -2 140 -58.5t58 -168.5q0 -50 -16.5 -87.5t-42 -55.5t-54.5 -26t-54.5 -5.5t-42.5 11.5q-30 17 -43 54q-12 37 -6 76q0 1 0.5 3.5t0.5 3.5q0 2 1 5t2 5q13 46 58 63q22 8 43 2q10 -3 17 -9
q17 -13 24 -34.5t0 -41.5q-9 -24 -34.5 -35.5t-49.5 -2.5q-1 1 -3 1v-1q-3 -28 25 -45q16 -12 44 -5t52 37q28 36 34 84t-14 89q-4 8 -6 11q-42 73 -124 81q-68 7 -127 -38q-41 -30 -73 -84q-38 -66 -46.5 -141.5t16.5 -147.5q26 -71 85.5 -121t132.5 -59q82 -11 166 15
t125 85q44 63 53.5 140t-7.5 146.5t-54 141.5q-26 50 -80.5 125t-96 144.5t-56.5 138.5q-21 98 28 169t143 70q53 0 98.5 -27t71.5 -73q27 -48 30.5 -112.5t-21.5 -113.5q-2 -4 -8 -12.5t-9.5 -15t-4.5 -13.5q-6 -33 -16 -38q-6 -3 -16.5 -1.5t-15.5 5.5q-74 59 -71 99
q1 16 21.5 17.5t24.5 4.5q33 23 36 74t-17 84q-21 39 -63.5 55t-83.5 2q-52 -18 -45 -112q3 -37 19.5 -75t31.5 -60t47.5 -64t44.5 -58q113 -156 150 -279z" />
    <glyph glyph-name="ms" unicode="ms" horiz-adv-x="886" 
d="M386 339q0 -1 7.5 -8.5t4.5 -13.5t-19 -6q-11 -1 -55 -1q-37 0 -43 7q-10 12 5 20q8 6 10 13q0 2 1 6t1 6v1v53v46v6v216q-3 6 -5 1q-27 -118 -75 -331q-11 -41 -34 -41q-9 0 -14 2t-12.5 14t-15.5 36q-15 47 -26.5 87t-18 63.5t-18.5 71.5t-21 81q-4 14 -6 16v-1l-1 -1
q1 -53 0 -106v-95v-55q0 -9 -0.5 -34.5t-0.5 -41.5q0 -5 2 -9l8 -7q7 -7 7 -13q0 -3 -2 -4.5t-4 -2t-6 -1t-5 -0.5h-1h-31h-1q-1 0 -5 0.5t-6 1t-4 2t-2 4.5q0 6 8 13l7 7q2 3 4 24v1q0 51 0.5 114.5t0.5 70.5q-1 78 0 115q0 37 1 56q0 41 -6 47q-1 1 -11 1q-3 4 -3 10
q0 7 8 7q11 0 32 0.5t33 0.5q23 0 29 -15q14 -39 36.5 -120.5t38.5 -142.5t21 -66q1 2 7 28q1 3 13.5 58t17.5 80q7 33 15.5 70.5t15 63.5t6.5 27q3 14 25 16q8 1 76 1q24 0 24 -9q0 -5 -11 -16q-5 -6 -5 -19v-1q-1 -27 -1 -69q0 -93 1 -139v-124q0 -7 -0.5 -24t-0.5 -26
q2 -18 4 -22zM795 82q36 -106 11 -231.5t-108 -201.5q-68 -62 -160 -86t-186 -7q-93 19 -165 80q-66 56 -95 136t-20.5 162.5t49.5 156.5q48 86 126 136q55 35 125 33q82 -2 140 -58.5t58 -168.5q0 -50 -16.5 -87.5t-42 -55.5t-54.5 -26t-54.5 -5.5t-42.5 11.5
q-30 17 -43 54q-12 37 -6 76q1 1 1 3.5t1 3.5q0 4 2 10q13 46 58 63q22 8 43 2q10 -3 17 -9q17 -13 24 -34.5t0 -41.5q-9 -24 -34.5 -35.5t-49.5 -2.5q-1 1 -3 1v-1q-3 -28 25 -45q50 -26 96 32q28 36 34 84t-14 89q-4 8 -6 11q-42 73 -124 81q-68 7 -127 -38
q-42 -30 -72 -84q-39 -66 -48 -141.5t17 -147.5q26 -71 85.5 -121t132.5 -59q82 -11 166 15t125 85q44 63 53.5 140t-7.5 146.5t-54 141.5q-26 50 -80.5 125t-96 144.5t-56.5 138.5q-21 98 28 169t143 70q53 0 98.5 -27t71.5 -73q27 -49 31 -113t-22 -113q-2 -4 -8 -12.5
t-9.5 -15t-4.5 -13.5q0 -2 -1 -8l-1.5 -9t-2 -8t-4.5 -8t-7 -5q-6 -3 -16.5 -1.5t-15.5 5.5q-74 59 -71 99q1 16 21.5 17.5t24.5 4.5q33 23 36.5 74t-17.5 84q-20 39 -62.5 55t-83.5 2q-53 -18 -46 -112q3 -37 19.5 -75t31.5 -60t47.5 -64t44.5 -58q112 -156 151 -279z" />
    <glyph glyph-name="ns" unicode="ns" horiz-adv-x="815" 
d="M329 776q0 -11 -12.5 -23t-12.5 -13q-3 -9 -4 -16q2 -104 2 -138q2 -86 2 -174q0 -20 -1 -30v-27v-4q2 -7 7 -9q10 -4 11 -9q1 -3 1 -10q0 -8 -2 -11q-4 -6 -27 -6h-38q-2 0 -1 0.5t0 1.5q-12 5 -25 25v1q-18 33 -27 58q-92 249 -97 253v-1q-1 -1 -1 -2l1 -15v5
q0 -51 -4 -259q1 -7 4 -16q0 -1 12.5 -13t12.5 -23q0 -4 -1.5 -6.5t-3.5 -4t-5.5 -2.5t-5.5 -1t-7 -0.5t-6 -0.5h-1h-52h-2q-1 0 -5.5 0.5t-6.5 0.5t-5.5 1t-5.5 2.5t-3.5 4t-1.5 6.5q0 11 12.5 23t12.5 13q4 9 6 43v1q0 63 2 170q0 35 2 103q0 73 -9 83q-2 1 -19 4
q-6 6 -6 16q0 14 13 14q12 0 34.5 0.5t33.5 0.5q7 1 11.5 0t10.5 -1q5 0 16.5 -24.5t25.5 -61t29.5 -80t28 -80t21.5 -62.5l9 -26q-2 136 -2 142v14v-2l-2 85v1q0 26 -6 42v1q0 1 -12.5 13t-12.5 23q0 13 22 15h3h3h1h1h52h1q2 0 9 -1t10 -1.5t6.5 -4t3.5 -8.5zM724 82
q21 -76 20.5 -153t-30.5 -153t-86 -127q-68 -62 -160 -86t-186 -7q-92 18 -165 80q-66 56 -95 136t-20.5 162.5t49.5 156.5q48 87 126 136q55 35 125 33q82 -2 140 -58.5t58 -168.5q0 -50 -16.5 -87.5t-42 -55.5t-54.5 -26t-54.5 -5.5t-42.5 11.5q-30 17 -43 54
q-12 37 -6 76q0 1 0.5 3.5t0.5 3.5q0 2 1 5t2 5q13 46 58 63q22 8 43 2q10 -3 17 -9q17 -13 24 -34.5t0 -41.5q-9 -24 -34.5 -35.5t-49.5 -2.5q-1 1 -3 1v-1q-3 -28 25 -45q16 -12 44 -5t52 37q28 36 34 84t-14 89q-4 8 -6 11q-42 73 -124 81q-68 7 -127 -38
q-41 -30 -73 -84q-38 -66 -46.5 -141.5t16.5 -147.5q26 -71 85.5 -121t132.5 -59q82 -11 166 15t125 85q44 63 53.5 140t-7.5 146.5t-54 141.5q-26 50 -80.5 125t-96 144.5t-56.5 138.5q-21 98 28 169t143 70q53 0 98.5 -27t71.5 -73q27 -48 30.5 -112.5t-21.5 -113.5
q-2 -4 -8 -12.5t-9.5 -15t-4.5 -13.5q-6 -33 -16 -38q-6 -3 -16.5 -1.5t-15.5 5.5q-74 59 -71 99q1 16 21.5 17.5t24.5 4.5q33 23 36 74t-17 84q-21 39 -63.5 55t-83.5 2q-52 -18 -45 -112q3 -37 19.5 -75t31.5 -60t47.5 -64t44.5 -58q113 -156 150 -279z" />
    <glyph glyph-name="os" unicode="os" horiz-adv-x="815" 
d="M51 390q-43 90 -31 187q18 143 92 194q23 16 63 21q54 5 92.5 -29t51.5 -89q3 -12 7 -38q2 -31 3.5 -71t-7 -84.5t-21.5 -82.5t-41 -63.5t-66 -28.5q-45 -3 -84 19.5t-59 64.5zM130 604q-5 -58 -3 -98v-7q2 -29 4 -44.5t8.5 -43t19 -43.5t30.5 -20q8 -2 11 -2q41 0 61 85
q10 44 16 77q18 113 -12 190q-15 44 -40 47q-12 2 -16 2q-35 0 -54 -33.5t-25 -107.5v-2zM724 82q21 -76 20.5 -153t-30.5 -153t-86 -127q-68 -62 -160 -86t-186 -7q-92 18 -165 80q-66 56 -95 136t-20.5 162.5t49.5 156.5q48 87 126 136q55 35 125 33q82 -2 140 -58.5
t58 -168.5q0 -50 -16.5 -87.5t-42 -55.5t-54.5 -26t-54.5 -5.5t-42.5 11.5q-30 17 -43 54q-12 37 -6 76q0 1 0.5 3.5t0.5 3.5q0 2 1 5t2 5q13 46 58 63q22 8 43 2q10 -3 17 -9q17 -13 24 -34.5t0 -41.5q-9 -24 -34.5 -35.5t-49.5 -2.5q-1 1 -3 1v-1q-3 -28 25 -45
q16 -12 44 -5t52 37q28 36 34 84t-14 89q-4 8 -6 11q-42 73 -124 81q-68 7 -127 -38q-41 -30 -73 -84q-38 -66 -46.5 -141.5t16.5 -147.5q26 -71 85.5 -121t132.5 -59q82 -11 166 15t125 85q44 63 53.5 140t-7.5 146.5t-54 141.5q-26 50 -80.5 125t-96 144.5t-56.5 138.5
q-21 98 28 169t143 70q53 0 98.5 -27t71.5 -73q27 -48 30.5 -112.5t-21.5 -113.5q-2 -4 -8 -12.5t-9.5 -15t-4.5 -13.5q-6 -33 -16 -38q-6 -3 -16.5 -1.5t-15.5 5.5q-74 59 -71 99q1 16 21.5 17.5t24.5 4.5q33 23 36 74t-17 84q-21 39 -63.5 55t-83.5 2q-52 -18 -45 -112
q3 -37 19.5 -75t31.5 -60t47.5 -64t44.5 -58q113 -156 150 -279z" />
    <glyph glyph-name="ss" unicode="ss" horiz-adv-x="815" 
d="M200 685q2 8 10 13q21 17 25 30q2 10 -1.5 20t-12.5 13q-15 4 -30 -11q-23 -24 -12 -63q3 -10 7.5 -19t13 -18t13 -13.5t17.5 -15.5t15 -13q67 -60 71 -140q7 -98 -81 -149q-56 -30 -114.5 -3.5t-79.5 85.5q-13 31 -10.5 75t24.5 69q22 20 52.5 22t53.5 -20t13 -53
q-7 -21 -32.5 -29t-34.5 16q-3 9 0 14t9.5 9.5t8.5 9.5q3 8 -3 16t-16 8t-24 -21q-20 -34 -12 -76.5t39 -67.5q20 -16 47.5 -19t50.5 8q47 25 46 68q-1 12 -3.5 24.5t-5.5 22t-10.5 22.5t-11.5 19.5t-14.5 20.5t-14 18.5t-16.5 19.5t-15 18q-67 80 -35 150q13 27 41.5 40.5
t56.5 7.5q46 -11 56 -73q1 -14 2 -30.5t-8 -29.5t-26 -12t-34.5 11.5t-14.5 25.5zM724 82q21 -76 20.5 -153t-30.5 -153t-86 -127q-68 -62 -160 -86t-186 -7q-92 18 -165 80q-66 56 -95 136t-20.5 162.5t49.5 156.5q48 87 126 136q55 35 125 33q82 -2 140 -58.5t58 -168.5
q0 -50 -16.5 -87.5t-42 -55.5t-54.5 -26t-54.5 -5.5t-42.5 11.5q-30 17 -43 54q-12 37 -6 76q0 1 0.5 3.5t0.5 3.5q0 2 1 5t2 5q13 46 58 63q22 8 43 2q10 -3 17 -9q17 -13 24 -34.5t0 -41.5q-9 -24 -34.5 -35.5t-49.5 -2.5q-1 1 -3 1v-1q-3 -28 25 -45q16 -12 44 -5t52 37
q28 36 34 84t-14 89q-4 8 -6 11q-42 73 -124 81q-68 7 -127 -38q-41 -30 -73 -84q-38 -66 -46.5 -141.5t16.5 -147.5q26 -71 85.5 -121t132.5 -59q82 -11 166 15t125 85q44 63 53.5 140t-7.5 146.5t-54 141.5q-26 50 -80.5 125t-96 144.5t-56.5 138.5q-21 98 28 169t143 70
q53 0 98.5 -27t71.5 -73q27 -48 30.5 -112.5t-21.5 -113.5q-2 -4 -8 -12.5t-9.5 -15t-4.5 -13.5q-6 -33 -16 -38q-6 -3 -16.5 -1.5t-15.5 5.5q-74 59 -71 99q1 16 21.5 17.5t24.5 4.5q33 23 36 74t-17 84q-21 39 -63.5 55t-83.5 2q-52 -18 -45 -112q3 -37 19.5 -75t31.5 -60
t47.5 -64t44.5 -58q113 -156 150 -279z" />
    </font>
</defs>
</svg>
